<svg
   xmlns="http://www.w3.org/2000/svg"
   width="800"
   height="494"
   viewBox="0 0 185000 193000"
   id="svg-map"
   version="1.1"/>
 <g
   id="g19"
   style="stroke:#646464;stroke-opacity:1"
   transform="matrix(1.0154058,0,0,1.0147339,-1248.7565,-1436.8718)">
   <path
   style="fill:#ffffe6;fill-opacity:1;stroke:#646464;stroke-width:282.222229;stroke-miterlimit:4;stroke-dasharray:none;stroke-opacity:1"
   id="path21"
   d="M 18531,115440 L 19370,115440 L 20210,114181 L 20629,112502 L 20629,112082 L 20210,110403 L 20210,109564 L 20629,108304 L 21469,108304 L 23568,107885 L 23987,108724 L 25247,108724 L 25666,109144 L 26926,109144 L 28185,109144 L 28605,108304 L 29864,108724 L 30703,107885 L 31543,108304 L 31962,108724 L 33641,108304 L 34061,108724 L 34901,109144 L 34901,109564 L 36160,110823 L 36160,110823 L 36580,112921 L 38678,113341 L 40777,112502 L 43715,111242 L 54209,107045 L 52949,98231 L 53369,97811 L 52949,97391 L 52949,96971 L 52530,96971 L 52530,96132 L 52110,95712 L 52110,94873 L 52949,95292 L 52949,94873 L 52949,94453 L 53369,94033 L 53789,94033 L 53789,93613 L 54209,92354 L 54209,91515 L 54209,91095 L 53789,89416 L 50431,84799 L 50851,84799 L 51270,83959 L 50851,83120 L 52530,82700 L 52110,82280 L 52110,81441 L 52530,81441 L 52110,80601 L 52530,81021 L 52949,80601 L 53369,80601 L 53789,80182 L 54209,79762 L 54628,79762 L 56727,78503 L 56727,78083 L 58826,77663 L 60925,76824 L 60925,76824 L 60505,75984 L 60505,75564 L 58406,65491 L 57147,64651 L 56727,64232 L 57566,60874 L 57566,60454 L 57566,60454 L 55468,57935 L 53789,53738 L 53369,51639 L 53369,51639 L 53369,50380 L 53369,49960 L 52949,49121 L 49172,47022 L 48752,47442 L 46653,47022 L 45394,46602 L 45394,46602 L 44974,45763 L 44135,46183 L 43715,46183 L 42876,46602 L 42036,46183 L 41197,45763 L 39518,42405 L 38678,41985 L 38678,41146 L 39937,39467 L 39937,37788 L 40777,36529 L 40777,36109 L 40777,35689 L 40777,34430 L 41616,33590 L 41616,33590 L 40777,33171 L 40777,33171 L 38678,32331 L 37419,31072 L 36999,30233 L 36160,29813 L 35320,27714 L 35320,26455 L 34901,24776 L 34901,23517 L 35320,22677 L 35320,22677 L 36580,22257 L 36999,20998 L 38259,19739 L 39098,19319 L 39518,20159 L 39518,19319 L 39518,18900 L 37839,18480 L 37839,18060 L 37419,17640 L 36999,17221 L 35740,16381 L 35320,15542 L 35740,13863 L 35740,13443 L 35320,13023 L 35320,13023 L 36160,12603 L 36160,13023 L 36580,12603 L 36999,12184 L 36999,11344 L 36580,10924 L 36999,10085 L 37419,9665 L 37419,9246 L 38259,7986 L 38259,7986 L 39518,9246 L 42036,9665 L 45814,10924 L 47493,10085 L 47493,10085 L 48332,10924 L 52110,13443 L 52110,13863 L 52530,13863 L 52530,14702 L 53369,14282 L 53789,14702 L 55048,15961 L 55888,16801 L 56727,18480 L 57147,18480 L 59665,17640 L 60085,17221 L 63023,17640 L 65122,18900 L 65122,18900 L 66381,20159 L 66801,20579 L 67221,21838 L 67640,22257 L 73936,26455 L 74776,26875 L 76455,27294 L 83590,27714 L 86948,28554 L 87368,28973 L 89467,30233 L 91565,30652 L 92405,31072 L 93245,31492 L 93664,31912 L 95763,33590 L 97862,34430 L 98701,34430 L 100380,36109 L 101220,37788 L 102059,39467 L 102059,39467 L 102899,39887 L 103738,40306 L 106257,40306 L 110034,40306 L 111713,41566 L 112133,41985 L 116330,46183 L 118429,47862 L 119688,47862 L 120108,47862 L 121787,47022 L 122626,47022 L 123466,47022 L 125564,48281 L 125564,48281 L 125984,49541 L 126404,50800 L 126404,51220 L 126404,52899 L 126404,53738 L 126404,53738 L 126404,54997 L 126824,54997 L 127663,56676 L 128503,57935 L 129342,59614 L 129342,59614 L 130182,60454 L 132700,60874 L 133120,61293 L 133959,62133 L 135219,62553 L 135638,63392 L 135638,63812 L 135638,63812 L 135638,64651 L 136058,65071 L 136478,65910 L 138157,67170 L 138577,67170 L 141515,68009 L 141934,68009 L 143613,68429 L 143613,68849 L 143613,68849 L 143613,69268 L 143194,69268 L 143613,69688 L 144873,70108 L 146132,70947 L 146132,70947 L 146552,71367 L 147811,71367 L 148230,71787 L 149490,71787 L 149490,71787 L 149490,71787 L 150329,71367 L 151588,71367 L 152848,70108 L 153267,70108 L 154107,70528 L 154107,70528 L 154527,70528 L 154946,71367 L 155366,71787 L 157045,73046 L 157465,74305 L 158724,75564 L 158724,75984 L 159144,76824 L 159144,79762 L 159563,81861 L 159563,83959 L 159563,83959 L 159563,83959 L 160823,84799 L 161662,84379 L 163761,84379 L 163761,84379 L 163341,84379 L 162921,85219 L 164181,85219 L 165860,84379 L 165860,84379 L 166279,83959 L 167958,83120 L 168378,83120 L 170477,84379 L 170477,84379 L 171316,86478 L 172995,89836 L 173835,90675 L 173835,91095 L 173415,91934 L 173415,92774 L 172576,92354 L 170057,92774 L 165020,94033 L 158304,96971 L 154527,98231 L 151588,100749 L 149490,102008 L 145712,103687 L 138996,108304 L 135638,110823 L 135219,111242 L 128083,118798 L 125984,121736 L 123466,124674 L 120528,128872 L 120528,130131 L 118009,132649 L 111713,141884 L 109614,146081 L 110034,146501 L 105417,151538 L 100800,157414 L 98281,162031 L 95763,168747 L 95343,169167 L 94924,170426 L 94084,170426 L 93245,170426 L 92405,170426 L 91565,171265 L 91565,171265 L 91565,171265 L 89467,173364 L 88208,174623 L 85269,176302 L 84430,176722 L 84010,176722 L 81492,177142 L 80232,177142 L 79393,177981 L 79393,179240 L 76455,178821 L 76035,179240 L 75615,179240 L 75615,178821 L 75196,178401 L 74776,178401 L 74356,178821 L 74776,179240 L 73936,179240 L 73517,178401 L 73936,177981 L 73517,177561 L 73097,177561 L 71838,178401 L 71418,177981 L 70998,178401 L 70998,178401 L 69739,177561 L 69739,176722 L 69319,176722 L 68480,177142 L 68060,176722 L 67640,177561 L 67640,177981 L 66801,177981 L 67221,178821 L 66381,180080 L 66381,180500 L 65961,180919 L 65122,180080 L 64702,180500 L 63863,180080 L 64282,178821 L 63443,178401 L 63023,179240 L 62184,179240 L 61764,179660 L 61764,179240 L 61344,178401 L 59665,178401 L 58826,177142 L 57986,177561 L 57566,177142 L 56307,177142 L 55888,176722 L 55468,176722 L 54209,176302 L 53789,175463 L 54628,174623 L 54209,174204 L 53369,174204 L 52530,173784 L 52110,173364 L 51270,172525 L 50431,172525 L 50011,172105 L 50011,171265 L 50011,171265 L 50431,170846 L 50851,170846 L 51270,170846 L 51270,170426 L 51270,170006 L 49592,170006 L 49592,169586 L 48752,169586 L 49172,169167 L 50011,169167 L 49172,168747 L 48332,168747 L 47913,169586 L 47493,169586 L 47073,169586 L 47073,169167 L 46653,168747 L 46653,168747 L 46653,167488 L 46233,167488 L 45814,167068 L 44555,167068 L 44555,167488 L 44135,167907 L 44135,168327 L 43295,168747 L 43295,168327 L 42456,167488 L 42456,167068 L 42876,167068 L 42876,166648 L 42456,166228 L 42036,166228 L 42036,166648 L 41616,166648 L 41616,166228 L 41197,165809 L 40357,166228 L 40357,165389 L 41197,164969 L 41197,164550 L 41197,164550 L 40777,164550 L 40357,163710 L 39937,162451 L 39518,161611 L 39098,162031 L 38678,161611 L 38678,161192 L 39518,160772 L 38678,160352 L 38678,159932 L 39518,159932 L 39518,159513 L 38259,157834 L 38259,157414 L 39518,156155 L 39098,155735 L 39937,155735 L 39098,154895 L 39098,154895 L 39937,154056 L 39937,154056 L 39937,153636 L 39518,154056 L 39098,153217 L 39937,152797 L 39518,152377 L 39937,151957 L 40357,151538 L 40357,151538 L 40357,151118 L 40357,150698 L 40357,150278 L 40357,149859 L 40777,149439 L 40777,149439 L 40357,149019 L 39937,149439 L 39937,149439 L 39518,149439 L 39098,149019 L 38259,149439 L 36160,147760 L 35740,148180 L 34481,147760 L 33222,146920 L 33222,146501 L 32382,145661 L 32802,145241 L 32382,144822 L 32802,143982 L 32802,143143 L 32802,143143 L 31543,142723 L 30703,141464 L 30703,141464 L 30703,141044 L 31123,141044 L 31962,139365 L 31543,138106 L 31123,138106 L 31123,138106 L 30703,137686 L 30703,136847 L 30283,136847 L 29864,136427 L 29864,136007 L 29864,136007 L 29444,134748 L 29864,134328 L 29864,134328 L 29444,133908 L 28185,133489 L 27765,134328 L 27345,134328 L 26926,133908 L 26926,133908 L 26086,133069 L 23987,131810 L 23148,130131 L 22728,130131 L 23148,128452 L 23148,128452 L 23148,128032 L 21889,127612 L 21889,127612 L 21469,126773 L 21049,126773 L 20629,127193 L 20210,126773 L 19370,125933 L 18950,124254 L 18531,122995 L 18531,122575 L 18531,121316 L 18531,120477 L 18950,120057 L 18531,118378 L 18111,117958 L 18531,117119 L 18111,116279 L 18531,115440 z"
   class="fil3" />
   <path
   class = "maps"
   id="path23"
   d="M 18531,115440 L 19370,115440 L 20210,114181 L 20629,112502 L 20629,112082 L 20210,110403 L 20210,109564 L 20629,108304 L 21469,108304 L 23568,107885 L 23987,108724 L 25247,108724 L 25666,109144 L 26926,109144 L 28185,109144 L 28605,108304 L 29864,108724 L 30703,107885 L 31543,108304 L 31962,108724 L 33641,108304 L 34061,108724 L 34901,109144 L 34901,109564 L 36160,110823 L 36160,110823 L 36580,112921 L 38678,113341 L 40777,112502 L 43715,111242 L 54209,107045 L 52949,98231 L 53369,97811 L 52949,97391 L 52949,96971 L 52530,96971 L 52530,96132 L 52110,95712 L 52110,94873 L 52949,95292 L 52949,94873 L 52949,94453 L 53369,94033 L 53789,94033 L 53789,93613 L 54209,92354 L 54209,91515 L 54209,91095 L 53789,89416 L 50431,84799 L 50851,84799 L 51270,83959 L 50851,83120 L 52530,82700 L 52110,82280 L 52110,81441 L 52530,81441 L 52110,80601 L 52530,81021 L 52949,80601 L 53369,80601 L 53789,80182 L 54209,79762 L 54628,79762 L 56727,78503 L 56727,78083 L 58826,77663 L 60925,76824 L 60925,76824 L 60505,75984 L 60505,75564 L 58406,65491 L 57147,64651 L 56727,64232 L 57566,60874 L 57566,60454 L 57566,60454 L 55468,57935 L 53789,53738 L 53369,51639 L 53369,51639 L 53369,50380 L 53369,49960 L 52949,49121 L 49172,47022 L 48752,47442 L 46653,47022 L 45394,46602 L 45394,46602 L 44974,45763 L 44135,46183 L 43715,46183 L 42876,46602 L 42036,46183 L 41197,45763 L 39518,42405 L 38678,41985 L 38678,41146 L 39937,39467 L 39937,37788 L 40777,36529 L 40777,36109 L 40777,35689 L 40777,34430 L 41616,33590 L 41616,33590 L 40777,33171 L 40777,33171 L 38678,32331 L 37419,31072 L 36999,30233 L 36160,29813 L 35320,27714 L 35320,26455 L 34901,24776 L 34901,23517 L 35320,22677 L 35320,22677 L 36580,22257 L 36999,20998 L 38259,19739 L 39098,19319 L 39518,20159 L 39518,19319 L 39518,18900 L 37839,18480 L 37839,18060 L 37419,17640 L 36999,17221 L 35740,16381 L 35320,15542 L 35740,13863 L 35740,13443 L 35320,13023 L 35320,13023 L 36160,12603 L 36160,13023 L 36580,12603 L 36999,12184 L 36999,11344 L 36580,10924 L 36999,10085 L 37419,9665 L 37419,9246 L 38259,7986 L 38259,7986 L 39518,9246 L 42036,9665 L 45814,10924 L 47493,10085 L 47493,10085 L 48332,10924 L 52110,13443 L 52110,13863 L 52530,13863 L 52530,14702 L 53369,14282 L 53789,14702 L 55048,15961 L 55888,16801 L 56727,18480 L 57147,18480 L 59665,17640 L 60085,17221 L 63023,17640 L 65122,18900 L 65122,18900 L 66381,20159 L 66801,20579 L 67221,21838 L 67640,22257 L 73936,26455 L 74776,26875 L 76455,27294 L 83590,27714 L 86948,28554 L 87368,28973 L 89467,30233 L 91565,30652 L 92405,31072 L 93245,31492 L 93664,31912 L 95763,33590 L 97862,34430 L 98701,34430 L 100380,36109 L 101220,37788 L 102059,39467 L 102059,39467 L 102899,39887 L 103738,40306 L 106257,40306 L 110034,40306 L 111713,41566 L 112133,41985 L 116330,46183 L 118429,47862 L 119688,47862 L 120108,47862 L 121787,47022 L 122626,47022 L 123466,47022 L 125564,48281 L 125564,48281 L 125984,49541 L 126404,50800 L 126404,51220 L 126404,52899 L 126404,53738 L 126404,53738 L 126404,54997 L 126824,54997 L 127663,56676 L 128503,57935 L 129342,59614 L 129342,59614 L 130182,60454 L 132700,60874 L 133120,61293 L 133959,62133 L 135219,62553 L 135638,63392 L 135638,63812 L 135638,63812 L 135638,64651 L 136058,65071 L 136478,65910 L 138157,67170 L 138577,67170 L 141515,68009 L 141934,68009 L 143613,68429 L 143613,68849 L 143613,68849 L 143613,69268 L 143194,69268 L 143613,69688 L 144873,70108 L 146132,70947 L 146132,70947 L 146552,71367 L 147811,71367 L 148230,71787 L 149490,71787 L 149490,71787 L 149490,71787 L 150329,71367 L 151588,71367 L 152848,70108 L 153267,70108 L 154107,70528 L 154107,70528 L 154527,70528 L 154946,71367 L 155366,71787 L 157045,73046 L 157465,74305 L 158724,75564 L 158724,75984 L 159144,76824 L 159144,79762 L 159563,81861 L 159563,83959 L 159563,83959 L 159563,83959 L 160823,84799 L 161662,84379 L 163761,84379 L 163761,84379 L 163341,84379 L 162921,85219 L 164181,85219 L 165860,84379 L 165860,84379 L 166279,83959 L 167958,83120 L 168378,83120 L 170477,84379 L 170477,84379 L 171316,86478 L 172995,89836 L 173835,90675 L 173835,91095 L 173415,91934 L 173415,92774 L 172576,92354 L 170057,92774 L 165020,94033 L 158304,96971 L 154527,98231 L 151588,100749 L 149490,102008 L 145712,103687 L 138996,108304 L 135638,110823 L 135219,111242 L 128083,118798 L 125984,121736 L 123466,124674 L 120528,128872 L 120528,130131 L 118009,132649 L 111713,141884 L 109614,146081 L 110034,146501 L 105417,151538 L 100800,157414 L 98281,162031 L 95763,168747 L 95343,169167 L 94924,170426 L 94084,170426 L 93245,170426 L 92405,170426 L 91565,171265 L 91565,171265 L 91565,171265 L 89467,173364 L 88208,174623 L 85269,176302 L 84430,176722 L 84010,176722 L 81492,177142 L 80232,177142 L 79393,177981 L 79393,179240 L 76455,178821 L 76035,179240 L 75615,179240 L 75615,178821 L 75196,178401 L 74776,178401 L 74356,178821 L 74776,179240 L 73936,179240 L 73517,178401 L 73936,177981 L 73517,177561 L 73097,177561 L 71838,178401 L 71418,177981 L 70998,178401 L 70998,178401 L 69739,177561 L 69739,176722 L 69319,176722 L 68480,177142 L 68060,176722 L 67640,177561 L 67640,177981 L 66801,177981 L 67221,178821 L 66381,180080 L 66381,180500 L 65961,180919 L 65122,180080 L 64702,180500 L 63863,180080 L 64282,178821 L 63443,178401 L 63023,179240 L 62184,179240 L 61764,179660 L 61764,179240 L 61344,178401 L 59665,178401 L 58826,177142 L 57986,177561 L 57566,177142 L 56307,177142 L 55888,176722 L 55468,176722 L 54209,176302 L 53789,175463 L 54628,174623 L 54209,174204 L 53369,174204 L 52530,173784 L 52110,173364 L 51270,172525 L 50431,172525 L 50011,172105 L 50011,171265 L 50011,171265 L 50431,170846 L 50851,170846 L 51270,170846 L 51270,170426 L 51270,170006 L 49592,170006 L 49592,169586 L 48752,169586 L 49172,169167 L 50011,169167 L 49172,168747 L 48332,168747 L 47913,169586 L 47493,169586 L 47073,169586 L 47073,169167 L 46653,168747 L 46653,168747 L 46653,167488 L 46233,167488 L 45814,167068 L 44555,167068 L 44555,167488 L 44135,167907 L 44135,168327 L 43295,168747 L 43295,168327 L 42456,167488 L 42456,167068 L 42876,167068 L 42876,166648 L 42456,166228 L 42036,166228 L 42036,166648 L 41616,166648 L 41616,166228 L 41197,165809 L 40357,166228 L 40357,165389 L 41197,164969 L 41197,164550 L 41197,164550 L 40777,164550 L 40357,163710 L 39937,162451 L 39518,161611 L 39098,162031 L 38678,161611 L 38678,161192 L 39518,160772 L 38678,160352 L 38678,159932 L 39518,159932 L 39518,159513 L 38259,157834 L 38259,157414 L 39518,156155 L 39098,155735 L 39937,155735 L 39098,154895 L 39098,154895 L 39937,154056 L 39937,154056 L 39937,153636 L 39518,154056 L 39098,153217 L 39937,152797 L 39518,152377 L 39937,151957 L 40357,151538 L 40357,151538 L 40357,151118 L 40357,150698 L 40357,150278 L 40357,149859 L 40777,149439 L 40777,149439 L 40357,149019 L 39937,149439 L 39937,149439 L 39518,149439 L 39098,149019 L 38259,149439 L 36160,147760 L 35740,148180 L 34481,147760 L 33222,146920 L 33222,146501 L 32382,145661 L 32802,145241 L 32382,144822 L 32802,143982 L 32802,143143 L 32802,143143 L 31543,142723 L 30703,141464 L 30703,141464 L 30703,141044 L 31123,141044 L 31962,139365 L 31543,138106 L 31123,138106 L 31123,138106 L 30703,137686 L 30703,136847 L 30283,136847 L 29864,136427 L 29864,136007 L 29864,136007 L 29444,134748 L 29864,134328 L 29864,134328 L 29444,133908 L 28185,133489 L 27765,134328 L 27345,134328 L 26926,133908 L 26926,133908 L 26086,133069 L 23987,131810 L 23148,130131 L 22728,130131 L 23148,128452 L 23148,128452 L 23148,128032 L 21889,127612 L 21889,127612 L 21469,126773 L 21049,126773 L 20629,127193 L 20210,126773 L 19370,125933 L 18950,124254 L 18531,122995 L 18531,122575 L 18531,121316 L 18531,120477 L 18950,120057 L 18531,118378 L 18111,117958 L 18531,117119 L 18111,116279 L 18531,115440 z"
   class="fil1 str1" />
  </g>
 
 <g
   id="Destaque">
 </g>
 <g
   id="g104"
   style="stroke:#646464;stroke-opacity:1"
   transform="matrix(1.0154058,0,0,1.0147339,-1248.7565,-1436.8718)">
   <path
   class = "maps"
   id="path106"
   d="M 23148,128452 L 23987,128032 L 23987,126773 L 24827,126353 L 24827,125094 L 24827,124674 L 26506,124674 L 27345,123835 L 28185,121736 L 27765,120897 L 27765,120477 L 28605,119637 L 28605,119218 L 29024,119218 L 29864,118798 L 31962,117539 L 33222,117539 L 36999,117119 L 36999,117539 L 37839,117539 L 38678,117958 L 41197,118378 L 40777,122995 L 42456,127612 L 43295,128452 L 44135,130551 L 43715,131810 L 43295,131390 L 42876,131810 L 43295,132649 L 43715,133489 L 44555,133489 L 44555,133908 L 46653,135587 L 51690,142303 L 55888,144402 L 51690,146501 L 49172,148599 L 49172,149019 L 49592,149859 L 49592,150278 L 50011,150698 L 49592,151538 L 49592,151538 L 48752,151118 L 48332,150698 L 46653,151538 L 45394,153217 L 44974,154056 L 39937,162451 L 39518,161611 L 39098,162031 L 38678,161611 L 38678,161192 L 39518,160772 L 38678,160352 L 38678,159932 L 39518,159932 L 39518,159513 L 38259,157834 L 38259,157414 L 39518,156155 L 39098,155735 L 39937,155735 L 39098,154895 L 39937,154056 L 39937,153636 L 39518,154056 L 39098,153217 L 39937,152797 L 39518,152377 L 39937,151957 L 40357,151538 L 40357,151118 L 40357,150698 L 40357,150278 L 40357,149859 L 40777,149439 L 40357,149019 L 39518,149439 L 39098,149019 L 38259,149439 L 36160,147760 L 35740,148180 L 34481,147760 L 33222,146920 L 33222,146501 L 32382,145661 L 32802,145241 L 32382,144822 L 32802,143982 L 32802,143143 L 32802,143143 L 31543,142723 L 30703,141464 L 30703,141044 L 31123,141044 L 31962,139365 L 31543,138106 L 31123,138106 L 31123,138106 L 30703,137686 L 30703,136847 L 30283,136847 L 29864,136427 L 29864,136007 L 29444,134748 L 29864,134328 L 29444,133908 L 28185,133489 L 27765,134328 L 26926,133908 L 26086,133069 L 23987,131810 L 23148,130131 L 22728,130131 L 23148,128452 z"
    />
  </g><g
   id="g108"
   style="stroke:#646464;stroke-opacity:1"
   transform="matrix(1.0154058,0,0,1.0147339,-1248.7565,-1436.8718)">
   <path
   class = "maps"
   id="path110"
   d="M 18531,115440 L 19370,115440 L 20210,114181 L 20629,112502 L 20629,112082 L 20210,109564 L 20629,108304 L 21469,108304 L 23568,107885 L 23987,108724 L 25247,108724 L 25666,109144 L 26926,109144 L 28185,109144 L 28605,108304 L 29864,108724 L 30703,107885 L 31543,108304 L 31962,108724 L 33641,108304 L 34061,108724 L 34901,109144 L 36160,110823 L 36580,112921 L 38678,113341 L 40777,112502 L 41197,118378 L 38678,117958 L 37839,117539 L 36999,117539 L 36999,117119 L 33222,117539 L 31962,117539 L 29864,118798 L 29024,119218 L 28605,119218 L 28605,119637 L 27765,120477 L 27765,120897 L 28185,121736 L 27345,123835 L 26506,124674 L 24827,124674 L 24827,125094 L 24827,126353 L 23987,126773 L 23987,128032 L 23148,128452 L 23148,128032 L 21889,127612 L 21469,126773 L 21049,126773 L 20629,127193 L 20210,126773 L 19370,125933 L 18950,124254 L 18531,122575 L 18531,121316 L 18531,120477 L 18950,120057 L 18531,118378 L 18111,117958 L 18531,117119 L 18111,116279 L 18531,115440 z"
    />
  </g><g
   id="g112"
   style="stroke:#646464;stroke-opacity:1"
   transform="matrix(1.0154058,0,0,1.0147339,-1248.7565,-1436.8718)">
   <path
   class = "maps"
   id="path114"
   d="M 66381,153217 L 67221,151538 L 68060,151538 L 68899,151118 L 69319,151538 L 70998,151118 L 71838,151118 L 72677,151118 L 72677,150278 L 76875,146920 L 76455,147340 L 76035,148180 L 76035,148599 L 76455,148599 L 76875,148180 L 76875,149019 L 77714,149019 L 78134,149439 L 77714,151538 L 78134,151957 L 78553,151957 L 78553,152377 L 78134,152797 L 78134,153217 L 78553,153217 L 78553,154476 L 79393,155315 L 79393,155735 L 80232,156155 L 79393,156994 L 79393,157414 L 78553,157834 L 78553,158253 L 78134,158673 L 76455,158673 L 74776,160352 L 73936,160352 L 73097,160352 L 72257,161611 L 72257,162031 L 66801,157414 L 66801,154476 L 66801,153636 L 66381,153636 L 66381,153217 z"
    />
  </g><g
   id="g116"
   style="stroke:#646464;stroke-opacity:1"
   transform="matrix(1.0154058,0,0,1.0147339,-1248.7565,-1436.8718)">
   <path
   class = "maps"
   id="path118"
   d="M 51270,170846 L 55048,167488 L 60085,167488 L 60925,167488 L 61344,166648 L 61764,166648 L 62184,167068 L 63443,167907 L 63863,168327 L 64282,168747 L 64702,169586 L 65122,169586 L 65542,170426 L 65961,170426 L 66381,171265 L 65961,172944 L 67221,173784 L 67640,173364 L 68060,173364 L 68480,173784 L 68480,175043 L 68060,175043 L 68480,175463 L 69319,175043 L 69319,175883 L 69739,176722 L 69319,176722 L 68480,177142 L 68060,176722 L 67640,177561 L 67640,177981 L 66801,177981 L 67221,178821 L 66381,180080 L 66381,180500 L 65961,180919 L 65122,180080 L 64702,180500 L 63863,180080 L 64282,178821 L 63443,178401 L 63023,179240 L 62184,179240 L 61764,179660 L 61344,178401 L 59665,178401 L 58826,177142 L 57986,177561 L 57566,177142 L 56307,177142 L 55888,176722 L 55468,176722 L 54209,176302 L 53789,175463 L 54628,174623 L 54209,174204 L 53369,174204 L 52530,173784 L 52110,173364 L 51270,172525 L 50431,172525 L 50011,172105 L 50011,171265 L 50851,170846 L 51270,170846 z"
    />
  </g><g
   id="g120"
   style="stroke:#646464;stroke-opacity:1"
   transform="matrix(1.0154058,0,0,1.0147339,-1248.7565,-1436.8718)">
   <path
   class = "maps"
   id="path122"
   d="M 76875,146920 L 84010,145241 L 86109,143563 L 86109,143143 L 86529,141884 L 85689,141044 L 86109,140205 L 89886,137266 L 90306,137686 L 90726,138945 L 91565,138945 L 92825,140624 L 94504,142303 L 94084,143982 L 94924,144402 L 94924,145241 L 94084,145661 L 94504,146920 L 94084,147760 L 93664,147760 L 93245,149439 L 94084,150278 L 94924,151118 L 94924,151538 L 95343,151538 L 94924,152377 L 94924,152797 L 100800,157414 L 98281,162031 L 95763,168747 L 95343,169167 L 94924,170426 L 94084,170426 L 93245,170426 L 92405,170426 L 91565,171265 L 89047,169586 L 88208,168747 L 88208,167488 L 88627,166228 L 89886,164130 L 89886,162871 L 91146,161192 L 90306,159932 L 89047,159513 L 88627,158253 L 87368,158253 L 86948,158673 L 85269,157834 L 84010,159093 L 81912,158673 L 81072,158673 L 78553,158253 L 78553,157834 L 79393,157414 L 79393,156994 L 80232,156155 L 79393,155735 L 79393,155315 L 78553,154476 L 78553,153217 L 78134,153217 L 78134,152797 L 78553,152377 L 78553,151957 L 78134,151957 L 77714,151538 L 78134,149439 L 77714,149019 L 76875,149019 L 76875,148180 L 76455,148599 L 76035,148599 L 76035,148180 L 76455,147340 L 76875,146920 z"
    />
  </g><g
   id="g124"
   style="stroke:#646464;stroke-opacity:1"
   transform="matrix(1.0154058,0,0,1.0147339,-1248.7565,-1436.8718)">
   <path
   class = "maps"
   id="path126"
   d="M 68060,173364 L 72257,165809 L 75615,167907 L 77714,167907 L 78553,168747 L 80232,167907 L 80232,169167 L 81072,170426 L 81912,170426 L 82331,170846 L 83171,170846 L 83171,170426 L 83171,170426 L 83590,170846 L 84010,170426 L 85269,170006 L 85689,168747 L 86529,168747 L 87368,169167 L 88208,168747 L 89047,169586 L 91565,171265 L 89467,173364 L 88208,174623 L 85269,176302 L 84010,176722 L 80232,177142 L 79393,177981 L 79393,179240 L 76455,178821 L 76035,179240 L 75615,178821 L 74776,178401 L 74356,178821 L 74776,179240 L 73936,179240 L 73517,178401 L 73936,177981 L 73097,177561 L 71838,178401 L 71418,177981 L 70998,178401 L 69739,177561 L 69739,176722 L 69319,175883 L 69319,175043 L 68480,175463 L 68060,175043 L 68480,175043 L 68480,173784 L 68060,173364 z"
    />
  </g><g
   id="g128"
   style="stroke:#646464;stroke-opacity:1"
   transform="matrix(1.0154058,0,0,1.0147339,-1248.7565,-1436.8718)">
   <path
   class = "maps"
   id="path130"
   d="M 44974,154056 L 45394,153217 L 46653,151538 L 48332,150698 L 48752,151118 L 49592,151538 L 49592,151538 L 50011,150698 L 49592,150278 L 49592,149859 L 49172,149019 L 49172,148599 L 51690,146501 L 55888,144402 L 57147,143982 L 60085,146081 L 60505,145661 L 61344,146920 L 62184,146501 L 63443,147760 L 63863,148599 L 63443,149019 L 64282,149859 L 64282,150278 L 64702,150278 L 65961,152797 L 66381,153217 L 66381,153636 L 66801,153636 L 66801,154476 L 66801,157414 L 64702,159093 L 64702,163710 L 61344,166648 L 60925,167488 L 60085,167488 L 59665,166648 L 59665,167068 L 58826,167068 L 58406,167068 L 58826,166228 L 57986,165809 L 57986,164550 L 57147,164969 L 56727,164550 L 56727,163290 L 56307,163290 L 56307,162451 L 54209,160772 L 54209,160352 L 53369,159932 L 52949,159932 L 50851,157834 L 50851,158253 L 50011,158253 L 49592,156994 L 49172,156994 L 48752,157414 L 48332,156994 L 48332,156574 L 47073,156155 L 46653,155315 L 45394,155315 L 44974,154056 z"
    />
  </g><g
   id="g132"
   style="stroke:#646464;stroke-opacity:1"
   transform="matrix(1.0154058,0,0,1.0147339,-1248.7565,-1436.8718)">
   <path
   class = "maps"
   id="path134"
   d="M 63863,148599 L 64702,147340 L 65122,148180 L 65542,149019 L 66381,148599 L 68899,149859 L 71418,149859 L 71838,149859 L 72677,150278 L 72677,151118 L 71838,151118 L 70998,151118 L 69319,151538 L 68899,151118 L 68060,151538 L 67221,151538 L 66381,153217 L 65961,152797 L 64702,150278 L 64282,150278 L 64282,149859 L 63443,149019 L 63863,148599 z"
    />
  </g><g
   id="g136"
   style="stroke:#646464;stroke-opacity:1"
   transform="matrix(1.0154058,0,0,1.0147339,-1248.7565,-1436.8718)">
   <path
   class = "maps"
   id="path138"
   d="M 64702,159093 L 66801,157414 L 72257,162031 L 72257,161611 L 73097,160352 L 73936,160352 L 74776,160352 L 76455,158673 L 78134,158673 L 78553,158253 L 81072,158673 L 81912,158673 L 84010,159093 L 85269,157834 L 86948,158673 L 87368,158253 L 88627,158253 L 89047,159513 L 90306,159932 L 91146,161192 L 89886,162871 L 89886,164130 L 88627,166228 L 88208,167488 L 88208,168747 L 87368,169167 L 86529,168747 L 85689,168747 L 85269,170006 L 84010,170426 L 83590,170846 L 83171,170426 L 83171,170426 L 83171,170846 L 82331,170846 L 81912,170426 L 81072,170426 L 80232,169167 L 80232,167907 L 78553,168747 L 77714,167907 L 75615,167907 L 72257,165809 L 64702,159093 z"
    />
  </g><g
   id="g140"
   style="stroke:#646464;stroke-opacity:1"
   transform="matrix(1.0154058,0,0,1.0147339,-1248.7565,-1436.8718)">
   <path
   class = "maps"
   id="path142"
   d="M 39937,162451 L 44974,154056 L 45394,155315 L 46653,155315 L 47073,156155 L 48332,156574 L 48332,156994 L 48752,157414 L 49172,156994 L 49592,156994 L 50011,158253 L 50851,158253 L 50851,157834 L 52949,159932 L 53369,159932 L 54209,160352 L 54209,160772 L 56307,162451 L 56307,163290 L 56727,163290 L 56727,164550 L 57147,164969 L 57986,164550 L 57986,165809 L 58826,166228 L 58406,167068 L 58826,167068 L 59665,167068 L 59665,166648 L 60085,167488 L 55048,167488 L 51270,170846 L 51270,170426 L 51270,170006 L 49592,170006 L 49592,169586 L 48752,169586 L 49172,169167 L 50011,169167 L 49172,168747 L 48332,168747 L 47913,169586 L 47493,169586 L 47073,169586 L 47073,169167 L 46653,168747 L 46653,168747 L 46653,167488 L 46233,167488 L 45814,167068 L 44555,167068 L 44555,167488 L 44135,167907 L 44135,168327 L 43295,168747 L 43295,168327 L 42456,167488 L 42456,167068 L 42876,167068 L 42456,166228 L 42036,166228 L 42036,166648 L 41616,166648 L 41616,166228 L 41197,165809 L 40357,166228 L 40357,165389 L 41197,164969 L 41197,164550 L 41197,164550 L 40777,164550 L 40357,163710 L 39937,162451 z"
    />
  </g><g
   id="g144"
   style="stroke:#646464;stroke-opacity:1"
   transform="matrix(1.0154058,0,0,1.0147339,-1248.7565,-1436.8718)">
   <path
   class = "maps"
   id="path146"
   d="M 61344,166648 L 64702,163710 L 64702,159093 L 72257,165809 L 68060,173364 L 67640,173364 L 67221,173784 L 65961,172944 L 66381,171265 L 65961,170426 L 65542,170426 L 65122,169586 L 64702,169586 L 64282,168747 L 63863,168327 L 63443,167907 L 62184,167068 L 61764,166648 L 61344,166648 z"
    />
  </g><g
   id="g148"
   style="stroke:#646464;stroke-opacity:1"
   transform="matrix(1.0154058,0,0,1.0147339,-1248.7565,-1436.8718)">
   <path
   class = "maps"
   id="path150"
   d="M 89047,118378 L 92405,111242 L 94504,109564 L 94924,109983 L 96603,110403 L 96183,110823 L 96183,111242 L 97442,110403 L 98281,109564 L 99121,109564 L 99121,109983 L 99121,110403 L 99121,110823 L 99960,111662 L 99960,112082 L 102059,114181 L 96183,118798 L 89047,118378 z"
    />
  </g><g
   id="g152"
   style="stroke:#646464;stroke-opacity:1"
   transform="matrix(1.0154058,0,0,1.0147339,-1248.7565,-1436.8718)">
   <path
   class = "maps"
   id="path154"
   d="M 63443,147760 L 65961,145661 L 69319,139785 L 70159,140624 L 70579,139785 L 70998,140205 L 71418,139365 L 70998,138945 L 70998,138945 L 70579,138526 L 78134,132649 L 78134,137686 L 77294,141044 L 76035,144822 L 77294,144822 L 76875,145241 L 76875,146081 L 76035,146081 L 76875,146920 L 72677,150278 L 71838,149859 L 71418,149859 L 68899,149859 L 66381,148599 L 65542,149019 L 65122,148180 L 64702,147340 L 63863,148599 L 63443,147760 z"
    />
  </g><g
   id="g156"
   style="stroke:#646464;stroke-opacity:1"
   transform="matrix(1.0154058,0,0,1.0147339,-1248.7565,-1436.8718)">
   <path
   class = "maps"
   id="path158"
   d="M 84430,130970 L 80232,124674 L 81072,125094 L 82331,124254 L 83590,123835 L 84430,122995 L 89047,118378 L 96183,118798 L 94924,128032 L 94084,128452 L 94924,130131 L 95343,130551 L 94924,130970 L 97022,131810 L 97442,132649 L 97862,134328 L 98701,134748 L 98701,135168 L 103738,136427 L 103738,138526 L 104158,138945 L 105837,140205 L 107516,141044 L 108775,141884 L 109195,142723 L 109195,143982 L 108775,145241 L 109614,146081 L 110034,146501 L 105417,151538 L 100800,157414 L 94924,152797 L 94924,152377 L 95343,151538 L 94924,151538 L 94924,151118 L 94084,150278 L 93245,149439 L 93664,147760 L 94084,147760 L 94504,146920 L 94084,145661 L 94924,145241 L 94924,144402 L 94084,143982 L 94504,142303 L 92825,140624 L 91565,138945 L 90726,138945 L 90306,137686 L 89886,137266 L 88627,136007 L 88208,133908 L 86948,133069 L 86948,132230 L 86109,131810 L 85689,131390 L 84430,130970 z"
    />
  </g><g
   id="g160"
   style="stroke:#646464;stroke-opacity:1"
   transform="matrix(1.0154058,0,0,1.0147339,-1248.7565,-1436.8718)">
   <path
   class = "maps"
   id="path162"
   d="M 49172,121736 L 50431,122156 L 52949,121316 L 54209,122156 L 55048,120057 L 55468,119218 L 58406,117958 L 63023,112502 L 63023,112082 L 63443,110823 L 63863,110823 L 65542,109983 L 65542,109144 L 66381,108304 L 66801,109144 L 67640,108724 L 68480,107465 L 68899,107885 L 68480,108724 L 69319,108724 L 70579,108304 L 70579,108724 L 70998,109144 L 69739,109983 L 69739,110403 L 69739,111242 L 69319,111662 L 69739,112082 L 70579,111662 L 72257,114600 L 70998,115860 L 70998,116279 L 71418,117119 L 72257,117539 L 72677,117958 L 73936,119218 L 74776,119637 L 75196,119218 L 76455,119637 L 76875,119218 L 77714,119637 L 78134,119637 L 79393,120057 L 79813,119637 L 79813,119218 L 81072,118798 L 81072,118798 L 81492,118798 L 81492,119218 L 82331,119637 L 81912,120897 L 82751,121316 L 83171,120477 L 83590,121316 L 84010,122156 L 84430,122156 L 84010,122995 L 84430,122995 L 83590,123835 L 82331,124254 L 81072,125094 L 80232,124674 L 84430,130970 L 78973,129711 L 78134,132649 L 70579,138526 L 69319,138526 L 68480,136847 L 68060,136847 L 67640,136427 L 66381,135587 L 65961,134748 L 65122,135168 L 64702,135168 L 63023,133069 L 61764,132230 L 60085,132230 L 60085,132649 L 60505,133069 L 60505,133908 L 59665,133908 L 59246,133489 L 58826,133908 L 58406,133908 L 57986,134328 L 57566,134328 L 57566,133489 L 57147,133908 L 56727,133489 L 55888,134748 L 55468,133908 L 54628,133908 L 54628,133069 L 54209,133489 L 53789,133489 L 53789,132649 L 53369,132230 L 52530,131810 L 52949,131390 L 52110,130551 L 52110,129291 L 52530,128872 L 52110,128452 L 51690,127612 L 51270,127612 L 49172,126353 L 50011,124254 L 49172,121736 z"
    />
  </g><g
   id="g164"
   style="stroke:#646464;stroke-opacity:1"
   transform="matrix(1.0154058,0,0,1.0147339,-1248.7565,-1436.8718)">
   <path
   class = "maps"
   id="path166"
   d="M 40777,122995 L 43715,123415 L 43715,122995 L 47913,122156 L 49172,121736 L 50011,124254 L 49172,126353 L 51270,127612 L 51690,127612 L 52110,128452 L 52530,128872 L 52110,129291 L 52110,130551 L 52949,131390 L 52530,131810 L 53369,132230 L 53789,132649 L 53789,133489 L 54209,133489 L 54628,133069 L 54628,133908 L 55468,133908 L 55888,134748 L 56727,133489 L 57147,133908 L 57566,133489 L 57566,134328 L 57986,134328 L 58406,133908 L 58826,133908 L 59246,133489 L 59665,133908 L 60505,133908 L 60505,133069 L 60085,132649 L 60085,132230 L 61764,132230 L 63023,133069 L 64702,135168 L 65122,135168 L 65961,134748 L 66381,135587 L 67640,136427 L 68060,136847 L 68480,136847 L 69319,138526 L 70579,138526 L 70998,138945 L 70998,138945 L 71418,139365 L 70998,140205 L 70579,139785 L 70159,140624 L 69319,139785 L 65961,145661 L 63443,147760 L 62184,146501 L 61344,146920 L 60505,145661 L 60085,146081 L 57147,143982 L 55888,144402 L 51690,142303 L 46653,135587 L 44555,133908 L 44555,133489 L 43715,133489 L 43295,132649 L 42876,131810 L 43295,131390 L 43715,131810 L 44135,130551 L 43295,128452 L 42456,127612 L 40777,122995 z"
    />
  </g><g
   id="g168"
   style="stroke:#646464;stroke-opacity:1"
   transform="matrix(1.0154058,0,0,1.0147339,-1248.7565,-1436.8718)">
   <path
   class = "maps"
   id="path170"
   d="M 76875,146920 L 76035,146081 L 76875,146081 L 76875,145241 L 77294,144822 L 76035,144822 L 77294,141044 L 78134,137686 L 78134,132649 L 78973,129711 L 84430,130970 L 85689,131390 L 86109,131810 L 86948,132230 L 86948,133069 L 88208,133908 L 88627,136007 L 89886,137266 L 86109,140205 L 85689,141044 L 86529,141884 L 86109,143143 L 86109,143563 L 84010,145241 L 76875,146920 z"
    />
  </g><g
   id="g172"
   style="stroke:#646464;stroke-opacity:1"
   transform="matrix(1.0154058,0,0,1.0147339,-1248.7565,-1436.8718)">
   <path
   class = "maps"
   id="path174"
   d="M 70579,108724 L 71418,108724 L 71418,108304 L 71838,108304 L 71838,107885 L 71838,107045 L 72677,107465 L 73097,107885 L 73517,108724 L 73517,109564 L 75615,112502 L 75196,113341 L 75615,114181 L 76455,114600 L 76875,114600 L 77714,115020 L 77714,114600 L 78553,115020 L 78134,115440 L 78973,115860 L 78973,115440 L 78973,116279 L 79393,115860 L 79393,116699 L 78553,117119 L 78973,117119 L 78553,117958 L 79813,118378 L 80232,118378 L 81072,118798 L 79813,119218 L 79813,119637 L 79393,120057 L 78134,119637 L 77714,119637 L 76875,119218 L 76455,119637 L 75196,119218 L 74776,119637 L 73936,119218 L 72677,117958 L 72257,117539 L 71418,117119 L 70998,116279 L 70998,115860 L 72257,114600 L 70579,111662 L 69739,112082 L 69319,111662 L 69739,111242 L 69739,110403 L 69739,109983 L 70998,109144 L 70579,108724 z"
    />
  </g><g
   id="g176"
   style="stroke:#646464;stroke-opacity:1"
   transform="matrix(1.0154058,0,0,1.0147339,-1248.7565,-1436.8718)">
   <path
   class = "maps"
   id="path178"
   d="M 72677,107465 L 73517,106206 L 74356,106625 L 74356,107045 L 75615,107045 L 76455,107465 L 77714,107465 L 78134,106625 L 80652,106625 L 80652,107045 L 82331,107885 L 82751,108724 L 83590,108724 L 84430,109564 L 84850,110823 L 84850,112082 L 84850,113341 L 84850,113761 L 85269,114181 L 85689,114181 L 85689,114600 L 85689,115020 L 85269,114600 L 84850,115020 L 86529,118798 L 89047,118378 L 84430,122995 L 84010,122995 L 84430,122156 L 84010,122156 L 83590,121316 L 83171,120477 L 82751,121316 L 81912,120897 L 82331,119637 L 81492,119218 L 81492,118798 L 81072,118798 L 81072,118798 L 80232,118378 L 79813,118378 L 78553,117958 L 78973,117119 L 78553,117119 L 79393,116699 L 79393,115860 L 78973,116279 L 78973,115440 L 78973,115860 L 78134,115440 L 78553,115020 L 77714,114600 L 77714,115020 L 76875,114600 L 76455,114600 L 75615,114181 L 75196,113341 L 75615,112502 L 73517,109564 L 73517,108724 L 73097,107885 L 72677,107465 z"
    />
  </g><g
   id="g180"
   style="stroke:#646464;stroke-opacity:1"
   transform="matrix(1.0154058,0,0,1.0147339,-1248.7565,-1436.8718)">
   <path
   class = "maps"
   id="path182"
   d="M 54209,92354 L 54209,91515 L 54209,91095 L 53789,89416 L 50431,84799 L 50851,84799 L 51270,83959 L 50851,83120 L 52530,82700 L 52110,82280 L 52110,81441 L 52530,81441 L 52110,80601 L 52530,81021 L 52949,80601 L 53369,80601 L 53789,80182 L 54209,79762 L 55048,79762 L 56727,78503 L 56727,78083 L 58826,77663 L 60925,76824 L 60925,76824 L 60505,75564 L 58406,65491 L 59246,65910 L 62603,64651 L 63863,65071 L 63863,65910 L 64282,66330 L 64702,65910 L 65542,66330 L 65961,66330 L 67640,67170 L 68060,68009 L 70159,69268 L 70998,69268 L 70998,69688 L 71838,68849 L 72257,69268 L 72257,69688 L 72677,70108 L 71418,72207 L 74356,76824 L 74356,80182 L 70579,83540 L 65542,89416 L 61764,91515 L 61344,92354 L 57566,91515 L 57147,91934 L 55888,91515 L 54628,91934 L 54209,92354 z"
    />
  </g><g
   id="g184"
   style="stroke:#646464;stroke-opacity:1"
   transform="matrix(1.0154058,0,0,1.0147339,-1248.7565,-1436.8718)">
   <path
   class = "maps"
   id="path186"
   d="M 61764,91515 L 65542,89416 L 70579,83540 L 74356,80182 L 75615,86058 L 76875,87737 L 79813,91515 L 80652,93194 L 82751,96552 L 80232,101169 L 78134,103267 L 75615,100749 L 68899,99910 L 64702,93613 L 61764,91515 z"
    />
  </g><g
   id="g188"
   style="stroke:#646464;stroke-opacity:1"
   transform="matrix(1.0154058,0,0,1.0147339,-1248.7565,-1436.8718)">
   <path
   class = "maps"
   id="path190"
   d="M 78134,103267 L 80232,101169 L 82751,96552 L 84010,99070 L 87368,97391 L 89467,97811 L 90306,99070 L 89886,99490 L 90306,101588 L 90726,102008 L 90726,101169 L 91146,102008 L 91565,102008 L 91985,103267 L 92405,103267 L 92405,103687 L 92825,104107 L 94924,103687 L 95763,107045 L 94924,109144 L 94504,109564 L 92405,111242 L 89047,118378 L 86529,118798 L 84850,115020 L 85269,114600 L 85689,115020 L 85689,114600 L 85689,114181 L 85269,114181 L 84850,113761 L 84850,113341 L 84850,112082 L 84850,110823 L 84430,109564 L 83590,108724 L 82751,108724 L 82331,107885 L 80652,107045 L 80652,106625 L 80232,105366 L 78973,104946 L 78973,104527 L 79393,104107 L 78134,103267 z"
    />
  </g><g
   id="g192"
   style="stroke:#646464;stroke-opacity:1"
   transform="matrix(1.0154058,0,0,1.0147339,-1248.7565,-1436.8718)">
   <path
   class = "maps"
   id="path194"
   d="M 66801,109144 L 67221,108724 L 66801,108304 L 67221,107885 L 66801,106206 L 66381,105786 L 67221,104107 L 67640,103267 L 68060,100749 L 68899,99910 L 75615,100749 L 78134,103267 L 79393,104107 L 78973,104527 L 78973,104946 L 80232,105366 L 80652,106625 L 78134,106625 L 77714,107465 L 76455,107465 L 75615,107045 L 74356,107045 L 74356,106625 L 73517,106206 L 72677,107465 L 71838,107045 L 71838,107885 L 71838,108304 L 71418,108304 L 71418,108724 L 70579,108724 L 70579,108304 L 69319,108724 L 68480,108724 L 68899,107885 L 68480,107465 L 67640,108724 L 66801,109144 z"
    />
  </g><g
   id="g196"
   style="stroke:#646464;stroke-opacity:1"
   transform="matrix(1.0154058,0,0,1.0147339,-1248.7565,-1436.8718)">
   <path
   class = "maps"
   id="path198"
   d="M 94504,109564 L 94924,109144 L 95763,107045 L 94924,103687 L 94924,102848 L 95343,101169 L 97862,99490 L 97862,100329 L 98281,100329 L 99121,101169 L 99121,102008 L 99960,102428 L 100800,103687 L 102059,103687 L 102059,104527 L 102899,104946 L 103318,105786 L 103738,106625 L 103318,107465 L 103738,108304 L 103738,108304 L 103318,107885 L 102899,108304 L 102479,108304 L 102059,108304 L 101639,108304 L 101639,108304 L 100800,107885 L 100380,108304 L 100380,108724 L 99960,109144 L 99541,108724 L 99121,109564 L 98281,109564 L 97442,110403 L 96183,111242 L 96183,110823 L 96603,110403 L 94924,109983 L 94504,109564 z"
    />
  </g><g
   id="g200"
   style="stroke:#646464;stroke-opacity:1"
   transform="matrix(1.0154058,0,0,1.0147339,-1248.7565,-1436.8718)">
   <path
   class = "maps"
   id="path202"
   d="M 89467,97811 L 91146,96132 L 91985,95712 L 92405,94873 L 93664,94033 L 94504,94453 L 94504,94453 L 95763,94453 L 96183,94873 L 96603,94873 L 96183,95712 L 96603,96552 L 97022,97391 L 97862,97391 L 98701,96971 L 99960,97391 L 100800,97391 L 101639,99070 L 101639,99070 L 100380,98231 L 99121,98231 L 98701,98650 L 98281,99070 L 97862,99490 L 95343,101169 L 94924,102848 L 94924,103687 L 92825,104107 L 92405,103687 L 92405,103267 L 91985,103267 L 91565,102008 L 91146,102008 L 90726,101169 L 90726,102008 L 90306,101588 L 89886,99490 L 90306,99070 L 89467,97811 z"
    />
  </g><g
   id="g204"
   style="stroke:#646464;stroke-opacity:1"
   transform="matrix(1.0154058,0,0,1.0147339,-1248.7565,-1436.8718)">
   <path
   class = "maps"
   id="path206"
   d="M 72677,70108 L 72677,70108 L 73097,69268 L 73936,69268 L 73936,69688 L 74356,69688 L 74776,69688 L 74776,70528 L 75615,70947 L 76035,70528 L 76035,71367 L 76455,70947 L 76035,70528 L 77294,70528 L 77294,70947 L 77294,70947 L 77294,71367 L 76875,71367 L 77294,71787 L 78134,72626 L 78553,72626 L 78973,73046 L 79393,73046 L 79813,73886 L 80232,73466 L 80232,73466 L 80652,73466 L 81072,73886 L 81912,72626 L 81912,73046 L 82331,72626 L 82331,73886 L 83171,73046 L 83171,73466 L 83171,72626 L 83590,72626 L 84010,72207 L 84010,72207 L 84010,72626 L 84010,73046 L 84010,73046 L 84850,73466 L 85269,73046 L 85269,73466 L 85689,73886 L 85689,73886 L 86109,73886 L 86109,74305 L 86948,74725 L 86948,74305 L 87368,74305 L 87368,74725 L 87788,74725 L 87788,74305 L 88208,74725 L 88627,73466 L 89047,73466 L 88627,75145 L 88208,78083 L 88208,79762 L 88208,83959 L 87368,82700 L 82751,87737 L 76875,87737 L 75615,86058 L 74356,80182 L 74356,76824 L 71418,72207 L 72677,70108 z"
    />
  </g><g
   id="g208"
   style="stroke:#646464;stroke-opacity:1"
   transform="matrix(1.0154058,0,0,1.0147339,-1248.7565,-1436.8718)">
   <path
   class = "maps"
   id="path210"
   d="M 63443,102008 L 62603,102008 L 62184,101169 L 63023,99910 L 63443,99910 L 63443,98650 L 64282,97811 L 64702,93613 L 68899,99910 L 68060,100749 L 67640,103267 L 67221,104107 L 66381,105786 L 66801,106206 L 67221,107885 L 66801,108304 L 67221,108724 L 66801,109144 L 66381,108304 L 65542,109144 L 65122,108304 L 65961,107885 L 65961,107465 L 65122,107045 L 65122,106625 L 65122,106206 L 64282,106206 L 63863,105786 L 63443,105366 L 63023,105366 L 62603,104946 L 64282,103267 L 64282,102848 L 63863,102848 L 63443,102008 z"
    />
  </g><g
   id="g212"
   style="stroke:#646464;stroke-opacity:1"
   transform="matrix(1.0154058,0,0,1.0147339,-1248.7565,-1436.8718)">
   <path
   class = "maps"
   id="path214"
   d="M 52949,98231 L 53369,97811 L 52949,97391 L 52949,96971 L 52530,96971 L 52530,96132 L 52110,95712 L 52110,94873 L 52949,95292 L 52949,94873 L 52949,94453 L 53369,94033 L 53789,94033 L 53789,93613 L 54209,92354 L 54628,91934 L 55888,91515 L 57147,91934 L 57566,91515 L 61344,92354 L 61764,91515 L 64702,93613 L 64282,97811 L 63443,98650 L 63443,99910 L 63023,99910 L 62184,101169 L 62603,102008 L 63443,102008 L 62603,103267 L 61764,102848 L 62184,102008 L 61344,102008 L 60505,102008 L 59665,101169 L 59246,101169 L 58406,100749 L 58406,99910 L 57986,99490 L 56727,99490 L 55468,98650 L 54628,99490 L 54209,99070 L 53789,98231 L 53369,98231 L 52949,98231 z"
    />
  </g><g
   id="g216"
   style="stroke:#646464;stroke-opacity:1"
   transform="matrix(1.0154058,0,0,1.0147339,-1248.7565,-1436.8718)">
   <path
   class = "maps"
   id="path218"
   d="M 76875,87737 L 82751,87737 L 87368,82700 L 88208,83959 L 91565,86478 L 91565,86897 L 91985,87737 L 92405,89416 L 93245,90255 L 95763,94453 L 94504,94453 L 94504,94453 L 93664,94033 L 92405,94873 L 91985,95712 L 91146,96132 L 89467,97811 L 87368,97391 L 84010,99070 L 82751,96552 L 80652,93194 L 79813,91515 L 76875,87737 z"
    />
  </g><g
   id="g220"
   style="stroke:#646464;stroke-opacity:1"
   transform="matrix(1.0154058,0,0,1.0147339,-1248.7565,-1436.8718)">
   <path
   class = "maps"
   id="path222"
   d="M 88208,83959 L 88208,79762 L 88208,78083 L 88627,75145 L 89047,73466 L 88627,69688 L 89047,70528 L 89467,70528 L 89886,71787 L 89467,73046 L 89886,73466 L 90306,73466 L 90306,74725 L 90306,74725 L 89886,75564 L 90306,75564 L 90726,75564 L 91146,75564 L 91146,76824 L 91565,76404 L 91565,76824 L 92405,76404 L 92825,76824 L 92405,77243 L 92405,77663 L 93245,78083 L 93245,78922 L 93664,78922 L 93664,79342 L 93245,79762 L 92825,79342 L 92825,79762 L 93245,80182 L 93245,81021 L 94084,81021 L 93664,82700 L 94504,82700 L 94924,83540 L 94924,83959 L 95343,84379 L 94504,84799 L 94924,85219 L 96183,85219 L 97022,84799 L 97442,85638 L 97862,85219 L 98281,85638 L 97862,86058 L 97862,86478 L 98281,86478 L 98701,86897 L 98281,87317 L 98281,88157 L 99121,87737 L 99541,88157 L 93245,90255 L 92405,89416 L 91985,87737 L 91565,86897 L 91565,86478 L 88208,83959 z"
    />
  </g><g
   id="g224"
   style="stroke:#646464;stroke-opacity:1"
   transform="matrix(1.0154058,0,0,1.0147339,-1248.7565,-1436.8718)">
   <path
   class = "maps"
   id="path226"
   d="M 40777,122995 L 41197,118378 L 40777,112502 L 54209,107045 L 52949,98231 L 53369,98231 L 53789,98231 L 54209,99070 L 54628,99490 L 55468,98650 L 56727,99490 L 57986,99490 L 58406,99910 L 58406,100749 L 59246,101169 L 59665,101169 L 60505,102008 L 61344,102008 L 62184,102008 L 61764,102848 L 62603,103267 L 63443,102008 L 63863,102848 L 64282,102848 L 64282,103267 L 62603,104946 L 63023,105366 L 63443,105366 L 63863,105786 L 64282,106206 L 65122,106206 L 65122,106625 L 65122,107045 L 65961,107465 L 65961,107885 L 65122,108304 L 65542,109144 L 65542,109983 L 63863,110823 L 63443,110823 L 63023,112082 L 63023,112502 L 58406,117958 L 55468,119218 L 55048,120057 L 54209,122156 L 52949,121316 L 50431,122156 L 49172,121736 L 47913,122156 L 43715,122995 L 43715,123415 L 40777,122995 z"
    />
  </g><g
   id="g228"
   style="stroke:#646464;stroke-opacity:1"
   transform="matrix(1.0154058,0,0,1.0147339,-1248.7565,-1436.8718)">
   <path
   class = "maps"
   id="path230"
   d="M 53369,51639 L 54628,51639 L 57566,51639 L 59246,51220 L 60505,51220 L 60505,50800 L 61344,50800 L 61344,50800 L 62184,51220 L 63863,49960 L 64282,50800 L 64702,50380 L 65122,51220 L 66381,50800 L 67221,49960 L 67640,49960 L 68480,50800 L 68899,50380 L 69319,50800 L 69739,50800 L 70159,51220 L 70998,51220 L 71838,50380 L 72677,50800 L 72677,50380 L 73097,50380 L 73517,49960 L 73936,48701 L 75196,48701 L 83171,50800 L 87368,54158 L 87368,54577 L 88208,54577 L 87788,55417 L 86529,54158 L 86948,55417 L 86109,54997 L 85689,55417 L 85689,55837 L 86529,55837 L 85689,56676 L 86109,57516 L 85269,57516 L 84010,57516 L 84010,57096 L 83590,56676 L 82751,57096 L 82331,56256 L 81912,56676 L 81492,57516 L 81072,57096 L 80232,57516 L 79393,57516 L 78973,57935 L 78973,57516 L 78553,58355 L 78134,58355 L 77294,57935 L 77294,58775 L 76455,58355 L 76035,59195 L 75196,57935 L 75196,57935 L 73517,56676 L 73517,56676 L 73097,56256 L 72677,57096 L 72257,56676 L 71838,57516 L 70998,57096 L 70579,57935 L 69739,57516 L 69319,58355 L 68480,58355 L 68060,59195 L 67221,59195 L 67221,59614 L 66801,59614 L 66381,59614 L 65542,59195 L 64702,59195 L 64282,59614 L 63863,59614 L 61764,58775 L 61344,58355 L 60505,57935 L 60085,58355 L 56727,57096 L 57566,60454 L 55468,57935 L 53789,53738 L 53369,51639 z"
    />
  </g><g
   id="g232"
   style="stroke:#646464;stroke-opacity:1"
   transform="matrix(1.0154058,0,0,1.0147339,-1248.7565,-1436.8718)">
   <path
   class = "maps"
   id="path234"
   d="M 57566,60454 L 56727,57096 L 60085,58355 L 60505,57935 L 61344,58355 L 61764,58775 L 63863,59614 L 64282,59614 L 64702,59195 L 65542,59195 L 66381,59614 L 66801,59614 L 67221,59614 L 67221,59195 L 68060,59195 L 68480,58355 L 69319,58355 L 69739,57516 L 70579,57935 L 70998,57096 L 71838,57516 L 72257,56676 L 72677,57096 L 73097,56256 L 73517,56676 L 73517,56676 L 75196,57935 L 75196,57935 L 76035,59195 L 76455,58355 L 77294,58775 L 77294,57935 L 78134,58355 L 78553,58355 L 78973,57516 L 78973,57935 L 79393,57516 L 80232,57516 L 81072,57096 L 81492,57516 L 81912,56676 L 82331,56256 L 82751,57096 L 83590,56676 L 84010,57096 L 84010,57516 L 85269,57516 L 86109,57516 L 85689,56676 L 86529,55837 L 85689,55837 L 85689,55417 L 86109,54997 L 86948,55417 L 86529,54158 L 87788,55417 L 88208,54577 L 87368,54577 L 87368,54158 L 88208,54158 L 94924,59614 L 93664,62133 L 96183,61713 L 94924,66750 L 90306,67170 L 89047,70528 L 88627,69688 L 89047,73466 L 88627,73466 L 88208,74725 L 87788,74305 L 87788,74725 L 87368,74725 L 87368,74305 L 86948,74305 L 86948,74725 L 86109,74305 L 86109,73886 L 85689,73886 L 85689,73886 L 85269,73466 L 85269,73046 L 84850,73466 L 84010,73046 L 84010,73046 L 84010,72626 L 84010,72207 L 84010,72207 L 83590,72626 L 83171,72626 L 83171,73466 L 83171,73046 L 82331,73886 L 82331,72626 L 81912,73046 L 81912,72626 L 81072,73886 L 80652,73466 L 80232,73466 L 80232,73466 L 79813,73886 L 79393,73046 L 78973,73046 L 78553,72626 L 78134,72626 L 77294,71787 L 76875,71367 L 77294,71367 L 77294,70947 L 77294,70947 L 77294,70528 L 76035,70528 L 76455,70947 L 76035,71367 L 76035,70528 L 75615,70947 L 74776,70528 L 74776,69688 L 74356,69688 L 73936,69688 L 73936,69268 L 73097,69268 L 72677,70108 L 72677,70108 L 72257,69688 L 72257,69268 L 71838,68849 L 70998,69688 L 70998,69268 L 70159,69268 L 68060,68009 L 67640,67170 L 65961,66330 L 65542,66330 L 64702,65910 L 64282,66330 L 63863,65910 L 63863,65071 L 62603,64651 L 59246,65910 L 58406,65491 L 57147,64651 L 56727,64232 L 57566,60874 L 57566,60454 z"
    />
  </g><g
   id="g236"
   style="stroke:#646464;stroke-opacity:1"
   transform="matrix(1.0154058,0,0,1.0147339,-1248.7565,-1436.8718)">
   <path
   class = "maps"
   id="path238"
   d="M 35740,13863 L 35320,13023 L 36160,12603 L 36160,13023 L 36580,12603 L 36999,12184 L 36999,11344 L 36580,10924 L 36999,10085 L 37419,9665 L 37419,9246 L 38259,7986 L 39518,9246 L 42036,9665 L 45814,10924 L 47493,10085 L 48332,10924 L 52110,13443 L 52530,13863 L 52530,14702 L 53369,14282 L 53789,14702 L 55048,15961 L 55888,16801 L 56727,18480 L 57147,18480 L 59665,17640 L 60085,17221 L 63023,17640 L 65122,18900 L 66381,20159 L 66801,20579 L 52949,23936 L 51690,27714 L 52110,28973 L 51270,30233 L 50851,30233 L 50851,31492 L 50431,32331 L 49592,35689 L 50011,36109 L 49592,36529 L 49592,37788 L 49592,40306 L 48332,41566 L 47493,41566 L 47073,41985 L 45394,43664 L 44974,44084 L 44974,44923 L 44135,46183 L 42876,46602 L 42036,46183 L 41197,45763 L 39518,42405 L 38678,41985 L 38678,41146 L 39937,39467 L 39937,37788 L 40777,36529 L 40777,36109 L 40777,35689 L 40777,34430 L 41616,33590 L 41616,33590 L 40777,33171 L 38678,32331 L 37419,31072 L 36999,30233 L 36160,29813 L 35320,27714 L 34901,24776 L 35320,22677 L 35320,22677 L 36580,22257 L 36999,20998 L 38259,19739 L 39098,19319 L 39518,20159 L 39518,19319 L 39518,18900 L 37839,18480 L 37839,18060 L 37419,17640 L 36999,17221 L 35740,16381 L 35320,15542 L 35740,13863 z"
    />
  </g><g
   id="g240"
   style="stroke:#646464;stroke-opacity:1"
   transform="matrix(1.0154058,0,0,1.0147339,-1248.7565,-1436.8718)">
   <path
   class = "maps"
   id="path242"
   d="M 44135,46183 L 44974,44923 L 44974,44084 L 45394,43664 L 47073,41985 L 47493,41566 L 48332,41566 L 49592,40306 L 49592,37788 L 49592,36529 L 50011,36109 L 49592,35689 L 50431,32331 L 50851,31492 L 50851,30233 L 51270,30233 L 52110,28973 L 51690,27714 L 52949,23936 L 66801,20579 L 67221,21838 L 67640,22257 L 73936,26455 L 74776,26875 L 76455,27294 L 83590,27714 L 78134,36109 L 71838,46183 L 70998,46602 L 69319,46602 L 67640,48701 L 54628,51639 L 53369,51639 L 53369,50380 L 52949,49121 L 49172,47022 L 48752,47442 L 45394,46602 L 45394,46602 L 44974,45763 L 44135,46183 z"
    />
  </g><g
   id="g244"
   style="stroke:#646464;stroke-opacity:1"
   transform="matrix(1.0154058,0,0,1.0147339,-1248.7565,-1436.8718)">
   <path
   class = "maps"
   id="path246"
   d="M 108775,141884 L 109195,140624 L 108355,140205 L 108355,139365 L 109614,137686 L 110454,137686 L 111293,138526 L 115071,128032 L 114231,126353 L 113812,125094 L 114231,124254 L 113812,123835 L 113812,123415 L 114651,123415 L 114231,122575 L 115071,122575 L 115911,121316 L 116330,121736 L 117170,122575 L 118009,121736 L 118849,121736 L 119688,121736 L 119268,123415 L 119268,123835 L 119268,128452 L 119688,129291 L 120528,130131 L 118009,132649 L 111713,141884 L 109614,146081 L 108775,145241 L 109195,143982 L 109195,142723 L 108775,141884 z"
    />
  </g><g
   id="g248"
   style="stroke:#646464;stroke-opacity:1"
   transform="matrix(1.0154058,0,0,1.0147339,-1248.7565,-1436.8718)">
   <path
   class = "maps"
   id="path250"
   d="M 119268,123415 L 120528,123415 L 120947,122575 L 121367,122575 L 121367,121736 L 122207,121736 L 122207,121316 L 122626,121316 L 123046,120897 L 123046,120477 L 123046,120057 L 123466,120477 L 123886,120477 L 124305,120057 L 123886,119218 L 123886,118798 L 124305,119218 L 124725,118798 L 125564,118798 L 125564,117958 L 125984,117539 L 125984,116699 L 126404,117119 L 127244,115860 L 128083,115860 L 128083,115020 L 128923,115440 L 128923,115020 L 128923,115020 L 131441,113761 L 133120,110823 L 133540,111242 L 133959,111242 L 134379,111242 L 135219,111242 L 128083,118798 L 125984,121736 L 123466,124674 L 120528,128872 L 120528,130131 L 119688,129291 L 119268,128452 L 119268,123835 L 119268,123415 z"
    />
  </g><g
   id="g252"
   style="stroke:#646464;stroke-opacity:1"
   transform="matrix(1.0154058,0,0,1.0147339,-1248.7565,-1436.8718)">
   <path
   class = "maps"
   id="path254"
   d="M 96183,118798 L 102059,114181 L 103318,113341 L 104158,112921 L 104578,113341 L 109195,112082 L 110034,113761 L 110454,113761 L 110454,113341 L 111713,113341 L 111293,114181 L 111713,114600 L 112133,115020 L 114231,114181 L 115491,114600 L 115491,115860 L 116330,116699 L 117170,117958 L 115071,117958 L 114231,117539 L 112972,118798 L 111713,119218 L 110454,118798 L 110034,119218 L 109614,118798 L 109614,119218 L 107935,119637 L 107516,120897 L 105417,120057 L 104578,120057 L 103738,119637 L 102479,118798 L 96603,118798 L 96183,118798 z"
    />
  </g><g
   id="g256"
   style="stroke:#646464;stroke-opacity:1"
   transform="matrix(1.0154058,0,0,1.0147339,-1248.7565,-1436.8718)">
   <path
   class = "maps"
   id="path258"
   d="M 109195,112082 L 109614,111662 L 109614,111242 L 110034,110823 L 109614,109983 L 110034,109564 L 110454,109564 L 110874,107885 L 112553,107885 L 112972,106625 L 115071,104107 L 115071,105366 L 115071,106206 L 115491,106625 L 116330,106625 L 117170,107045 L 117590,107045 L 118429,107885 L 117590,109144 L 116750,112082 L 116750,113341 L 116330,114181 L 115491,114600 L 114231,114181 L 112133,115020 L 111713,114600 L 111293,114181 L 111713,113341 L 110454,113341 L 110454,113761 L 110034,113761 L 109195,112082 z"
    />
  </g><g
   id="g260"
   style="stroke:#646464;stroke-opacity:1"
   transform="matrix(1.0154058,0,0,1.0147339,-1248.7565,-1436.8718)">
   <path
   class = "maps"
   id="path262"
   d="M 96603,118798 L 102479,118798 L 103738,119637 L 104578,120057 L 105417,120057 L 107516,120897 L 107935,119637 L 109614,119218 L 109614,118798 L 110034,119218 L 110454,118798 L 111713,119218 L 112972,118798 L 114231,117539 L 115071,117958 L 117170,117958 L 118849,118378 L 120108,119637 L 120108,120897 L 119688,121736 L 118849,121736 L 118009,121736 L 117170,122575 L 116330,121736 L 115911,121316 L 115071,122575 L 114231,122575 L 114651,123415 L 113812,123415 L 113812,123835 L 114231,124254 L 113812,125094 L 114231,126353 L 113392,125933 L 110034,127193 L 109614,126773 L 109195,126773 L 108775,125933 L 108355,125514 L 107935,124674 L 107096,124254 L 106676,123415 L 106257,123835 L 105837,123415 L 105417,122575 L 104158,122575 L 103738,122156 L 102059,121736 L 101639,120897 L 100800,120477 L 100380,120057 L 99960,120477 L 98281,120477 L 97442,120057 L 96603,118798 z"
    />
  </g><g
   id="g264"
   style="stroke:#646464;stroke-opacity:1"
   transform="matrix(1.0154058,0,0,1.0147339,-1248.7565,-1436.8718)">
   <path
   class = "maps"
   id="path266"
   d="M 129342,105786 L 141095,97391 L 142354,97811 L 143194,98650 L 143613,99070 L 151588,100749 L 149490,102008 L 145712,103687 L 138996,108304 L 135219,111242 L 134379,111242 L 133959,111242 L 133540,111242 L 133959,110823 L 133540,110823 L 133959,110403 L 133540,109983 L 133540,108304 L 133120,108304 L 132700,107465 L 132280,107465 L 132280,107465 L 131861,107465 L 132280,107885 L 132280,107885 L 131861,107885 L 131441,108304 L 131021,107885 L 131021,107045 L 130601,105786 L 129342,105786 z"
    />
  </g><g
   id="g268"
   style="stroke:#646464;stroke-opacity:1"
   transform="matrix(1.0154058,0,0,1.0147339,-1248.7565,-1436.8718)">
   <path
   class = "maps"
   id="path270"
   d="M 115491,114600 L 116330,114181 L 116750,113341 L 116750,112082 L 121367,109564 L 121787,110403 L 123046,110403 L 124725,110823 L 126824,108724 L 128083,107465 L 129762,106625 L 129342,107885 L 129762,107885 L 130182,108304 L 130182,107885 L 130601,107465 L 131021,107045 L 131021,107045 L 131021,107885 L 131441,108304 L 131861,107885 L 132280,107885 L 132280,107885 L 131861,107465 L 132280,107465 L 132280,107465 L 132700,107465 L 133120,108304 L 133540,108304 L 133540,109983 L 133959,110403 L 133540,110823 L 133959,110823 L 133540,111242 L 133120,110823 L 131441,113761 L 128923,115020 L 128923,115020 L 128923,115440 L 128083,115020 L 128083,115860 L 127244,115860 L 126404,117119 L 125984,116699 L 125984,117539 L 125564,117958 L 125564,118798 L 124725,118798 L 124305,119218 L 123886,118798 L 123886,119218 L 124305,120057 L 123886,120477 L 123466,120477 L 123046,120057 L 123046,120477 L 123046,120897 L 122626,121316 L 122207,121316 L 122207,121736 L 121367,121736 L 121367,122575 L 120947,122575 L 120528,123415 L 119268,123415 L 119688,121736 L 120108,120897 L 120108,119637 L 118849,118378 L 117170,117958 L 116330,116699 L 115491,115860 L 115491,114600 z"
    />
  </g><g
   id="g272"
   style="stroke:#646464;stroke-opacity:1"
   transform="matrix(1.0154058,0,0,1.0147339,-1248.7565,-1436.8718)">
   <path
   class = "maps"
   id="path274"
   d="M 96183,118798 L 96603,118798 L 97442,120057 L 98281,120477 L 99960,120477 L 100380,120057 L 100800,120477 L 101639,120897 L 102059,121736 L 103738,122156 L 104158,122575 L 105417,122575 L 105837,123415 L 106257,123835 L 106676,123415 L 107096,124254 L 107935,124674 L 108355,125514 L 108775,125933 L 109195,126773 L 109614,126773 L 110034,127193 L 113392,125933 L 114231,126353 L 115071,128032 L 111293,138526 L 110454,137686 L 109614,137686 L 108355,139365 L 108355,140205 L 109195,140624 L 108775,141884 L 107516,141044 L 105837,140205 L 104158,138945 L 103738,138526 L 103738,136427 L 98701,135168 L 98701,134748 L 97862,134328 L 97442,132649 L 97022,131810 L 94924,130970 L 95343,130551 L 94924,130131 L 94084,128452 L 94924,128032 L 96183,118798 z"
    />
  </g><g
   id="g276"
   style="stroke:#646464;stroke-opacity:1"
   transform="matrix(1.0154058,0,0,1.0147339,-1248.7565,-1436.8718)">
   <path
   class = "maps"
   id="path278"
   d="M 111293,88576 L 111293,87317 L 113392,83540 L 112972,83540 L 113392,83120 L 113392,82700 L 112972,82700 L 112972,81441 L 111713,81021 L 112133,80601 L 112553,79762 L 113392,80182 L 113392,79762 L 114231,79762 L 114651,79342 L 114231,79342 L 115071,78922 L 115491,78083 L 116330,77663 L 116330,77243 L 117170,76824 L 118009,77243 L 118429,77663 L 119688,76404 L 119688,76404 L 120528,76404 L 120528,76404 L 121367,76824 L 122207,76404 L 122626,76404 L 122626,78503 L 123046,79342 L 123046,79342 L 123466,79762 L 123466,79762 L 123886,80182 L 123886,80182 L 124305,80182 L 123886,81021 L 123466,81441 L 124305,82280 L 123886,82700 L 125145,84379 L 125564,86058 L 127244,86478 L 127663,86897 L 128083,86897 L 126404,92774 L 124725,93613 L 124725,94453 L 121787,102848 L 119688,101588 L 116750,100749 L 117170,99910 L 117170,99070 L 117170,98650 L 116330,98650 L 116330,97391 L 116750,96971 L 116750,96132 L 117170,93613 L 115911,93194 L 113812,93613 L 114231,93194 L 114231,91934 L 113812,91095 L 113392,90255 L 112972,89416 L 111713,88576 L 111293,88576 z"
    />
  </g><g
   id="g280"
   style="stroke:#646464;stroke-opacity:1"
   transform="matrix(1.0154058,0,0,1.0147339,-1248.7565,-1436.8718)">
   <path
   class = "maps"
   id="path282"
   d="M 121787,105786 L 121787,102848 L 123466,102008 L 125564,102008 L 125145,102428 L 125984,103687 L 128503,104107 L 128503,105366 L 129342,105786 L 130601,105786 L 131021,107045 L 131021,107045 L 130601,107465 L 130182,107885 L 130182,108304 L 129762,107885 L 129342,107885 L 129762,106625 L 124305,106206 L 121787,105786 z"
    />
  </g><g
   id="g284"
   style="stroke:#646464;stroke-opacity:1"
   transform="matrix(1.0154058,0,0,1.0147339,-1248.7565,-1436.8718)">
   <path
   class = "maps"
   id="path286"
   d="M 100800,68849 L 101639,70528 L 102479,70947 L 102899,71787 L 102899,72207 L 103318,72626 L 103738,73886 L 104578,74305 L 104997,74305 L 104997,73886 L 105417,73886 L 105837,73886 L 106676,74305 L 107096,74305 L 107516,74725 L 108355,75145 L 108355,75984 L 108355,75984 L 108775,76404 L 108775,76824 L 107935,76824 L 108355,77243 L 108355,77243 L 108775,77663 L 109195,77663 L 110034,78083 L 109614,78503 L 110034,78922 L 109195,79342 L 109614,79762 L 110034,79342 L 110034,79762 L 110454,79342 L 110454,79762 L 110874,79762 L 110454,79342 L 110874,79342 L 110874,79342 L 111293,78922 L 112133,80601 L 111713,81021 L 112972,81441 L 112972,82700 L 113392,82700 L 113392,83120 L 112972,83540 L 112553,83120 L 112133,83540 L 111713,83120 L 110454,84379 L 110454,83959 L 110034,83959 L 110034,83540 L 109614,83540 L 109195,83540 L 108355,83959 L 107935,83959 L 107516,83959 L 106676,83120 L 105417,82700 L 104578,81441 L 103738,80601 L 103318,79762 L 102479,78922 L 102479,77663 L 101639,75564 L 103318,74305 L 102479,73886 L 102479,73046 L 100800,71787 L 100380,70947 L 98281,70528 L 99960,69268 L 100800,68849 z"
    />
  </g><g
   id="g288"
   style="stroke:#646464;stroke-opacity:1"
   transform="matrix(1.0154058,0,0,1.0147339,-1248.7565,-1436.8718)">
   <path
   class = "maps"
   id="path290"
   d="M 105417,99910 L 107935,101588 L 110034,101169 L 109614,101588 L 110874,101588 L 110454,102428 L 110874,103267 L 111293,103687 L 114651,102848 L 114651,102428 L 115071,102848 L 115491,103267 L 115071,104107 L 112972,106625 L 112553,107885 L 110874,107885 L 110454,109564 L 110034,109564 L 109614,109983 L 110034,110823 L 109614,111242 L 109614,111662 L 109195,112082 L 109195,111242 L 109195,110823 L 108355,110823 L 108775,109983 L 107516,109144 L 106676,109983 L 105417,109983 L 105837,109564 L 105837,109144 L 105837,108724 L 105417,108304 L 105837,107465 L 106257,107045 L 105837,107045 L 105837,105786 L 106676,105786 L 106676,104946 L 106257,104946 L 106676,104946 L 106676,104107 L 107516,104107 L 107096,103267 L 107516,102848 L 107096,102848 L 106676,101588 L 105837,101588 L 105417,101588 L 105837,100749 L 105417,99910 z"
    />
  </g><g
   id="g292"
   style="stroke:#646464;stroke-opacity:1"
   transform="matrix(1.0154058,0,0,1.0147339,-1248.7565,-1436.8718)">
   <path
   class = "maps"
   id="path294"
   d="M 121787,105786 L 124305,106206 L 129762,106625 L 128083,107465 L 126824,108724 L 125984,108304 L 125145,108304 L 125145,107885 L 123046,107885 L 121367,106625 L 121787,106206 L 121787,105786 z"
    />
  </g><g
   id="g296"
   style="stroke:#646464;stroke-opacity:1"
   transform="matrix(1.0154058,0,0,1.0147339,-1248.7565,-1436.8718)">
   <path
   class = "maps"
   id="path298"
   d="M 121787,102848 L 124725,94453 L 124725,93613 L 126404,92774 L 128083,86897 L 128083,84799 L 128503,84799 L 128923,84799 L 129342,84379 L 130182,84379 L 130601,83959 L 131021,82700 L 132280,82280 L 133120,83540 L 133540,84379 L 134379,84379 L 134379,84799 L 133540,85219 L 133120,86058 L 133540,88157 L 133540,89416 L 133959,90255 L 133959,90675 L 135638,90675 L 136478,91515 L 136897,93613 L 138996,95292 L 138996,97391 L 141095,97391 L 129342,105786 L 128503,105366 L 128503,104107 L 125984,103687 L 125145,102428 L 125564,102008 L 123466,102008 L 121787,102848 z"
    />
  </g><g
   id="g300"
   style="stroke:#646464;stroke-opacity:1"
   transform="matrix(1.0154058,0,0,1.0147339,-1248.7565,-1436.8718)">
   <path
   class = "maps"
   id="path302"
   d="M 131021,82700 L 131021,82280 L 131441,81441 L 134799,81021 L 135638,80182 L 135638,79342 L 136058,77663 L 137317,76824 L 137737,75145 L 137737,75145 L 137317,74305 L 137737,73886 L 138577,73886 L 139416,73046 L 139416,72626 L 139416,73046 L 139836,73046 L 140675,74305 L 141095,74725 L 141934,75145 L 142774,75984 L 143613,75564 L 144033,75564 L 144453,76404 L 145712,77243 L 146552,78503 L 147811,83120 L 143613,99070 L 143194,98650 L 142354,97811 L 141095,97391 L 138996,97391 L 138996,95292 L 136897,93613 L 136478,91515 L 135638,90675 L 133959,90675 L 133959,90255 L 133540,89416 L 133540,88157 L 133120,86058 L 133540,85219 L 134379,84799 L 134379,84379 L 133540,84379 L 133120,83540 L 132280,82280 L 131021,82700 z"
    />
  </g><g
   id="g304"
   style="stroke:#646464;stroke-opacity:1"
   transform="matrix(1.0154058,0,0,1.0147339,-1248.7565,-1436.8718)">
   <path
   class = "maps"
   id="path306"
   d="M 121787,74305 L 125984,73046 L 128503,72207 L 128083,74725 L 130601,76404 L 131021,78503 L 130182,80182 L 129762,81441 L 121787,74305 z"
    />
  </g><g
   id="g308"
   style="stroke:#646464;stroke-opacity:1"
   transform="matrix(1.0154058,0,0,1.0147339,-1248.7565,-1436.8718)">
   <path
   class = "maps"
   id="path310"
   d="M 121367,76824 L 121787,74305 L 129762,81441 L 129762,81861 L 129762,82280 L 131021,82700 L 130601,83959 L 130182,84379 L 129342,84379 L 128923,84799 L 128503,84799 L 128083,84799 L 128083,86897 L 127663,86897 L 127244,86478 L 125564,86058 L 125145,84379 L 123886,82700 L 124305,82280 L 123466,81441 L 123886,81021 L 124305,80182 L 123886,80182 L 123886,80182 L 123466,79762 L 123466,79762 L 123046,79342 L 123046,79342 L 122626,78503 L 122626,76404 L 122207,76404 L 121367,76824 z"
    />
  </g><g
   id="g312"
   style="stroke:#646464;stroke-opacity:1"
   transform="matrix(1.0154058,0,0,1.0147339,-1248.7565,-1436.8718)">
   <path
   class = "maps"
   id="path314"
   d="M 93245,90255 L 99541,88157 L 99121,87737 L 98281,88157 L 98281,87317 L 98701,86897 L 98281,86478 L 97862,86478 L 97862,86058 L 98281,85638 L 97862,85219 L 97442,85638 L 97022,84799 L 96183,85219 L 94924,85219 L 94504,84799 L 95343,84379 L 94924,83959 L 94924,83540 L 94504,82700 L 93664,82700 L 94084,81021 L 93664,81021 L 93664,80601 L 94504,80601 L 95343,80601 L 95343,79762 L 96183,78922 L 96183,78503 L 96603,78083 L 97442,77243 L 99121,76404 L 99541,76404 L 99121,75145 L 99960,75564 L 99960,74725 L 100380,74305 L 101220,74725 L 102059,73886 L 102479,73886 L 103318,74305 L 101639,75564 L 102479,77663 L 102479,78922 L 103318,79762 L 103738,80601 L 104578,81441 L 105417,82700 L 106676,83120 L 107516,83959 L 107935,83959 L 108355,83959 L 109195,83540 L 109614,83540 L 110034,83540 L 110034,83959 L 110454,83959 L 110454,84379 L 111713,83120 L 112133,83540 L 112553,83120 L 112972,83540 L 113392,83540 L 111293,87317 L 111293,88576 L 109614,93613 L 107516,96132 L 108355,96971 L 107935,97811 L 106257,98650 L 105417,99910 L 105837,100749 L 105417,101588 L 104997,100749 L 104578,100749 L 104578,100329 L 103318,99910 L 103318,99490 L 102899,99490 L 101639,99070 L 100800,97391 L 99960,97391 L 98701,96971 L 97862,97391 L 97022,97391 L 96603,96552 L 96183,95712 L 96603,94873 L 96183,94873 L 95763,94453 L 93245,90255 z"
    />
  </g><g
   id="g316"
   style="stroke:#646464;stroke-opacity:1"
   transform="matrix(1.0154058,0,0,1.0147339,-1248.7565,-1436.8718)">
   <path
   class = "maps"
   id="path318"
   d="M 143613,99070 L 147811,83120 L 152008,82700 L 156625,83959 L 155786,84379 L 155366,84799 L 155786,85219 L 155786,85219 L 156625,90675 L 157465,91095 L 165020,91934 L 166279,93194 L 165020,94033 L 158304,96971 L 154527,98231 L 151588,100749 L 143613,99070 z"
    />
  </g><g
   id="g320"
   style="stroke:#646464;stroke-opacity:1"
   transform="matrix(1.0154058,0,0,1.0147339,-1248.7565,-1436.8718)">
   <path
   class = "maps"
   id="path322"
   d="M 115071,102848 L 116330,102008 L 116750,100749 L 119688,101588 L 121787,102848 L 121787,105786 L 121787,106206 L 121367,106625 L 123046,107885 L 125145,107885 L 125145,108304 L 125984,108304 L 126824,108724 L 124725,110823 L 123046,110403 L 121787,110403 L 121367,109564 L 116750,112082 L 117590,109144 L 118429,107885 L 117590,107045 L 117170,107045 L 116330,106625 L 115491,106625 L 115071,106206 L 115071,105366 L 115071,104107 L 115491,103267 L 115071,102848 z"
    />
  </g><g
   id="g324"
   style="stroke:#646464;stroke-opacity:1"
   transform="matrix(1.0154058,0,0,1.0147339,-1248.7565,-1436.8718)">
   <path
   class = "maps"
   id="path326"
   d="M 97862,99490 L 98281,99070 L 98701,98650 L 99121,98231 L 100380,98231 L 101639,99070 L 101639,99070 L 102899,99490 L 103318,99490 L 103318,99910 L 104578,100329 L 104578,100749 L 104997,100749 L 105417,101588 L 105837,101588 L 106676,101588 L 107096,102848 L 107516,102848 L 107096,103267 L 107516,104107 L 106676,104107 L 106676,104946 L 106257,104946 L 106676,104946 L 106676,105786 L 105837,105786 L 103318,105786 L 102899,104946 L 102059,104527 L 102059,103687 L 100800,103687 L 99960,102428 L 99121,102008 L 99121,101169 L 98281,100329 L 97862,100329 L 97862,99490 z"
    />
  </g><g
   id="g328"
   style="stroke:#646464;stroke-opacity:1"
   transform="matrix(1.0154058,0,0,1.0147339,-1248.7565,-1436.8718)">
   <path
   class = "maps"
   id="path330"
   d="M 129762,81441 L 130182,80182 L 131021,78503 L 130601,76404 L 131861,75145 L 132280,73886 L 133120,73886 L 134799,72207 L 136058,70947 L 135638,71367 L 136058,71787 L 136058,72207 L 136478,73466 L 137737,73886 L 137317,74305 L 137737,75145 L 137737,75145 L 137317,76824 L 136058,77663 L 135638,79342 L 135638,80182 L 134799,81021 L 131441,81441 L 131021,82280 L 131021,82700 L 129762,82280 L 129762,81861 L 129762,81441 z"
    />
  </g><g
   id="g332"
   style="stroke:#646464;stroke-opacity:1"
   transform="matrix(1.0154058,0,0,1.0147339,-1248.7565,-1436.8718)">
   <path
   class = "maps"
   id="path334"
   d="M 105417,99910 L 106257,98650 L 107935,97811 L 108355,96971 L 107516,96132 L 109614,93613 L 111293,88576 L 111713,88576 L 112972,89416 L 113392,90255 L 113812,91095 L 114231,91934 L 114231,93194 L 113812,93613 L 115911,93194 L 117170,93613 L 116750,96132 L 116750,96971 L 116330,97391 L 116330,98650 L 117170,98650 L 117170,99070 L 117170,99910 L 116750,100749 L 116330,102008 L 115071,102848 L 114651,102428 L 114651,102848 L 111293,103687 L 110874,103267 L 110454,102428 L 110874,101588 L 109614,101588 L 110034,101169 L 107935,101588 L 105417,99910 z"
    />
  </g><g
   id="g336"
   style="stroke:#646464;stroke-opacity:1"
   transform="matrix(1.0154058,0,0,1.0147339,-1248.7565,-1436.8718)">
   <path
   class = "maps"
   id="path338"
   d="M 127663,68009 L 128083,58775 L 128923,60034 L 129342,59614 L 130182,60454 L 132700,60874 L 127663,68009 z"
    />
  </g><g
   id="g340"
   style="stroke:#646464;stroke-opacity:1"
   transform="matrix(1.0154058,0,0,1.0147339,-1248.7565,-1436.8718)">
   <path
   class = "maps"
   id="path342"
   d="M 109195,77663 L 109195,76824 L 108775,76824 L 109614,76404 L 109614,75984 L 110034,76404 L 110454,75564 L 109614,74725 L 110454,74305 L 110034,73046 L 110454,73046 L 110874,72626 L 111293,71787 L 111293,70947 L 110874,70528 L 110874,69688 L 110034,68849 L 110034,67589 L 110874,65910 L 111293,65491 L 110034,64232 L 110034,62553 L 118009,63812 L 121367,65071 L 123046,63812 L 125145,66330 L 125984,68849 L 127663,68009 L 128503,67589 L 126404,71367 L 128503,72207 L 125984,73046 L 121787,74305 L 121367,76824 L 120528,76404 L 120528,76404 L 119688,76404 L 119688,76404 L 118429,77663 L 118009,77243 L 117170,76824 L 116330,77243 L 116330,77663 L 115491,78083 L 115071,78922 L 114231,79342 L 114651,79342 L 114231,79762 L 113392,79762 L 113392,80182 L 112553,79762 L 112133,80601 L 111293,78922 L 110874,79342 L 110874,79342 L 110454,79342 L 110874,79762 L 110454,79762 L 110454,79342 L 110034,79762 L 110034,79342 L 109614,79762 L 109195,79342 L 110034,78922 L 109614,78503 L 110034,78083 L 109195,77663 z"
    />
  </g><g
   id="g344"
   style="stroke:#646464;stroke-opacity:1"
   transform="matrix(1.0154058,0,0,1.0147339,-1248.7565,-1436.8718)">
   <path
   class = "maps"
   id="path346"
   d="M 110034,62553 L 117170,60454 L 118009,59614 L 118849,59195 L 119268,60454 L 120108,60034 L 120528,59195 L 120108,59195 L 121367,57935 L 123466,56256 L 126404,54997 L 126824,54997 L 127663,56676 L 128503,57935 L 129342,59614 L 128923,60034 L 128083,58775 L 127663,68009 L 125984,68849 L 125145,66330 L 123046,63812 L 121367,65071 L 118009,63812 L 110034,62553 z"
    />
  </g><g
   id="g348"
   style="stroke:#646464;stroke-opacity:1"
   transform="matrix(1.0154058,0,0,1.0147339,-1248.7565,-1436.8718)">
   <path
   class = "maps"
   id="path350"
   d="M 128503,72207 L 126404,71367 L 128503,67589 L 133120,68009 L 135219,70947 L 136058,70947 L 134799,72207 L 133120,73886 L 132280,73886 L 131861,75145 L 130601,76404 L 128083,74725 L 128503,72207 z"
    />
  </g><g
   id="g352"
   style="stroke:#646464;stroke-opacity:1"
   transform="matrix(1.0154058,0,0,1.0147339,-1248.7565,-1436.8718)">
   <path
   class = "maps"
   id="path354"
   d="M 87368,54158 L 88208,53318 L 89047,53318 L 89047,52899 L 89467,52899 L 89886,52479 L 90306,52059 L 90306,51639 L 91146,51220 L 90726,50800 L 91565,50800 L 91565,50380 L 90726,49541 L 91985,49541 L 91985,49541 L 91985,50380 L 93245,49960 L 93664,49121 L 92825,49121 L 93245,48281 L 93245,48701 L 94084,48701 L 93664,48281 L 94084,47862 L 94924,48281 L 94504,49121 L 95343,49541 L 94924,49960 L 96183,49541 L 96183,49121 L 97022,48701 L 97442,49121 L 97862,50380 L 98701,49541 L 98701,48281 L 98701,47862 L 100380,48281 L 99960,45763 L 100380,45763 L 100800,45763 L 101220,45343 L 102899,45343 L 103318,41566 L 103738,40306 L 106257,40306 L 110034,40306 L 111713,41566 L 116330,46183 L 118429,47862 L 119688,47862 L 121787,47022 L 122626,47022 L 123466,47022 L 125564,48281 L 125984,49541 L 126404,50800 L 126404,51220 L 122207,52059 L 120108,53738 L 117590,54158 L 106257,51220 L 106676,51639 L 107096,51639 L 106676,51639 L 107096,52479 L 106676,52899 L 107096,53738 L 107096,53738 L 106676,54158 L 106257,54577 L 106676,54997 L 107096,54577 L 107096,54997 L 106257,54997 L 105837,55837 L 104997,55417 L 104997,55837 L 105417,57096 L 104578,56676 L 104158,56676 L 104578,57516 L 104158,57096 L 103318,57516 L 103318,58355 L 103318,58775 L 103738,58355 L 104158,58355 L 103738,58775 L 104158,58775 L 104578,60034 L 104158,60034 L 104158,60454 L 104158,60874 L 103738,60874 L 104158,61293 L 104158,62133 L 103738,61713 L 103318,62133 L 102899,62133 L 102059,61293 L 101639,61713 L 101220,61713 L 100800,62133 L 100800,62553 L 99121,63392 L 98701,62972 L 99121,62133 L 98701,62133 L 97442,62133 L 96183,61713 L 93664,62133 L 94924,59614 L 88208,54158 L 87368,54158 z"
    />
  </g><g
   id="g356"
   style="stroke:#646464;stroke-opacity:1"
   transform="matrix(1.0154058,0,0,1.0147339,-1248.7565,-1436.8718)">
   <path
   class = "maps"
   id="path358"
   d="M 94924,66750 L 96183,61713 L 97442,62133 L 98701,62133 L 99121,62133 L 98701,62972 L 99121,63392 L 100800,62553 L 100800,62133 L 101220,61713 L 101639,61713 L 102059,61293 L 102899,62133 L 103318,62133 L 103738,61713 L 104158,62133 L 104158,61293 L 103738,60874 L 104158,60874 L 104158,60454 L 105417,61293 L 105417,61293 L 105837,61713 L 105417,62133 L 106257,62133 L 106257,62553 L 106676,62133 L 107516,63392 L 107935,63392 L 108355,62972 L 109195,63392 L 110034,62553 L 110034,64232 L 111293,65491 L 110874,65910 L 110034,67589 L 110034,68849 L 110874,69688 L 110874,70528 L 111293,70947 L 111293,71787 L 110874,72626 L 110454,73046 L 110034,73046 L 110454,74305 L 109614,74725 L 110454,75564 L 110034,76404 L 109614,75984 L 109614,76404 L 108775,76824 L 109195,76824 L 109195,77663 L 108775,77663 L 108355,77243 L 108355,77243 L 107935,76824 L 108775,76824 L 108775,76404 L 108355,75984 L 108355,75984 L 108355,75145 L 107516,74725 L 107096,74305 L 106676,74305 L 105837,73886 L 105417,73886 L 104997,73886 L 104997,74305 L 104578,74305 L 103738,73886 L 103318,72626 L 102899,72207 L 102899,71787 L 102479,70947 L 101639,70528 L 100800,68849 L 94924,66750 z"
    />
  </g><g
   id="g360"
   style="stroke:#646464;stroke-opacity:1"
   transform="matrix(1.0154058,0,0,1.0147339,-1248.7565,-1436.8718)">
   <path
   class = "maps"
   id="path362"
   d="M 104158,60454 L 104158,60034 L 104578,60034 L 104158,58775 L 103738,58775 L 104158,58355 L 103738,58355 L 103318,58775 L 103318,58355 L 103318,57516 L 104158,57096 L 104578,57516 L 104158,56676 L 104578,56676 L 105417,57096 L 104997,55837 L 104997,55417 L 105837,55837 L 106257,54997 L 107096,54997 L 107096,54577 L 106676,54997 L 106257,54577 L 106676,54158 L 107096,53738 L 107096,53738 L 106676,52899 L 107096,52479 L 106676,51639 L 107096,51639 L 106676,51639 L 106257,51220 L 117590,54158 L 117170,56676 L 117170,60454 L 110034,62553 L 109195,63392 L 108355,62972 L 107935,63392 L 107516,63392 L 106676,62133 L 106257,62553 L 106257,62133 L 105417,62133 L 105837,61713 L 105417,61293 L 105417,61293 L 104158,60454 z"
    />
  </g><g
   id="g364"
   style="stroke:#646464;stroke-opacity:1"
   transform="matrix(1.0154058,0,0,1.0147339,-1248.7565,-1436.8718)">
   <path
   class = "maps"
   id="path366"
   d="M 117170,60454 L 117170,56676 L 117590,54158 L 120108,53738 L 122207,52059 L 126404,51220 L 126404,52899 L 126404,54997 L 123466,56256 L 121367,57935 L 120108,59195 L 120528,59195 L 120108,60034 L 119268,60454 L 118849,59195 L 118009,59614 L 117170,60454 z"
    />
  </g><g
   id="g368"
   style="stroke:#646464;stroke-opacity:1"
   transform="matrix(1.0154058,0,0,1.0147339,-1248.7565,-1436.8718)">
   <path
   class = "maps"
   id="path370"
   d="M 54628,51639 L 67640,48701 L 69319,46602 L 70998,46602 L 71838,46183 L 78134,36109 L 83590,27714 L 87368,28973 L 89467,30233 L 92405,31072 L 93245,31492 L 95763,33590 L 97862,34430 L 98701,34430 L 100380,36109 L 102059,39467 L 102899,39887 L 103738,40306 L 103318,41566 L 102899,45343 L 101220,45343 L 100800,45763 L 100380,45763 L 99960,45763 L 100380,48281 L 98701,47862 L 98701,48281 L 98701,49541 L 97862,50380 L 97442,49121 L 97022,48701 L 96183,49121 L 96183,49541 L 94924,49960 L 95343,49541 L 94504,49121 L 94924,48281 L 94084,47862 L 93664,48281 L 94084,48701 L 93245,48701 L 93245,48281 L 92825,49121 L 93664,49121 L 93245,49960 L 91985,50380 L 91985,49541 L 91985,49541 L 90726,49541 L 91565,50380 L 91565,50800 L 90726,50800 L 91146,51220 L 90306,51639 L 90306,52059 L 89886,52479 L 89467,52899 L 89047,52899 L 89047,53318 L 88208,53318 L 87368,54158 L 83171,50800 L 75196,48701 L 73936,48701 L 73517,49960 L 73097,50380 L 72677,50380 L 72677,50800 L 71838,50380 L 70998,51220 L 70159,51220 L 69739,50800 L 69319,50800 L 68899,50380 L 68480,50800 L 67640,49960 L 67221,49960 L 66381,50800 L 65122,51220 L 64702,50380 L 64282,50800 L 63863,49960 L 62184,51220 L 61344,50800 L 61344,50800 L 60505,50800 L 60505,51220 L 59246,51220 L 57566,51639 L 54628,51639 z"
    />
  </g><g
   id="g372"
   style="stroke:#646464;stroke-opacity:1"
   transform="matrix(1.0154058,0,0,1.0147339,-1248.7565,-1436.8718)">
   <path
   class = "maps"
   id="path374"
   d="M 133120,68009 L 134379,63812 L 135638,65491 L 136058,65071 L 136478,65910 L 138577,67170 L 141515,68009 L 143613,68429 L 143613,68849 L 143613,69268 L 143194,69268 L 143613,69688 L 144873,70108 L 146132,70947 L 147811,71367 L 147391,72207 L 147391,72626 L 145292,72626 L 144873,72626 L 144453,71787 L 143613,70947 L 142774,70947 L 142774,70528 L 141515,71367 L 140675,70947 L 139836,72207 L 139836,72626 L 139416,72626 L 139416,73046 L 138577,73886 L 137737,73886 L 136478,73466 L 136058,72207 L 136058,71787 L 135638,71367 L 136058,70947 L 135219,70947 L 133120,68009 z"
    />
  </g><g
   id="g376"
   style="stroke:#646464;stroke-opacity:1"
   transform="matrix(1.0154058,0,0,1.0147339,-1248.7565,-1436.8718)">
   <path
   class = "maps"
   id="path378"
   d="M 127663,68009 L 132700,60874 L 133120,61293 L 133959,62133 L 135219,62553 L 135638,63812 L 136058,65071 L 135638,65491 L 134379,63812 L 133120,68009 L 128503,67589 L 127663,68009 z"
    />
  </g><g
   id="g380"
   style="stroke:#646464;stroke-opacity:1"
   transform="matrix(1.0154058,0,0,1.0147339,-1248.7565,-1436.8718)">
   <path
   class = "maps"
   id="path382"
   d="M 157465,91095 L 162082,88157 L 163761,86478 L 166279,85638 L 165860,84379 L 165860,84379 L 167958,83120 L 168378,83120 L 170477,84379 L 170477,84379 L 171316,86478 L 172995,89836 L 173835,90675 L 173835,91095 L 173415,91934 L 173415,92774 L 172576,92354 L 170057,92774 L 165020,94033 L 166279,93194 L 165020,91934 L 157465,91095 z"
    />
  </g><g
   id="g384"
   style="stroke:#646464;stroke-opacity:1"
   transform="matrix(1.0154058,0,0,1.0147339,-1248.7565,-1436.8718)">
   <path
   class = "maps"
   id="path386"
   d="M 156625,90675 L 156625,90255 L 157465,89416 L 157465,88576 L 156625,87737 L 156625,86897 L 157045,86478 L 157465,86897 L 157465,86478 L 157465,86478 L 157465,86058 L 157884,86058 L 157884,85638 L 158304,85638 L 158304,85638 L 159144,85219 L 159563,83959 L 160823,84799 L 161662,84379 L 163761,84379 L 163341,84379 L 162921,85219 L 164181,85219 L 165860,84379 L 166279,85638 L 163761,86478 L 162082,88157 L 157465,91095 L 156625,90675 z"
    />
  </g><g
   id="g388"
   style="stroke:#646464;stroke-opacity:1"
   transform="matrix(1.0154058,0,0,1.0147339,-1248.7565,-1436.8718)">
   <path
   class = "maps"
   id="path390"
   d="M 139416,73046 L 139416,72626 L 139836,72626 L 139836,72207 L 140675,70947 L 141515,71367 L 142774,70528 L 142774,70947 L 143613,70947 L 144453,71787 L 144873,72626 L 145292,72626 L 147391,72626 L 147391,72207 L 147811,71367 L 149490,71787 L 150329,72626 L 152008,75984 L 157465,74305 L 158724,75564 L 159144,76824 L 159144,79762 L 159563,81861 L 159563,83959 L 159144,85219 L 158304,85638 L 158304,85638 L 157884,85638 L 157884,86058 L 157465,86058 L 157465,86478 L 157465,86478 L 157465,86897 L 157045,86478 L 156625,86897 L 156625,87737 L 157465,88576 L 157465,89416 L 156625,90255 L 156625,90675 L 155786,85219 L 155786,85219 L 155366,84799 L 155786,84379 L 156625,83959 L 152008,82700 L 147811,83120 L 146552,78503 L 145712,77243 L 144453,76404 L 144033,75564 L 143613,75564 L 142774,75984 L 141934,75145 L 141095,74725 L 140675,74305 L 139836,73046 L 139416,73046 L 139416,72626 L 139416,73046 z"
    />
  </g><g
   id="g392"
   style="stroke:#646464;stroke-opacity:1"
   transform="matrix(1.0154058,0,0,1.0147339,-1248.7565,-1436.8718)">
   <path
   class = "maps"
   id="path394"
   d="M 89047,70528 L 90306,67170 L 94924,66750 L 100800,68849 L 99960,69268 L 98281,70528 L 100380,70947 L 100800,71787 L 102479,73046 L 102479,73886 L 102059,73886 L 101220,74725 L 100380,74305 L 99960,74725 L 99960,75564 L 99121,75145 L 99541,76404 L 99121,76404 L 97442,77243 L 96603,78083 L 96183,78503 L 96183,78922 L 95343,79762 L 95343,80601 L 94504,80601 L 93664,80601 L 93664,81021 L 94084,81021 L 93245,81021 L 93245,80182 L 92825,79762 L 92825,79342 L 93245,79762 L 93664,79342 L 93664,78922 L 93245,78922 L 93245,78083 L 92405,77663 L 92405,77243 L 92825,76824 L 92405,76404 L 91565,76824 L 91565,76404 L 91146,76824 L 91146,75564 L 90726,75564 L 90306,75564 L 89886,75564 L 90306,74725 L 90306,74725 L 90306,73466 L 89886,73466 L 89467,73046 L 89886,71787 L 89467,70528 L 89047,70528 z"
    />
  </g><g
   id="g396"
   style="stroke:#646464;stroke-opacity:1"
   transform="matrix(1.0154058,0,0,1.0147339,-1248.7565,-1436.8718)">
   <path
   class = "maps"
   id="path398"
   d="M 99121,109564 L 99541,108724 L 99960,109144 L 100380,108724 L 100380,108304 L 100800,107885 L 101639,108304 L 101639,108304 L 102059,108304 L 102479,108304 L 102899,108304 L 103318,107885 L 103738,108304 L 103738,108304 L 103318,107465 L 103738,106625 L 103318,105786 L 105837,105786 L 105837,107045 L 106257,107045 L 105837,107465 L 105417,108304 L 105837,108724 L 105837,109144 L 105837,109564 L 105417,109983 L 106676,109983 L 107516,109144 L 108775,109983 L 108355,110823 L 109195,110823 L 109195,111242 L 109195,112082 L 104578,113341 L 104158,112921 L 103318,113341 L 102059,114181 L 99960,112082 L 99960,111662 L 99121,110823 L 99121,110403 L 99121,109983 L 99121,109564 z"
    />
  </g><g
   id="g400"
   style="stroke:#646464;stroke-opacity:1"
   transform="matrix(1.0154058,0,0,1.0147339,-1248.7565,-1436.8718)">
   <path
   class = "maps"
   id="path402"
   d="M 149490,71787 L 149490,71787 L 151588,71367 L 152848,70108 L 154107,70528 L 154527,70528 L 155366,71787 L 157045,73046 L 157465,74305 L 152008,75984 L 150329,72626 L 149490,71787 z"
    />
  </g>
 
</svg>