<svg
   xmlns="http://www.w3.org/2000/svg"
   version="1.0"
   id="svg-map"
   width="800"
   height="494"
   viewBox="-119.7 -66.805 1194.094 669.685">
<g
   id="Municípios">
	<path
   class="maps"
   id="path38"
   d="   M1768.846,2373.195l1.358-0.617l0.368-1.477l-0.368-3.323l1.721-1.358l5.052,0.493l8.989-1.23l4.436,0.245l1.97-2.462h1.232   l0.861-0.985l0.74,0.245l0.37-1.354l0.739-0.492l2.708,2.339l1.358,0.373l4.313-1.109l1.476-2.093l1.97-0.866l0.861-1.352   l2.71-0.124l3.079-1.23l1.973,2.587l2.462,1.846l3.819,1.109h3.202l0.74-0.368l0.492-2.587l1.601-1.48l-0.247-2.706l0.617-0.373   l17.124,1.109l-0.249-0.739l0.987-1.726l2.709-1.724l7.143,1.109l2.71-0.369l2.711,0.617l0.741,1.228l1.105,0.493l3.82,0.372   l3.326,1.23h5.54l7.885,2.959l4.805-3.82l16.629,3.941l3.942,0.864l7.391,5.173l12.687-5.049l0.74-2.218l1.109,0.491l0.492,3.08   l-0.984,5.297l3.079,3.203l-2.466,2.587l0.988,0.244l2.83-0.367l1.234,0.74l-0.124,1.106l-1.726-0.368l-3.571,0.985l0.987,0.742   l0.984,3.203l0.988-1.727l1.353,1.234l-0.367,0.984l-2.71,0.125l-3.82,2.707l-2.34-0.86l-1.724,1.109l-1.108,2.586l-2.097-0.861   l-1.724,0.119l-0.121,1.481l-1.357-0.492l-1.352,1.23l1.23,1.109l-2.34,1.108v1.602l-1.357-0.369l0.865-1.601l-1.358-0.373   l-1.721,1.726l-0.371-0.492l-1.602,0.861l-0.369,1.232l-3.447,1.97l-0.865-0.616l-3.697,1.601l-1.477,0.372l-2.462-0.372   l-3.079,1.48l-4.188-1.972v-1.722l-1.357-2.342l-2.094-2.463l-1.231-0.248l-3.078-1.6l-1.725,0.864l-2.957,0.246l-0.492-0.37   l-0.616,0.493l-1.109-1.353l-0.984-0.497l-3.079,2.094l-2.466,0.496l-1.971,1.106l-1.725-0.121l-2.957,1.848l-1.725,0.123   l-0.985,0.985l-1.109-0.124l-3.448,1.849h-5.297l-0.616-0.741l-2.34,1.357h-2.585l-0.494,0.985l-1.849,0.492l-2.463,2.095   l-1.356,2.462l-1.106-0.985l-1.973,2.711l-0.736-0.248l-1.602,2.218l-1.109,0.245l-2.094,2.343l-4.681,1.847l-0.86-0.986   l-0.617,0.372l-1.602-0.989l-6.53,1.357l-1.97,5.297l-1.724,0.124l-2.216-1.482h-2.343l-10.346,10.102l-2.217,0.124l-2.586-2.093   l-3.697-5.053l-4.187-2.215l-2.462,1.601l-1.357,2.095l-3.817,1.97l1.354-2.834l-0.617-2.831l-2.955-2.958l-2.711,0.865   l-2.217-0.617l-1.724-5.174l-1.355-1.849h-3.079l-1.847,1.478l-0.373-0.246l-0.984-1.601l-1.23-0.493l-0.125-3.08l-0.74-1.849   l-3.324-3.448l0.37-0.741l2.709-0.862l-2.095-3.327l0.737-2.094l0.742,0.125l2.217,2.342l4.557,0.368l1.477-0.368l1.969-2.586   l1.234-2.342l-0.617-3.327l0.862-4.925L1768.846,2373.195z"
   />
	<path
   id="path40"
   d="   M1777.471,2418.403l3.816-1.969l1.358-2.096l2.462-1.601l4.188,2.216l3.697,5.052l2.585,2.093l2.218-0.123l10.345-10.103h2.343   l2.215,1.482l1.725-0.125l1.97-5.297l6.531-1.357l1.602,0.988l0.616-0.371l0.861,0.985l4.679-1.846l2.095-2.344l1.109-0.245   l1.602-2.218l0.738,0.248l1.972-2.711l1.107,0.985l1.356-2.462l2.462-2.096l1.849-0.492l0.493-0.984h2.586l2.34-1.358l0.617,0.742   h5.296l3.449-1.85l1.108,0.124l0.985-0.985l1.726-0.124l2.956-1.847l1.726,0.12l1.97-1.105l2.466-0.496l3.078-2.094l0.986,0.496   l1.109,1.353l0.615-0.492l0.494,0.369l2.956-0.245l1.724-0.865l3.079,1.601l1.232,0.247l2.093,2.463l1.357,2.342v1.722l4.188,1.972   l3.078-1.482l2.462,0.373l1.478-0.373l3.696-1.601l0.866,0.616l3.448-1.971l0.367-1.232l1.602-0.861l0.372,0.493l1.722-1.727   l1.357,0.373l-0.864,1.601l1.356,0.369v-1.601l2.34-1.109l-1.23-1.109l1.352-1.23l1.357,0.493l0.12-1.481l1.726-0.121l2.095,0.861   l1.108-2.586l1.726-1.109l2.338,0.86l3.821-2.706l2.711-0.124l0.367-0.984l-1.353-1.235l-0.988,1.727l-0.986-3.203l-0.985-0.742   l3.571-0.985l1.727,0.369l0.124-1.107l-1.234-0.74l-2.83,0.368l-0.99-0.245l2.468-2.587l-3.079-3.202l0.984-5.298l-0.492-3.079   l-1.109-0.492l-0.741,2.218l-12.686,5.049l-7.392-5.172l-3.941-0.865l1.849-1.602l2.829-0.736l1.478,0.492l1.234-0.124l1.601-1.109   l1.846-7.884l-1.353,0.372l-0.617-0.864h-0.736l-0.74,0.864h-1.109l-0.738-0.616l-0.989,1.109l-1.969-1.357l-0.737,0.741   l-0.373-0.492l-0.736,0.492l-0.617-1.478l-0.615,0.493l-0.125-0.373l-0.737,0.125l0.245-1.478l-1.723-0.861l-2.71-4.929   l-0.865-2.586l-2.955-1.97v-1.109l33.012,15.275l73.417,15.152l-0.247,4.313l0.742,3.696l-0.25,3.448l-1.477,2.71l-0.122,3.696   l0.984,2.339v2.094l-0.492,2.466l-1.23,0.861l-0.617,2.094l0.125,1.847l-2.835,7.147l-1.726,2.832l-1.601,1.231l-1.353,4.433   l-3.204,3.695l0.124,3.08l0.737,1.602l1.973-0.369l0.986,3.944l1.108,1.847l3.324,2.218l0.247,1.601l-1.233,8.005l1.109,3.819   l1.234,1.601l0.737,4.189l-3.697-5.174l-1.846,0.37l-1.233,1.108l-2.217-0.369l-4.188,3.697l-3.572,0.736l-3.078,1.849   l-1.847-1.109l-2.958,1.602l-1.846-0.743l-4.064,2.587l-1.974-1.354l-2.708-0.617l-1.601-1.477l-1.849-0.742l-4.926,0.249   l-3.944-1.109l-3.696-3.079l-0.243,0.859l-2.219-3.94l-14.043-0.864l-2.711,2.466l-0.739,1.846l-1.723,1.233l-0.492,1.109   l-1.725-0.248l-0.984-1.602l-4.928-1.353h-2.097l-1.477,1.109l-0.985-1.969l-1.724-0.249l-3.697,0.369l-0.985-1.479l0.369-4.432   l-1.722-0.492l-0.248-5.914l-0.245-0.741l-3.079,1.971l-1.109,1.724l-2.833,0.615l-0.246,1.847l-1.479-0.368l-0.737,1.601   l-3.079,2.462l-2.344,0.616l-3.322,1.851l-0.742,1.109l-2.094-0.615l-1.233,3.447l-0.86,5.666l1.969,6.407l0.493,4.311l1.232,2.462   l-0.74,3.081l0.492,6.898l-0.369,1.109l-1.353,1.602l-5.173,2.585l-2.711,4.681l-2.465,1.601l-0.612,1.725l-0.865,0.861   l-1.477,0.74l-1.971,0.12l-5.913-0.985l-1.231-3.448l-4.314-2.587h-2.216l-1.478,0.738l-4.556,0.492l-7.764-0.613l-13.918,2.586   l-3.697,0.861l-0.985-1.477l-1.849,0.492l-2.833-1.109l-1.476,0.492l-0.373-0.616l-1.478,1.109l-2.462-3.571l-0.741-4.437   l-0.861-1.354l-1.477-0.616l-1.11,0.492l-2.095-0.368l-2.461-1.478l-3.821-0.986l-0.616-0.984v-1.233l-2.831,0.124l-1.85-1.481   l-3.204-3.816l1.108-5.173l-1.601-2.836l0.493-3.94l-2.218-3.079l-1.105-0.741l-0.372-1.601l-1.722-0.861l-1.232-3.328   l-2.344-0.616l1.232-2.954l0.125-2.219l-0.864-4.806l1.232-2.339l-1.726-4.682l-1.968-1.724l-1.478-2.835l-2.342-1.23   L1777.471,2418.403z"
    class="maps" />
	<path
   id="path42"
   d="   M1981.211,2652.078l-0.985-2.095l-1.109-0.369l0.617-0.858l-0.369-1.109l-0.865-0.617l-0.613,0.249l-0.37-1.109l10.1-3.573   l0.492-3.944l0.494-1.353l1.477-1.849l5.789-2.464l9.734-2.711l1.23-1.478l1.601-3.944l1.358-0.736h1.477l1.601-1.478l2.219-6.655   l2.829-3.938l1.85-3.821l1.477-5.79v-4.924l2.34-9.117l1.476-2.34l3.327-2.959l0.369-1.109l-0.494-3.695l-3.571-4.805l-2.095-5.786   l-0.243-5.177l-0.865-2.955l-1.721-2.463l-2.096-0.865l-5.295,0.373l-3.946-1.109l1.11-1.233l1.476,0.247l1.234-0.864l0.492-1.106   l3.45-2.095l0.615-2.342l3.697-4.063l1.724-0.743l0.985-1.228l0.616,0.12l1.847-0.616l3.077-3.2l0.374-1.233l2.213-1.109   l0.99,0.124l0.368-0.984l1.353,0.12l1.476-1.846l1.974-0.987l1.97,1.109l3.697,0.493l1.108,0.861l1.23-0.861l0.615,1.724h0.987   v1.107l1.724-0.369l0.86,1.232l0.742-0.491l1.232,0.245l0.988,0.984l2.093,0.741l0.988-0.985l0.492,0.245v1.357l1.354-0.493   l1.724,0.985l0.368-0.742l1.849,0.373l0.738,0.738l-0.245-1.353l2.219-0.249l0.613-0.616l-0.245-1.723l1.478-0.124l0.125,1.354   l0.617,0.124l2.586-2.218l0.244-2.586l2.344-1.354l-0.492-0.616l0.367-1.233l1.235,0.124l0.244-1.354h1.726l0.368-0.985   l1.109-0.248l0.247-1.109l0.862,0.124l-0.741-0.985l0.124-1.97h0.742l0.736,1.229l0.985-0.492l1.482,0.248v-1.726l1.353-0.248   l0.986,0.372l0.368-0.372l-1.105-1.479v-1.109l1.722-0.245l1.602,1.235l1.477-1.726l1.357,0.369l1.109-1.602l2.34,0.367   l0.123-0.612l-1.109-1.482l1.971-1.97l0.863,0.741l-0.247,1.23l0.367,0.123l0.989-0.615l-0.247-1.847l3.078-1.353l1.233,0.494   l1.354-1.482h1.724l-0.492,2.585l0.243,0.741l0.125,0.861l-0.616,0.988l0.865,1.598l0.12,2.095h0.616l0.741,0.988l0.492,4.432   l-2.218,0.741l-1.6,1.969l-1.231,0.369l-1.109,2.343l0.245,0.737l-1.848,1.849l-0.741,2.339l-1.6,1.849l-1.109,0.493l-0.862,0.985   l-0.123,3.203l0.615,1.354l-0.739,2.959l0.616,0.612l0.616,1.481l2.095,1.721l0.124,1.109l1.477,0.373l0.493,0.861h1.109   l1.845,1.109l0.99-0.617l1.721,0.617l0.492-0.865l0.741-0.121l0.985,1.354l0.492-0.123l-0.616,2.466l-0.985-0.864v0.74   l-0.615-0.248l-0.125,1.478l-1.105-0.12l-0.249,0.492h-0.736l-1.851,2.339l0.987,1.109l-0.37,0.616l0.37,1.109l-0.987-0.124   l-0.243,0.742l-1.358,0.615l0.987,1.478l-0.861,0.367v1.971l-1.602-0.124v1.85l-0.616,0.123l0.369,0.986l-0.986,1.97l0.124,1.234   l1.233,1.108l0.246,1.105l-0.862,1.481l-1.233-0.123l-0.984,1.108l0.859,0.739l-0.737,0.492l1.11,0.985l-0.865-0.12l-0.245,0.492   h0.737l-0.12,2.831l-1.356,0.373l0.864,0.367l-0.125,0.493l0.862,0.984l-1.109-0.12l-0.613,1.357l-0.372-0.249l-1.477,1.231   l0.369,1.478l0.493,0.367l0.615-0.367l-0.368,1.109l0.492,0.862l-0.985,2.584l0.367,0.742l1.234,0.249l-0.125,0.491l-0.617-0.249   l-0.368,0.617l-1.602,0.491l0.492,0.369l-0.74,1.357l-0.244-1.233l-0.741-0.124l-0.12,1.233l-0.741-0.247l-0.368,0.617l0.984,0.491   l-0.863,1.357l-0.494,3.08l-0.612,0.12v-0.738l-1.109,0.365l0.245,1.357l-1.97,0.371l-0.249,1.233h-0.985l-0.369,0.61l-0.74-0.119   l-1.104,1.229l-0.866-0.369l0.125,0.493l-0.861,0.367l0.369,1.357l0.616,0.369l-0.494,3.326l-0.615-0.371l-0.616,0.491l0.123,0.864   l-1.357,0.369l-0.612,2.095l-0.125,3.08l-1.11,1.109l-0.86,4.187l1.23,1.357l0.248,6.282l-0.864,0.371l-0.862,2.218l-0.617-0.124   l-0.122,1.229l-1.477-0.245l-1.602,2.955l-0.245-0.12l-1.108,1.353l-1.354,0.491l-0.615,1.109l-0.492-0.122l-0.373,1.357   l-1.847,0.986l-0.247,2.338l0.371,1.85l-2.217,1.109l0.617,1.352l-0.741,1.971l0.367,1.478l-2.338,3.819l-0.249,1.724l-1.231,0.245   l-0.372,1.975l-0.737,1.72l-1.97,1.109l-1.356,3.204l-3.077,1.602l-1.971,2.829l-3.571,2.959l-1.974,2.956v1.724l-0.611,0.493   l-2.587-1.602l-3.82,1.847l-2.955,0.25l-2.095,1.109l-2.96,3.938h-4.431l-7.638-1.354l-4.681,2.34l-2.586,5.546l-4.313-2.713   l-4.065-1.352h-1.97l-1.968-1.85l-1.603-0.124l-0.985,0.742l-1.234-1.971l-2.711-0.615l-0.367-1.111l1.354-2.584l-0.245-2.095   l1.969-3.571l-0.124-2.342l1.109-2.955l-2.217-2.586l1.108-4.188l-0.985-0.615l-1.846,0.74l-2.711-2.342l0.738-9.608l-2.095-0.864   l-2.956,1.478L1981.211,2652.078z"
   class="maps" />
	<path
   id="path44"
   d="   M1751.108,2268.615l9.362,5.052l136.607,60.974v1.109l2.955,1.97l0.866,2.586l2.709,4.929l1.723,0.861l-0.244,1.477l0.736-0.123   l0.125,0.373l0.616-0.493l0.616,1.478l0.736-0.492l0.373,0.492l0.737-0.742l1.969,1.357l0.99-1.108l0.738,0.616h1.109l0.74-0.865   h0.736l0.616,0.865l1.354-0.373l-1.847,7.884l-1.6,1.109l-1.234,0.123l-1.478-0.492l-2.83,0.736l-1.849,1.602l-16.629-3.94   l-4.805,3.82l-7.885-2.958h-5.541l-3.325-1.231l-3.821-0.372l-1.104-0.493l-0.741-1.228l-2.711-0.617l-2.71,0.369l-7.144-1.109   l-2.71,1.724l-0.985,1.726l0.249,0.739l-17.124-1.109l-0.617,0.372l0.247,2.707l-1.601,1.481l-0.492,2.586l-0.741,0.368h-3.201   l-3.819-1.109l-2.462-1.847l-1.974-2.585l-3.078,1.229l-2.71,0.124l-0.861,1.353l-1.97,0.865l-1.477,2.093l-4.313,1.109   l-1.357-0.373l-2.708-2.338l-0.739,0.491l-0.37,1.354l-0.74-0.246l-0.861,0.986h-1.233l-1.969,2.462l-4.436-0.245l-8.989,1.23   l-5.053-0.493l-1.72,1.358l0.367,3.323l-0.367,1.478l-1.358,0.616l-1.478-1.354l-5.542-3.328l-1.232-1.354l-7.267-1.724   l-4.436-0.245l-1.354-0.866l-3.202-6.282l-2.836,0.124l-3.571-3.449l-0.492-3.82l-3.204-0.984l-3.697-2.587l-5.666-6.531   l-2.339-0.124l-1.108-4.802l0.367-0.741h2.955l3.328-0.861l2.344-5.052l0.611-2.587l1.482-1.97l-1.232-2.095l-0.617-4.555   l-2.096-2.712l-3.571-7.267l0.617-2.095l0.736-0.249l1.234,0.249l1.109,2.218l1.232-1.357l0.737-0.124l3.452,4.188l6.158,0.124   l1.602-1.601l1.109-3.448l3.571-1.601l1.97-0.248l3.82,1.111l3.571-1.723l0.985,0.121l0.742,0.985l-0.742,1.481l1.234-0.124   l6.035-2.957l2.71-3.817v-1.85l-2.462-3.939l0.244-5.298l-1.602-2.096l-3.202-1.724l-1.354-1.353l-0.861-4.805l-2.591-2.339   l-0.367-1.725l-2.34-1.97l0.122-1.481L1751.108,2268.615z"
   class="maps" />
	<path
   id="path46"
   d="   M1848.298,2623.87l3.204-0.493l1.357-2.464l1.722-1.233l1.477-2.46l4.313-1.109v-0.986l-1.603-2.093l-0.121-1.109l2.34-1.849   l3.204-5.051l3.078-1.604l1.726,1.604l0.861,0.122l2.834-1.478l0.368-1.235l2.095-0.736l0.617-1.851l1.23-0.86l0.123-0.616   l-3.202-1.604l-0.37-1.109l2.219-1.969l4.431-1.724l2.586-2.464l2.343-5.421l-0.617-3.323l0.986-2.71l-0.492-2.219l-0.37-3.326   l-1.477-2.339l0.244-1.109l1.357-0.742l0.737-2.831l-3.94-1.233l-3.571-9.236l-3.205-1.233l-1.724,0.124l-0.124-3.204l0.741-1.109   l1.721-0.244l1.725,0.367l3.204-5.298l2.343-1.6l2.461,0.74l1.847-0.984l0.865-1.233l1.847-0.368l0.123,0.613l0.494-0.246   l5.54,0.124l0.741-1.601l-0.248-1.357l1.849-1.969l-0.247-0.493l1.109-0.368v-0.741l1.232-0.737l0.368,0.861l13.429-19.462   l1.477,2.586l2.217,0.247l0.862,0.736l1.477,8.75l1.85,0.861l1.846,0.123l1.108,1.848l1.846,0.984l3.82-0.121l5.914-1.233   l4.681,1.354l2.831-0.121l1.358,0.861l1.846-0.986l0.617-0.864v-0.984l1.233-0.987l3.816,0.987l0.493,1.476l4.313-0.737   l4.559,1.354l2.341-0.246l1.848,0.736l2.215-1.229l1.232-2.343l2.956,0.741l2.587,0.124l3.575,1.23l2.095-0.246l5.417,0.985   l7.392-6.281v-7.392l3.205-2.093l2.461,0.125l3.205,1.228l0.615,2.343l3.326,0.244l1.846-0.613l4.187,1.847l0.617,1.725   l-1.477,4.188v1.97l1.23,1.847l2.216,1.234l4.681,4.928l1.356,2.586l-0.615,2.216l-2.587,2.466l-3.696,2.218l-6.162,6.158   l-1.353,2.093l0.124,0.861l1.353,0.124l3.945,1.109l5.296-0.373l2.095,0.866l1.72,2.462l0.866,2.954l0.243,5.178l2.095,5.786   l3.571,4.804l0.492,3.696l-0.367,1.109l-3.328,2.959l-1.475,2.34l-2.34,9.117v4.924l-1.477,5.79l-1.851,3.822l-2.829,3.938   l-2.219,6.655l-1.6,1.48h-1.477l-1.359,0.736l-1.6,3.944l-1.23,1.476l-9.734,2.711l-5.79,2.464l-1.477,1.851l-0.493,1.352   l-0.492,3.946l-10.101,3.571l0.371,1.109l0.613-0.247l0.865,0.614l0.367,1.109l-0.616,0.86l1.109,0.371l0.985,2.093l-0.369,0.617   l-1.477,0.491l-0.125,0.617h-0.985l-2.462-2.342l-0.248-1.357l-1.108-0.121l0.739-1.107l-0.492,0.12l0.245-1.476l-1.354-0.367   l-1.232-1.235l-0.862,0.25l-0.492-1.113l-0.616-0.12l-0.494,0.86h-0.985l-1.726-1.231h-0.984l-1.726-1.602l-0.737,0.86   l-0.865,0.124l-0.492-0.493l-0.737,0.618l-0.124-0.373l-1.232-0.245v0.618l-0.737-0.373l-0.25-0.86l-0.367,0.86l-0.74-0.245   l-0.617,0.245l-0.245,0.864l-0.617,0.245l-2.709-0.86l-0.737,0.491l-0.988-0.858l-0.247,0.491l-0.124-0.616l-4.064,1.233   l-0.245,0.736l-1.849-1.353l0.248-0.616l-0.373,0.247l-0.367-0.986l-0.617,0.249l-0.245-0.986l-0.372,0.493l-0.611-1.109   l-0.498,0.367l-0.86-0.245l-0.244,0.493l-0.373-0.493l-0.616,1.111v-1.482l-0.984,0.249v-0.86l-1.479,0.86l-0.123-1.478   l-0.986,0.74l-1.354-0.862l-0.617,0.367l-2.216-0.614l-0.122-0.616l-1.482,0.616l-0.492-1.231l-0.617,0.124l-0.245-0.497   l-1.108,0.373l-1.232-0.493l0.248,0.243l-0.617,0.493l-1.108-0.243l-0.245,0.86l-0.492-0.124l0.121-0.612l-0.737,0.243   l-1.232-0.984l0.247-0.615l-1.601,0.249l-0.741-0.987l-0.616,0.12v0.616l-0.613-0.493l-0.864,0.742l0.125-0.985l-0.741,0.243   l0.248-0.862l-0.859,0.619l-1.234-0.619l-1.11-1.6l0.493-0.493l-0.245-0.617l-0.74-0.491l-72.309,0.245v-0.614l2.711-1.973   l0.368-3.816l0.741-1.726L1848.298,2623.87z"
   class="maps" />
	<path
   id="path48"
   d="   M1828.59,2483.938l13.917-2.587l7.764,0.613l4.556-0.492l1.478-0.738h2.218l4.312,2.586l1.231,3.448l5.915,0.986l1.969-0.12   l1.477-0.741l0.865-0.861l0.612-1.724l2.467-1.602l2.711-4.68l5.172-2.586l1.354-1.601l0.367-1.109l-0.492-6.899l0.74-3.08   l-1.232-2.463l-0.492-4.311l-1.97-6.407l0.862-5.665l1.232-3.449l2.093,0.617l0.742-1.109l3.324-1.85l2.342-0.616l3.079-2.462   l0.737-1.602l1.481,0.368l0.244-1.847l2.834-0.615l1.108-1.726l3.079-1.969l0.245,0.74l0.249,5.915l1.721,0.492l-0.369,4.432   l0.985,1.479l3.697-0.368l1.726,0.247l0.985,1.971l1.477-1.109h2.095l4.929,1.354l0.984,1.601l1.725,0.248l0.492-1.109l1.724-1.232   l0.739-1.847l2.71-2.467l14.043,0.865l2.219,3.941l0.243-0.86l3.696,3.079l3.945,1.109l4.925-0.249l1.849,0.741l1.601,1.478   l2.708,0.616l1.974,1.354l4.064-2.586l1.847,0.742l2.958-1.602l1.847,1.109l3.078-1.849l3.572-0.736l4.188-3.696l2.217,0.368   l1.233-1.109l1.846-0.368l3.697,5.174l-1.97,12.812l-4.43,11.949l-0.865,9.238l3.203,10.226l0.742,8.496l1.601,3.452l-0.865,5.79   l0.616,2.216l1.602,1.6l-0.616,4.561l-2.463-0.126l-3.203,2.094v7.391l-7.392,6.283l-5.417-0.985l-2.097,0.245l-3.574-1.23   l-2.586-0.123l-2.955-0.743l-1.234,2.344l-2.213,1.229l-1.85-0.736l-2.339,0.245l-4.56-1.354l-4.314,0.737l-0.492-1.477   l-3.817-0.985l-1.232,0.985v0.984l-0.617,0.865l-1.846,0.985l-1.357-0.861l-2.832,0.122l-4.68-1.354l-5.913,1.233l-3.82,0.122   l-1.847-0.985l-1.108-1.847l-1.848-0.124l-1.849-0.861l-1.478-8.749l-0.86-0.737l-2.218-0.248l-1.478-2.586l-13.429,19.463   l-0.367-0.861l-1.233,0.737v0.741l-1.109,0.368l0.249,0.493l-1.851,1.97l0.249,1.355l-0.741,1.602l-5.542-0.124l-0.492,0.245   l-0.124-0.612l-1.846,0.368l-0.866,1.233l-1.846,0.984l-2.462-0.741l-2.343,1.601l-3.205,5.298l-1.724-0.368l-1.722,0.244   l-0.74,1.109l-0.737,2.587l-1.109,0.985l-1.85-2.094l-1.476-4.063l-0.245-2.095l-0.989-1.478l-0.121-2.218l-1.478-0.123   l-2.589-3.448l-0.244-4.557l-2.462-2.959l-1.234-6.525l-1.478-2.835l-1.724-1.354l-2.218-2.958l-1.97,0.741l-2.957-1.478   l-2.709,1.229l-1.602-0.246l-1.352-1.233h-0.866l-1.231-1.847h-1.481l-1.721-1.97v-3.203l-0.741-0.863l-1.233,0.863l0.124-2.217   l-1.353-0.742l-2.462,0.742l-0.617-3.696l0.617-1.726l0.737-3.941l-1.6-8.133L1828.59,2483.938z"
   class="maps" />
	<path
   id="path50"
   d="   M2009.544,2694.209l2.585-5.548l4.681-2.338l7.639,1.353h4.432l2.96-3.94l2.095-1.109l2.955-0.249l3.819-1.847l2.587,1.604   l0.612-0.495v-1.724l1.974-2.955l3.571-2.957l1.97-2.831l3.078-1.602l1.356-3.204l1.97-1.109l0.737-1.72l0.372-1.975l1.231-0.243   l0.248-1.726l2.339-3.82l-0.367-1.478l0.74-1.971l-0.616-1.354l2.217-1.109l-0.372-1.849l0.247-2.34l1.847-0.984l0.373-1.357   l0.492,0.122l0.616-1.107l1.353-0.493l1.109-1.354l0.245,0.122l1.602-2.957l1.477,0.245l0.122-1.229l0.617,0.124l0.861-2.218   l0.865-0.369l-0.248-6.283l-1.231-1.357l0.861-4.187l1.11-1.109l0.124-3.08l0.613-2.095l1.356-0.369l-0.122-0.864l0.616-0.491   l0.615,0.371l0.493-3.326l-0.615-0.367l-0.37-1.359l0.862-0.367l-0.125-0.493l0.865,0.369l1.105-1.229l0.74,0.118l0.369-0.612   h0.984l0.249-1.231l1.97-0.369l-0.245-1.357l1.109-0.369v0.742l0.612-0.122l0.494-3.08l0.863-1.357l-0.985-0.493l0.367-0.615   l0.741,0.249l0.12-1.233l0.742,0.124l0.244,1.233l0.74-1.357l-0.492-0.371l1.602-0.493l0.368-0.616l0.617,0.249l0.124-0.491   l-1.233-0.25l-0.367-0.74l0.985-2.586l-0.492-0.86l0.368-1.109l-0.615,0.367l-0.494-0.367l-0.368-1.478l1.477-1.231l0.372,0.249   l0.613-1.357l1.109,0.122l-0.862-0.984l0.125-0.495l-0.864-0.367l1.356-0.371l0.12-2.833h-0.737l0.245-0.492l0.865,0.119   l-1.11-0.984l0.737-0.493l-0.859-0.737l0.984-1.109l1.233,0.124l0.862-1.482l-0.246-1.106l-1.234-1.109l-0.125-1.233l0.987-1.97   l-0.37-0.985l0.617-0.124v-1.85l1.603,0.124v-1.971l0.86-0.367l-0.985-1.478l1.358-0.615l0.243-0.742l0.986,0.124l-0.369-1.109   l0.369-0.615l-0.986-1.109l1.851-2.339h0.736l0.249-0.493l1.105,0.121l0.124-1.478l0.616,0.248v-0.74l0.985,0.863l0.616-2.466   l-0.492,0.123l-0.985-1.353l-0.741,0.12l-0.492,0.865l-1.722-0.616l-0.99,0.616l-1.845-1.109h-1.109l-0.493-0.861l-1.477-0.373   l-0.124-1.109l-2.095-1.721l-0.617-1.481l-0.615-0.612l0.739-2.959l-0.615-1.354l0.123-3.202l0.862-0.985l1.108-0.492l1.601-1.849   l0.741-2.339l1.846-1.85l-0.244-0.737l1.109-2.342l1.23-0.37l1.601-1.969l2.218-0.74l-0.492-4.433l-0.741-0.989h-0.617   l-0.119-2.095l-0.866-1.598l0.617-0.988l-0.125-0.861l1.235,0.248l0.125,0.613h0.492l0.244,3.451l1.975,1.109l0.736,0.119   l1.109-0.86l1.845,0.123l1.109-0.859h1.601l1.11,0.736l1.969,5.421l-0.985,2.462l0.25,1.109l-0.495,1.353l-0.863,0.742   l-0.121,1.724l0.738,1.723l-1.603,3.575l2.711,0.492l0.125,1.602l2.709,0.985l-0.122,1.478l1.231,1.354l-0.248,0.985l1.478,0.743   l-0.125,1.233l1.234,1.478l0.615-0.492l0.86,1.72l0.987-1.353l0.988,0.492l0.862-0.615l1.601,0.123l0.738,1.725l1.6-0.492   l-0.367,1.601l1.234-0.617v0.738l1.847-1.478l-0.245-0.984h1.108l0.245-0.86l1.108,0.492l0.741-1.726l0.987,0.249v0.613h1.108   l-0.495-1.229l1.601-0.373l-0.245,0.865l1.233-0.493l0.368-1.849l0.861,1.601l1.357-1.354l0.245-1.109l0.74,0.245l-0.123-1.106   l0.615-0.248l0.244,0.861l1.233-0.737l0.987,1.476l0.492-0.984l1.232-0.986l-0.864,2.094l0.99-0.492l0.737,0.368l0.616-0.984   l1.846,1.724l0.864-0.74l-0.372-1.478l0.617-1.109l1.475,0.741l0.25-2.71l0.86,0.492l0.617-1.478l2.218-0.741l0.492-0.74   l0.617-0.121l1.229,1.354l0.249-2.095l1.235-1.97h0.611l2.095,1.354l0.866-0.861l0.86,0.124l0.123-1.357l1.354-0.862l1.602,0.738   l-0.493-0.86l0.986-0.86l0.372-1.358l0.613,1.358l2.094-1.233l0.492,0.491l-0.121,1.233l1.353-2.093l0.862-0.124l1.107,0.742   l0.494,1.97v-1.233l0.74-0.617l-0.617-0.984l-0.737-0.369l0.245-0.617l0.617-0.245l0.492,0.738l1.477-0.738l0.615,0.614l0.742-0.12   l0.245-0.616l-0.738-0.616v-1.109l1.478-0.861h0.985l0.617-1.234l1.23,0.741l0.741-2.343l1.969,1.356l-0.493-1.601l1.603-0.25   l-0.615-2.217l0.247-0.985l-0.741-1.229l0.494-0.248l0.863,0.986l0.737-0.986l0.741-0.123l0.245-0.862l0.739-0.124v-0.985   l1.847-0.737l-0.244-2.466l1.721-0.493v-0.736l0.741,1.354l0.492-1.233l-0.124-1.477l1.725-1.722l1.354,0.368l-0.494-0.615   l0.25-0.985l0.985-0.741l0.492,0.248l0.37-1.356l1.6-0.985l-0.368-0.985l0.86,0.368v-1.106l1.234,0.119l-0.368-0.492l-1.478-0.12   l0.492-0.989l-0.492-0.86l2.587-1.477l1.6,0.737l-1.356-2.214l1.477-0.985l0.249-3.328l1.233-0.368l-0.123-0.743l2.094,0.617   l1.109-0.369l-0.617-1.109l-0.367,0.12l-0.125,0.74h-0.617l0.245-1.726l-1.23,0.493l-0.367-0.738l2.586-1.85l1.105,0.741   l0.372-0.248l0.737-2.093l-1.229-3.079l1.229-0.985h1.234l-0.124-1.109l1.85-0.985l-0.617-2.711l2.587-0.737l2.589,0.492   l-0.249-1.478l0.865-1.974l0.616-0.244l-0.616-0.742l-0.248-2.585h0.864v-1.109l0.613-0.86l1.974-0.616l0.368,0.985l31.534-23.527   l1.23-0.245l0.985-1.109l0.125-0.742l-1.478-0.86l-1.11-1.478l2.219-3.944l1.6-1.601l-3.326-7.143l0.249-3.326l32.272,7.267   l95.095,51.367l32.52,17.738l-3.696,9.485l-1.23,0.865l-1.108,0.12l-0.741,2.835l-1.231,1.846l-3.204,2.095l-0.492,2.094   l-1.108,0.616h-1.85l-1.97-0.737l-2.095-3.328l-0.617,3.328l-3.322,4.309l-2.711,2.342l-0.125,1.602l-1.109,1.847l-1.6-0.245   l-4.433,3.939l0.613,6.161l-5.542,3.201l-0.617,0.988l0.492,2.094l-0.367,0.737h-1.602l-1.109,0.616l-2.462,5.541l-0.617,4.437   l-6.282,9.114l3.697,3.327l0.492,1.725l1.97,1.11l-0.123,1.478l-2.342-0.493l-0.368-0.615l-26.238-14.412l-2.462,0.861   l-4.313,4.432l-3.202,1.481h-4.312l-2.831-1.849l-2.711,0.861l-2.834,1.974l-0.739-0.123l-0.371,0.616l0.124,0.985l-0.862,1.109   l-1.475,0.125l-1.235,1.597l-0.986,0.373l-0.865-1.109l-0.612,0.246l-0.373,1.481l-2.83-0.249l-1.849-0.86l-2.831-4.681   l-2.094,1.354l-4.312-1.354l-1.602-1.973l-2.344,1.231l-2.708,0.249l-1.601-1.482l-2.958,0.741l-0.986,1.478l-1.477,0.368   l-2.955,3.945l1.476,2.093l-1.232,1.602l-3.327,1.726l-2.215,5.174l-1.357,1.846l-2.586,1.108l-4.433-0.124l-3.328,1.975   l-3.447,8.004l-3.571,3.82l-3.452,5.542l-4.187,4.68l-2.955,1.481l-0.617,1.231l0.367,4.435l-1.107,5.913l-0.739,1.233l0.739,2.093   l-0.368,1.233l-2.957,1.476l-3.326-0.86l-3.078,0.12l-1.353,0.864l-2.096,4.682l-3.202,1.845l-4.313,0.495l-4.065,4.311   l-4.68-0.243l-2.711,1.476l-0.74-1.357h-0.86l-2.836,2.219l-1.969,2.342l-0.493,1.845l1.11,0.74v0.862l-1.97,0.987l-4.561,0.86   l-0.985,0.742l-2.341,3.944l-2.586,1.105l-0.248,0.74l0.861,1.971l-1.228,1.726l-0.37,1.969l-0.496,0.615l-2.213,0.369   l-2.711,3.944l-1.109,0.617l-0.249,1.227l-0.86,0.493l-2.462-1.476l-4.065,8.746v1.357l-3.942,3.078l1.356,2.34l0.12,1.357   l-0.492,0.86l-3.204,0.742l-1.231,1.229l0.122,1.602l1.724,3.204l0.249,3.571l-2.711,2.835l-0.123,5.297l-5.79,1.602l-2.832,2.097   l-0.492,1.352l-0.987,0.615l-1.478,4.682l-1.23,0.984l-0.741,2.346l-1.848,1.353l-0.739,3.078l-2.588,0.493l-3.078-1.229   l-0.987,0.245l-0.864,2.342h-1.969l-5.666,2.219l-1.602-0.124l-3.328-3.08l-1.477,0.122l-0.737,0.615l-0.249,1.849l-0.368,0.119   l-1.109-0.612l-1.727,2.462l-128.724-0.124l0.125-1.969l2.836-1.354l1.476-1.85l-0.865-2.338l0.125-1.602l-2.339-0.864   l-0.248-1.355l0.986-1.969l2.094-1.479l1.109-2.34l1.726-1.233l-2.711-3.695v-3.817l-1.234-0.491l-0.243-0.742l0.492-1.233   l2.462-2.462L2009.544,2694.209z"
   class="maps" />
	<path
   id="path52"
   d="   M2172.265,2702.583l0.123-5.295l2.711-2.835l-0.248-3.571l-1.725-3.204l-0.122-1.602l1.231-1.231l3.204-0.74l0.492-0.86   l-0.12-1.357l-1.356-2.34l3.942-3.078v-1.357l4.065-8.748l2.462,1.478l0.861-0.493l0.248-1.229l1.109-0.616l2.71-3.946l2.214-0.367   l0.496-0.617l0.369-1.967l1.229-1.728l-0.862-1.969l0.249-0.742l2.586-1.105l2.339-3.942l0.986-0.744l4.561-0.86l1.97-0.984v-0.862   l-1.11-0.74l0.493-1.847l1.969-2.342l2.836-2.218h0.859l0.742,1.357l2.71-1.478l4.68,0.245l4.065-4.313l4.313-0.493l3.202-1.847   l2.095-4.682l1.354-0.864l3.078-0.119l3.326,0.86l2.956-1.478l0.367-1.231l-0.737-2.095l0.737-1.233l1.109-5.911l-0.367-4.435   l0.617-1.231l2.955-1.481l4.187-4.682l3.452-5.542l3.571-3.817l3.447-8.006l3.328-1.973l4.432,0.124l2.586-1.108l1.357-1.848   l2.215-5.173l3.326-1.726l1.233-1.602l-1.476-2.093l2.955-3.944l1.476-0.369l0.987-1.478l2.959-0.741l1.6,1.481l2.708-0.248   l2.344-1.233l1.602,1.974l4.312,1.354l2.094-1.354l2.832,4.68l1.849,0.861l2.831,0.248l0.37-1.482l0.615-0.245l0.863,1.109   l0.986-0.373l1.234-1.597l1.476-0.126l0.862-1.108l-0.124-0.985l0.371-0.615l0.738,0.124l2.834-1.975l2.71-0.861l2.831,1.849h4.313   l3.203-1.481l4.313-4.432l2.461-0.861l26.239,14.411l0.368,0.615l2.343,0.493l0.614,3.819l2.093,2.955l0.125,2.463l2.955,1.85   l-2.955,4.68l-1.228,0.736l-1.358,0.124l-0.616-1.109l-1.48-0.365l-0.615,0.74l0.493,1.229l2.709,0.373l-0.492,1.353h-1.725   l0.247,2.095l-1.476,0.74l0.244,3.078l-1.109-0.738l-1.97,1.476l-0.615-0.245l-0.737,0.491l-0.249,1.971l-1.477-0.491l-1.108,0.984   l-1.229-1.353l-0.742,1.109l0.617,0.736l1.722,0.126l0.864,0.736l-0.741,0.99l-1.969-0.99l-0.493,2.346l-1.109,0.367l-1.845-0.987   l-1.109,0.369l-2.094-0.121l-1.477-0.986l-1.974,0.614l-2.829,2.959l-3.572-0.617l-0.124,0.744l-0.741,0.243l0.248,0.86h-0.74   l-0.369,1.604l-0.985,0.984l-0.125-0.493l-0.248,0.373v-0.493l-0.369,0.12l-0.123,0.985l-0.86,0.615l-0.37-0.367l-0.985,0.493   l-2.466-0.124l-1.477-0.736l-1.233,0.243v-0.615h-0.738l-0.369-0.493l-0.371,0.493l-0.494-0.367l-2.217,0.491l-1.354,1.357   l-0.243-0.742l-1.482-0.491l-2.461,0.491l-1.109-2.338l-1.726-0.742l-0.493,0.742h-3.198l-1.11,0.86l-2.71,0.615l-1.235,1.971   l-2.588,1.233l-1.969,2.462l-1.726-0.124l-0.861,0.369l-1.234,3.448l-3.697-0.491l-0.615,0.86l0.248,3.822l-2.343,1.6l-0.986,1.849   l-2.094,1.6l-0.369,1.724l0.616,3.204l0.861,0.369l1.602-0.862l0.742-0.986l1.477-0.615l0.738,0.369l0.614-0.862l2.466,1.478   l2.464-1.109l2.217,0.122l4.064,2.955l3.328,0.493l1.105,1.109l1.974-0.247l1.229,2.342l2.834,2.712l0.493,1.6l1.109,0.617   l2.217-0.124l1.23-1.969l0.617,0.736l1.233-0.86l2.34,0.738l3.204,2.342l0.248,0.493l-0.492,0.493l0.737,0.86l2.344,0.373   l3.448,2.71l-0.492,1.107l-0.492-0.74l-0.494,0.493l-0.86-0.86l-2.095,0.736l-0.492-0.984l-1.601,1.109l-0.248,1.355l-0.986,0.249   l-0.74-0.742l-0.738,0.122l-1.232-0.74l-0.367,1.231l-1.234-0.985l-0.37,0.493l0.37,1.109l-2.095-1.233l-1.48,0.984l-0.616,0.744   l0.369,0.984l-0.738,0.367l-0.368,1.109l-0.989-1.227l-1.721,1.969l0.124,0.862l-0.741,0.615v0.984l-1.97,0.249l-0.862,2.214   l-1.232,0.495v0.862l0.737,0.738l-0.119,0.617l-1.11,0.616l0.37,1.233l-1.354-0.25l-0.989,0.618l-0.245-0.618l-1.354,1.604   l-0.125,1.233l-0.862,1.354l-0.862,0.249l0.369,1.229l-0.494-0.245l-1.6,1.847l-0.988-0.493l0.25,1.971l-0.617-0.493l-0.247,0.864   l-1.602,0.122l-1.231,1.6v0.617l-1.357,1.231l0.616,0.74l-0.737,0.122v0.864l-1.233,0.738l-0.74-0.369l-0.495,0.245l0.618,0.742   l-0.74,0.86h-0.738l0.245,1.233l-0.738,1.354l-0.741-0.369l-2.955,1.971l-0.25,2.466l-0.492,0.369l-0.615,2.093l0.37,2.462   l-3.819,2.711v0.617l-0.74,0.491l-0.245,1.355l-1.849,1.481l-0.368,1.352l-0.987,0.495l0.124,0.491l-1.477,0.86l-3.697,4.312   l-3.203,2.219l-2.218,5.049l-3.938,2.957l-2.219-0.249l-3.078,1.851l-0.493,1.478l-3.82,4.68l-2.833,2.34l-2.462-0.493   l-1.478,0.987l-0.741,1.848l-6.404,6.157l0.494-18.229l-0.125-22.175l0.985-0.86l1.109-2.344l1.601-0.367l1.23,0.615l0.865-3.08   l0.984-0.984l2.955,1.6l2.219-1.6l1.725-2.218l-0.493-2.588l0.86-0.367l-0.122-1.973l1.109-1.478l-0.37-0.615l0.617-0.86   l-0.864-0.248l-2.094-5.295l-0.739-0.249l-0.739-1.476l-2.096-0.247l-1.353-1.971v-0.738l-1.477-1.602l-2.095-5.175l1.23-0.988   l0.74-1.721l-0.123-0.617h-0.862l0.738-0.615l0.125-1.602l-2.34-1.233l0.368-1.72l1.726-0.866l0.493,0.742l-0.99,2.095l0.99,0.124   l1.477-0.617l2.095,1.848l0.859-0.367l0.249-0.617l-0.492-1.478l-1.602-0.493l-0.248-0.86l0.861-1.724l-0.987-1.233l0.987-0.369   l0.989,1.109l2.462,0.124l0.617-0.491l-0.125-0.742l-1.109-0.369l0.125-2.34l2.094,0.371l0.125-1.975l1.601,0.373l1.353-2.095   l1.109,2.214l0.369-1.6l-2.462-2.831l-0.742-2.586l0.986-0.74l0.866,1.476l1.229-0.491l-1.108-2.342l1.232-0.371l1.234-0.738   l0.243-2.093h-1.109l-0.859-0.742l-2.218,0.984l0.125,0.866l-0.742,0.367l-0.367-0.126l0.247-1.354l-1.972,1.602v-0.862   l-1.477-0.74l-0.369,1.111h-1.233l-0.612-0.866l-0.497,0.743l-0.12-0.371l-0.74,0.247l0.125,0.985l-0.861-0.612l-1.974,1.847   l-0.122-0.617l-0.988-0.124l-0.244,2.588l-1.357-0.118l-0.369,0.365l-0.367-0.615l-0.369,0.25v1.476l-0.617,0.369v0.862   l-1.108-0.614l-0.368,1.227l-0.99,0.249l-0.12,0.862l-0.617,0.371l0.86,0.86l-0.737,0.122l-0.124,0.987l-1.357-0.616l0.497,0.616   h-1.726l0.125,1.971l-0.373,0.249l-0.244-0.497l-0.248,0.497l0.492,0.493l-0.737-0.124l-0.74,1.231l-0.369-0.864l-1.108,1.359   l-1.109,0.245l0.125,0.742l-1.357-0.249l-2.216,1.969l-0.493-0.367l-1.479,0.615l-0.493,1.235l-1.353,0.243l0.616,0.493v0.615   l-1.11,0.985l-1.356-1.602l-0.612-0.122l-0.495,0.74l-0.862-0.367l-0.738,1.229l0.861,0.249l-0.74,0.738l0.123,0.742l-0.738-0.124   l0.369,0.616l-0.617,0.367l0.74,1.109l-0.248,1.851l-0.244,0.245l-1.357-0.615l-0.124,0.864l-3.078,1.229l-0.121,0.864l0.739,0.369   l-1.234,0.74l-0.243,1.722l-0.617-0.12l-0.245,0.984l-0.492-0.369l-0.496,0.493l-1.353-0.614l-1.603,0.86l-0.737-0.369   l-0.247,0.495l-0.741-0.495l-0.613,2.097l-1.234,0.367l-0.859-0.493l-2.711,1.602l-0.25,0.615l0.494,0.245l-1.97,1.726   l-0.125,1.111l-1.108,0.243l-1.598,3.82l-0.616-0.124l-1.235,2.219h-0.617l-1.72,2.217l-3.821,0.124v0.493l-0.368-0.493   l-1.357,1.476l-0.367-0.491l-0.37,1.109l-1.355,0.493l-1.727,4.924l-0.859-0.122l-0.37,2.342l0.37,0.985l-0.742,1.233l-3.692-0.249   l-0.248,0.369l-1.847-0.493l-0.741,0.493h-2.709l-0.862,0.988l-2.587,0.493l-1.602,1.847L2172.265,2702.583z"
   class="maps" />
	<path
   id="path54"
   d="   M2003.508,2365.066l2.587,0.493l26.239,8.128l76.864,17.738l42.495,9.978l47.552,10.842l56.417,12.192l-0.249,3.326l3.327,7.144   l-1.601,1.602l-2.219,3.944l1.11,1.477l1.478,0.86l-0.125,0.741l-0.986,1.109l-1.23,0.246l-31.534,23.528l-0.368-0.986   l-1.974,0.617l-0.613,0.86v1.109h-0.864l0.249,2.585l0.615,0.742l-0.615,0.244l-0.866,1.974l0.249,1.478l-2.588-0.493l-2.587,0.738   l0.615,2.711l-1.849,0.984l0.125,1.109h-1.235l-1.229,0.985l1.229,3.079l-0.737,2.093l-0.372,0.249l-1.105-0.741l-2.586,1.85   l0.367,0.738l1.23-0.492l-0.245,1.726h0.617l0.125-0.741l0.367-0.121l0.616,1.109l-1.108,0.37l-2.095-0.617l0.123,0.741   l-1.233,0.369l-0.249,3.327l-1.477,0.986l1.356,2.214l-1.601-0.739l-2.588,1.479l0.493,0.86l-0.493,0.987l1.48,0.121l0.368,0.492   l-1.233-0.119v1.106l-0.861-0.368l0.369,0.984l-1.601,0.986l-0.37,1.356l-0.492-0.248l-0.985,0.741l-0.249,0.986l0.493,0.616   l-1.354-0.369l-1.725,1.722l0.125,1.477l-0.494,1.233l-0.74-1.354v0.736l-1.721,0.492l0.244,2.466l-1.848,0.739v0.985l-0.739,0.124   l-0.245,0.861l-0.74,0.123l-0.739,0.985l-0.863-0.985l-0.492,0.248l0.74,1.229l-0.248,0.984l0.616,2.218l-1.602,0.249l0.494,1.602   l-1.969-1.356l-0.742,2.342l-1.23-0.74l-0.617,1.234h-0.985l-1.478,0.861v1.109l0.739,0.616l-0.245,0.616l-0.741,0.12l-0.617-0.614   l-1.476,0.738l-0.492-0.738l-0.617,0.245l-0.244,0.618l0.736,0.369l0.617,0.985l-0.741,0.615v1.233l-0.493-1.97l-1.107-0.742   l-0.862,0.123l-1.353,2.095l0.121-1.233l-0.492-0.492l-2.094,1.232l-0.613-1.357l-0.372,1.357l-0.986,0.861l0.494,0.86   l-1.602-0.737l-1.354,0.86l-0.123,1.358l-0.861-0.124l-0.865,0.861l-2.095-1.353h-0.612l-1.234,1.969l-0.249,2.095l-1.23-1.353   l-0.616,0.12l-0.492,0.741l-2.218,0.741l-0.616,1.478l-0.862-0.492l-0.248,2.71l-1.476-0.74l-0.617,1.109l0.372,1.478l-0.864,0.74   l-1.845-1.725l-0.617,0.986l-0.737-0.369l-0.99,0.492l0.865-2.094l-1.232,0.986l-0.493,0.985l-0.987-1.477l-1.233,0.737   l-0.244-0.861l-0.615,0.248l0.123,1.106l-0.74-0.245l-0.245,1.109l-1.357,1.354l-0.86-1.601l-0.37,1.849l-1.232,0.492l0.244-0.864   l-1.6,0.372l0.496,1.23h-1.109v-0.613l-0.986-0.249l-0.742,1.726l-1.109-0.492l-0.243,0.86h-1.11l0.245,0.985l-1.847,1.479v-0.739   l-1.233,0.616l0.367-1.601l-1.601,0.492l-0.737-1.725l-1.601-0.123l-0.861,0.616l-0.99-0.492l-0.986,1.354l-0.86-1.72l-0.617,0.492   l-1.231-1.478l0.125-1.233l-1.479-0.742l0.249-0.984l-1.232-1.354l0.122-1.478l-2.71-0.985l-0.124-1.602l-2.711-0.492l1.602-3.575   l-0.737-1.722l0.121-1.725l0.863-0.741l0.494-1.354l-0.249-1.109l0.986-2.462l-1.969-5.42l-1.11-0.738h-1.601l-1.108,0.86   l-1.847-0.123l-1.109,0.861l-0.738-0.119l-1.973-1.109l-0.245-3.452h-0.494l-0.123-0.613l-1.234-0.248l-0.243-0.74l0.492-2.586   h-1.724l-1.354,1.481l-1.232-0.494l-3.078,1.354l0.247,1.846l-0.99,0.617l-0.367-0.124l0.247-1.229l-0.864-0.742l-1.97,1.969   l1.109,1.481l-0.124,0.614l-2.339-0.368l-1.109,1.601l-1.358-0.367l-1.477,1.724l-1.602-1.233l-1.721,0.245v1.109l1.105,1.478   l-0.369,0.372l-0.986-0.372l-1.352,0.247v1.727l-1.482-0.248l-0.984,0.493l-0.738-1.23h-0.742l-0.124,1.97l0.741,0.986   l-0.861-0.124l-0.247,1.109l-1.109,0.247l-0.368,0.985h-1.726l-0.245,1.354l-1.234-0.123l-0.367,1.232l0.492,0.616l-2.344,1.353   l-0.245,2.586l-2.585,2.218l-0.617-0.124l-0.125-1.353l-1.478,0.124l0.245,1.722l-0.613,0.615l-2.219,0.249l0.245,1.354   l-0.738-0.738l-1.849-0.373l-0.368,0.742l-1.725-0.985l-1.353,0.493v-1.357l-0.493-0.245l-0.986,0.986l-2.093-0.741l-0.987-0.985   l-1.233-0.245l-0.742,0.492l-0.86-1.233l-1.725,0.369v-1.106h-0.987l-0.616-1.725l-1.229,0.861l-1.109-0.861l-3.696-0.492   l-1.97-1.109l-1.974,0.986l-1.476,1.846l-1.354-0.12l-0.368,0.984l-0.989-0.124l-2.214,1.109l-0.373,1.233l-3.077,3.2l-1.848,0.616   l-0.616-0.12l-0.985,1.229l-1.724,0.741l-3.697,4.064l-0.617,2.342l-3.448,2.096l-0.492,1.105l-1.235,0.864l-1.476-0.247   l-1.11,1.233l-1.352-0.123l-0.125-0.861l1.353-2.094l6.162-6.159l3.696-2.217l2.587-2.467l0.615-2.215l-1.355-2.586l-4.681-4.93   l-2.217-1.233l-1.229-1.847v-1.97l1.477-4.187l-0.617-1.726l-4.188-1.847l-1.846,0.613l-3.327-0.244l-0.615-2.343l-3.205-1.228   l0.616-4.561l-1.602-1.6l-0.616-2.216l0.865-5.791l-1.601-3.45l-0.74-8.497l-3.205-10.225l0.865-9.238l4.431-11.949l1.969-12.812   l-0.737-4.189l-1.234-1.601l-1.108-3.82l1.233-8.005l-0.248-1.601l-3.323-2.218l-1.109-1.846l-0.986-3.945l-1.973,0.369   l-0.737-1.602l-0.125-3.08l3.205-3.694l1.354-4.433l1.6-1.233l1.725-2.831l2.835-7.148l-0.124-1.846l0.616-2.094l1.23-0.86   l0.492-2.467v-2.094l-0.984-2.338l0.122-3.696l1.479-2.711l0.248-3.448l-0.74-3.696L2003.508,2365.066z"
   class="maps" />
	<path
   id="path56"
   d="   M2248.145,2838.577l0.741,0.493l0.738-1.478l1.232-0.249l0.617-1.109l0.615,0.497h2.587l0.492,0.612l1.109-1.354l-0.247-0.86   l0.739,0.612l1.231-0.118l0.493-0.864l1.601,0.74l1.235-0.124l0.861,0.493v0.742l1.476,0.124v0.493l-1.597,0.12l-0.125,1.109   l1.23,1.233l1.359-0.249l0.859,0.616v0.742l0.616-0.493l0.987,0.121l0.124-1.478l0.492,0.866l1.971,0.612l0.616-0.121l-0.248-0.742   l0.987,0.124l0.614-0.742l1.233,0.495l-0.367-0.614l0.367-1.602l0.862-0.249h0.616l-0.616,1.602l0.492,0.367l1.725-0.493v1.851   l1.233-0.493l0.125-0.742l2.34,1.478l-0.493-0.986l0.861-1.6l-0.12,1.231h2.214l0.249,1.109l1.477,0.862l1.6-1.353l0.494,1.845   h1.969l0.492-0.616l0.124-1.969l2.344-0.493l0.121,0.86h1.109l-0.369-1.109l0.249-0.738l1.353,0.245l0.492,1.481l0.986-0.491   l1.357,0.243l0.86-2.218l0.987,0.124l0.615-0.987l1.477,0.742l1.477-1.231l0.368,2.338l0.616,0.124l-0.121-1.847l0.493-0.124   l1.105,2.835l0.866-0.988l0.492,1.109l0.616-0.369l0.244-2.095l3.696-0.984l0.124-0.369l-1.108-0.373v-0.491l1.849,0.248   l-0.492-1.235l0.492-0.124l0.368,0.742l1.235-0.124l-0.864,0.866l0.615,0.86v0.738l0.494,0.249l0.492-0.493v1.478l0.985-2.342   l1.477,0.495l1.357-0.495l0.615,0.738l-0.985,0.249l0.614,1.109l-0.987,0.74l0.248,2.833l0.861,2.586l-0.492,1.229l-3.326,4.068   l0.74,1.969l-0.367,0.616l-0.372,5.175l-2.462,5.175l78.466-19.464l-0.244,9.979l0.985,1.353h0.988l1.968,1.355l2.835,3.328   l1.354,0.369l0.122,0.616l0.861,0.612l-0.368,2.218l1.602,0.373l0.123-0.615l1.722-1.233l-0.12-0.369l0.985-0.373l1.846,1.233   l2.711,0.984l1.353-0.124l1.109,0.744l0.987-0.126l0.615-0.736l0.864,0.243l1.478-0.491l0.616,0.984l1.105,0.373l0.741,1.354   l1.476,0.617l0.741,2.093l1.847,0.493l0.371,0.615l2.589-0.984l0.119,0.367l2.466,0.493l0.617,0.742l1.846-0.497l1.233,0.615   l1.721-0.615l0.865,1.109l2.214-0.369l2.465,1.85l0.245,0.86l-0.738,1.109l-0.741,1.602l-3.448-0.124l-0.74,2.095l-0.985-0.862   v0.74l-0.617,0.249l-1.602-0.988l-0.492,0.614l0.248,0.866l-0.615,0.124l-0.493-0.497l-1.969-0.245l-0.617-1.971l-1.234,0.74   l-1.477-0.988h-3.326l-0.616,0.371l0.248,1.973l-0.86,0.245l-0.741-0.124l-0.493-0.86l-5.298-0.86l0.616,0.86l-0.367,0.249   l-2.344-0.864l-1.602,0.74l-0.125,1.478l-1.103-0.86l-2.467,1.109l-3.697-0.866l-1.6,1.602l-1.477-0.367l-1.354,0.736l-0.617-0.121   l-0.986,1.229l-0.492-0.984l-2.466,1.478l-0.985-1.602l-2.095,1.602l-0.737-0.369l0.244-1.354l-0.985-0.249l-0.369-1.353   l-1.849-2.218l-0.613-0.124l0.492,0.986l-1.974-0.986l0.617-1.476l-1.847,0.74l-1.108-0.493l-1.109,0.245l-0.862-0.984   l-1.477-0.124l-0.495,0.742l-2.707,0.493l-0.373-0.124l0.123-0.738l-1.107,0.12l-1.847-0.736l-0.986,1.476l-0.864-1.109   l-1.846,0.493l-0.616-0.86l-3.328-0.618l-2.214,0.493l-0.372,1.233l-0.86,0.245l-0.492-1.353l-1.359-0.373l-3.077,0.864   l-0.12,1.231h-1.235l0.617,0.74h-0.865l-1.479,1.233l-1.353-0.742l-0.492,1.85l-1.477-0.497l-0.493,1.85l-0.864-0.493l-0.494,0.738   l-0.243-0.367l-0.865,0.862l-1.969,0.614l-0.247,0.864l-1.354-1.109l-0.125,1.231l-1.6,0.124l0.615,0.74l-0.986-0.617l-0.369,0.987   l-2.094,0.124l0.245,0.738l-0.986,0.247l-0.985-0.615l-0.367,0.369l-0.249-1.107l-0.861,0.862l-0.861-0.493l-0.989,1.846   l-0.986,0.247v-0.615l0.986-0.493l-1.602,0.369l0.249,1.973l-0.741-0.74l-0.738,0.491l0.367,0.493l-1.353,0.249l-1.477,1.72h-1.108   l-0.494,1.357l-2.217,0.618l-0.368,1.105l-0.989-0.367l-0.368,0.615l-0.369-0.367l-0.492,0.245l-0.616-0.369l-0.492,0.617   l-1.601,0.243l0.122,0.618l-1.601,0.86l-1.849-0.738l-0.493,0.493l-2.214-0.615l-0.248,0.615l-1.725-0.985l-2.711,0.985   l-0.861-0.249l-1.109,1.357l-1.353-0.493l-0.984,0.245l-1.109,1.233l-2.836,0.738l-2.338-0.738l-2.71,0.124l-0.865-0.249   l-0.613-0.985l-3.204,0.247l-0.986-0.495v-0.738l-0.864-0.86l-2.094-0.373l-1.11,0.491l-0.612-0.985l-2.217-0.493l-1.109,0.249   l-0.861-0.122l-0.617-0.862l0.493-0.99l-1.85-4.187l-3.078-1.969l-1.601-2.713l-1.109-1.109l-1.229-0.121l-1.725-1.848   l-1.478-0.618l-0.74-1.229l-1.721-0.864l-14.167,10.225L2248.145,2838.577z"
   class="maps" />
	<path
   id="path58"
   d="   M2389.435,2842.148l3.572,0.495l5.421-1.971l0.861-1.235l0.373-2.093l1.23-1.354l0.74-1.724l2.217-1.602l1.354-2.095l4.064-2.464   l0.987-1.231l2.958,0.249l4.556-2.835l-0.243-2.462l0.86-1.726l-0.492-1.845l0.245-2.713l1.109-0.249l1.108-0.985l1.85-0.367   l1.353-3.328l1.969-2.338v-1.478l2.711-3.08l2.218-0.373l0.986,0.744l3.448,0.124l1.234-0.866l-9.117,19.587l0.741,0.493   l1.725-0.86l0.987-1.357l3.203-0.86l2.83-3.08l1.109-0.249l0.986-1.724l1.234-0.614l0.86-2.957l1.233,0.249l0.86-0.495l1.97,1.355   l1.356-0.243l0.37,0.491l1.357-1.109l1.847,1.847l1.233-0.245l0.244-0.617h1.724l3.205,2.219l1.846,0.493l3.695-1.478l1.357-1.602   h0.614l0.988-1.481l1.969-0.493l2.589,2.713l1.233,0.247l0.493-0.864l1.846,0.493l0.248,0.864l-0.492,0.86l1.354,1.357l0.861-0.74   h1.108l1.603,1.476l3.45,0.249l0.244-0.615l0.492,0.493l0.369-0.615l1.974-0.369l1.97,1.602l1.601,0.122l1.602-0.74l1.476,1.602   l1.845,0.616l0.987-0.987h2.836l0.367,0.738l1.235,0.249l0.493-0.864l3.326,0.248l0.987-1.233l2.217-0.247l0.613-0.491l1.109,1.478   l0.864-0.864l1.108,0.864l0.37-0.615l1.601-0.124l0.245,0.493l0.123-0.74l0.615-0.12l1.235,0.491l0.245-0.74l0.125,0.615   l1.108-0.247l0.492,0.495l0.492-0.615l-0.122,0.491l1.353,0.124v0.493l0.371-0.742l0.369,0.249l2.71-1.357l0.244-0.86l2.219,0.365   l0.739,0.866l0.369-0.617l1.234-0.123l1.97-1.724l1.109,0.124l0.737-0.738l1.6,0.121v0.371l1.358-1.357l0.493,0.866l0.738-0.124   l-0.367,0.616l0.859,0.612l0.741-0.491l0.249,0.491l1.968,0.124l0.246,0.617l0.371-0.862h0.737l0.124-1.233l0.986,0.987   l0.741-1.109l1.97,0.74l-0.125,1.355l0.742-0.124l0.737,1.109l1.725-1.969l2.217,0.124l1.11-0.616v0.491l1.23,0.493l0.492,0.74   l1.358,0.245l0.617,0.987l0.243-1.354h0.741l0.616-1.233l0.12,1.602l1.109-1.602l0.985,1.724h-0.616l1.232,0.987h1.11l0.492-0.738   v0.862l0.86-0.124l0.373,0.742l0.86-0.742l0.369,1.971h0.493l-0.245,1.109l0.615-0.247l1.229,1.231l-0.984,1.602l0.372,0.984   l-0.864,0.249v0.987l-1.354,0.124l-0.617-0.493l0.245-0.615l-1.229-0.124l-0.615-0.617l-0.988,1.109l-2.093-0.243l-0.862,0.491   l0.12-0.615l-1.721,1.971h-2.218l-1.971,0.742l-0.123,1.6l-0.617-0.371l-1.11,0.864l-1.23-0.249l-0.247-0.493l-1.109,1.85   l-1.727,0.245l-1.104,2.344l-0.617,0.245l-1.233-1.231l-0.741,0.247l-1.721-0.738l-1.357,0.986l-2.214,0.245l-0.248,0.74   l0.986,0.369l-0.125,0.615l-1.478,0.742l-0.122,0.86l0.987,2.093l-0.248,0.369l0.617,0.124l-0.247,1.233l-2.832,1.229l-1.476,2.466   l-0.99,0.367l-2.707,3.324l0.613,2.586l1.357,1.482l0.122,1.109l-0.247,0.86l-0.985,0.493l0.123,0.984l-1.233,1.971l-0.739,0.373   l-1.233,3.695l26.364,0.121l0.986-0.617l0.12-0.736l1.109-0.25l1.109-1.109l1.478-0.245l2.958,0.615l1.846-1.6l1.233-2.588   l1.846,0.245l4.436-2.34l1.23-1.357v-1.72l1.357-0.124l0.861,0.615l1.724-0.742l1.727,2.095l-0.374,0.617l-1.475,0.367   l-0.245-0.493l0.984-1.109h-1.356l-0.615,1.478l-1.6,1.602l2.34,2.466l-0.861,1.227l-0.986-0.491l0.612,0.864l-0.367,0.612   l0.367,1.359l-0.859,1.478l-0.987-0.495l-0.74,0.985l0.74,2.711l-0.492,0.615l-1.357-0.369l-0.86,2.709l-0.986,0.986l-1.477-0.86   h-1.233l0.247,0.984l-0.986,0.866h-0.74l-0.617-0.866l-0.737,0.124l0.368,1.233l-1.969,2.095l1.109,0.738l-1.109,0.367   l-0.616,2.095l-1.357-1.354l-0.614,0.124l-0.74,0.985l0.617,0.742l-0.369,0.491l-0.616-0.249l-0.249-1.233l-0.492-0.119   l-0.124,0.736l-0.492-0.367l-0.244,0.985l0.492,1.849l-0.615,2.216l-4.433,1.478l-1.482-0.74l0.373,0.495l-0.492,0.985l1.476,1.235   l-1.109,0.491l-0.367,1.354l-0.99-0.86l-0.243-1.478l-0.494,0.862l-0.74-0.124l0.492,2.586l0.372,0.615l-2.095,1.359l0.244-1.604   l-0.984,0.245l-1.234,1.111v-0.985l0.864-0.493l-0.123-1.359l-1.971,1.109l-1.357-0.491l0.124-0.738l-0.492-0.124l-0.862,1.109   l-0.125,1.478l-0.247-2.344l-1.353-0.367l0.984-1.233l-1.109,0.122l-0.492,0.617l-1.602-0.124l1.233,1.109h-1.233l-0.617,0.617   l-1.105-0.369l-0.864,0.738l-0.368-0.986l0.617-0.736l-1.109-0.373l-0.986,1.357l-0.616-0.74l0.492-0.245l-0.125-0.495   l-0.861-0.124l-1.85,1.971l-0.118,1.971l-1.482-0.493l-0.738-0.862h-1.234l-0.492,1.109l0.741,0.12l0.121-0.738l0.615,1.233   l-0.861,0.245l-0.985-0.493l-0.249-1.233l-0.986-0.736l-2.339,2.462l-1.601-1.109l-0.617,0.491l-1.477-1.969l-1.973,1.109   l-0.122-1.233l-1.357-0.493l0.616-1.847l-1.233,0.493l-1.599-0.742l-1.725,1.357l-0.985,0.245l0.617,1.602l-1.726,0.367v-1.109   l-0.864,0.497l-1.97-0.373l-0.368-0.491l0.741-0.988l-0.124-0.614h-2.094l-0.125-1.355l-1.235,0.369l-0.859-1.353l-1.232,0.738   l-0.492-1.109l-1.723,1.602l-1.724-2.955l-0.861,1.354l-1.357-0.614l-2.34,1.478l-1.481-1.357l-1.596,1.357l-0.25-2.093   l-2.217,0.986l-0.125-1.359l-0.736,0.864l-0.986,0.245l-0.249-0.367l0.987-0.986l-1.604,0.245l0.249-1.478l-1.726,1.604   l-2.709-1.478l-0.613-1.109l-2.219-0.124l-2.462,1.357l-0.74-1.109l-1.97-1.602l-0.985,1.726l-0.741,0.12l-2.217-0.736l1.107-0.495   l-0.122-0.615l-3.079,0.367l-0.493,0.986l0.493,0.742l-0.493,0.249l-1.229-1.726l-0.616,0.245l-0.492,0.866l-1.357-0.618   l-1.109,0.245l-2.339-0.612l-0.616-1.233l-0.617,1.969l-0.984-0.245l-0.37-0.984l-0.984,1.72l-0.616-0.738l0.243-1.357   l-1.601-0.245l-0.244,1.109l-2.463-0.74l-0.247,2.218l-0.492-0.249l-0.249-1.72l-0.986,0.12l-0.368-1.229l-1.109,0.118l0.367,1.357   l-0.492,0.124l-0.985-2.342h-0.738l-1.108,1.478l-0.369-1.847h-1.108l0.737-1.109l-0.244-0.86l-2.467-1.85l-2.213,0.369   l-0.866-1.109l-1.72,0.615l-1.234-0.615l-1.845,0.497l-0.617-0.742l-2.466-0.491l-0.12-0.369l-2.588,0.984l-0.37-0.615   l-1.848-0.493l-0.741-2.093l-1.475-0.617l-0.742-1.354l-1.105-0.373l-0.616-0.984l-1.478,0.491l-0.864-0.243l-0.616,0.736   l-0.986,0.126l-1.109-0.742l-1.353,0.122l-2.711-0.984l-1.845-1.233l-0.985,0.373l0.119,0.369l-1.721,1.233l-0.124,0.615   l-1.602-0.373l0.368-2.218l-0.861-0.612l-0.123-0.616l-1.353-0.369l-2.836-3.328l-1.967-1.355h-0.987l-0.985-1.354   L2389.435,2842.148z"
   class="maps" />
	<path
   id="path60"
   d="   M2562.629,2652.698l1.11-2.342l-0.861-1.109l0.367-1.969l1.726-1.357l0.861-2.829l1.477-2.342l1.6-1.111l3.079-0.987l0.373-0.86   l-1.11-2.833l4.558-5.173l2.588-1.604l3.571-3.447l4.312-0.373l3.571-0.738l3.572,0.738l1.602-0.493l0.371-4.806l5.668-4.309   l1.969-0.249l1.846-1.109l3.943,0.493l3.326-1.352l0.987,0.122l1.847-1.231l1.108-1.848l2.71-0.124l1.603-1.851l2.217-0.736   l1.969-1.602l2.218,0.124l1.97-0.986l38.803,16.505l-0.493,0.493l-0.989-0.369l-2.708,2.097l-0.865-0.249l-1.601,1.109   l-0.738-0.247l-0.248,0.987l-2.832-0.742v-0.616l-2.094,0.742l0.12-1.111l-1.722-0.74l-0.372,0.74l-1.105-0.122l-1.357,0.864   l-0.245,2.095l-1.479,2.954l-0.123,3.45l1.847,3.078l3.571,3.202l1.108,2.342v1.229l-1.845,3.821l-6.53,4.435l-1.231-0.615   l-1.109,0.367l-0.74,2.959l-1.235,2.097l0.989,1.969l0.12,2.093l-0.492,0.738l-0.738,0.249v1.233l0.245,0.493l15.642,5.911   l13.799,6.528l-0.617,2.219l1.234,0.245l-0.249,1.848l0.986,0.985l3.203,1.231l0.741-0.493l2.462,3.82l0.617,0.126l0.86-1.724   l0.617,1.6l0.985-0.491l0.493,0.367l-0.368,0.742l2.34,1.353l2.342-0.738l0.369-1.235l1.109,0.493l-0.493,1.478l0.985,2.219   l-2.955,0.985l-1.601,1.85l0.74,2.338l-1.725,2.586l-0.124,2.342l1.354,3.573l-0.738,3.202l-2.342-1.726h-1.109l-1.354-2.217   l-0.986-0.493l-5.296,0.124l-0.986,0.616l-1.969,0.124l-0.985,1.105l-1.483-0.736l-1.847,0.615l-2.955,0.12l-1.109-0.612   l-0.492-0.866l-2.095,1.233l-0.741,2.095l-5.914,2.095l-1.846,2.095l-1.603-0.617l-1.602,1.233l-0.616-0.124l-0.986,1.355   l-1.602,0.985l-0.617,1.724l-1.72,1.357l-2.835,1.229l-6.653-0.122l-16.629-18.105l-1.355,0.367l-3.941-4.926l-3.697-0.742   l-1.109-0.86l-1.478-0.124l-1.233,0.493l-1.601-0.493l-5.174,1.355l-0.368,1.975l-3.203,1.109l-1.235,1.105l-0.615,1.479   l-2.34,0.122l-1.477,2.342l4.431-24.02l-1.229-2.464l-0.374-1.357l-1.352-1.602l0.243-2.587l-1.601-1.478l-0.492-1.233l1.6-2.338   l2.589-1.478l-0.245-2.342l0.986-2.464l-0.368-1.357l0.986-2.462h-1.232l-0.617-0.736l-2.215-0.126l-5.421-2.095l-2.955,1.355   l-4.562-3.94l-3.448-1.233l-0.74,0.493l-3.205-0.245l-1.601,0.493l-1.602,2.831L2562.629,2652.698z"
   class="maps" />
	<path
   id="path62"
   d="   M2540.951,2887.481l2.094-1.357l-0.371-0.615l-0.493-2.586l0.74,0.124l0.494-0.862l0.243,1.478l0.99,0.86l0.367-1.354l1.109-0.491   l-1.476-1.235l0.492-0.987l-0.373-0.493l1.482,0.738l4.431-1.478l0.617-2.214l-0.492-1.849l0.244-0.985l0.492,0.367l0.124-0.736   l0.492,0.119l0.249,1.233l0.617,0.249l0.367-0.491l-0.616-0.744l0.741-0.985l0.613-0.124l1.357,1.355l0.616-2.095l1.108-0.369   v0.742l0.739,0.122l-0.244,1.354l1.229,0.862l-0.243,0.742l1.353,0.245l0.123-0.493l0.861,0.616l0.617,3.204l0.248,0.249   l-0.741,0.491l0.86,0.12l2.095-0.245l-0.121,0.736l1.105,0.866l-0.86,2.711l1.357,3.573l0.493,0.491h10.221l-2.462-0.986   l-2.094-0.124l-0.248-7.884l1.849-4.431l0.367-4.686l1.604-1.598l3.696-1.233v-1.726l0.985-1.354l2.955-5.789l3.576-3.45   l0.985-5.051l2.708-4.431l0.864-5.052l0.617-1.604l8.004-2.955l3.575-2.093l12.441-3.204l1.109,0.124l11.948,6.035l5.666,0.124   l1.109-1.235l6.159,3.697l0.125,0.864l-0.615,0.369l0.74,0.367l-0.492,0.371l0.367,1.847l0.492-0.124l0.738,1.359l-0.738,0.493   l-0.247,1.354l-0.612,0.491l0.492,1.85l-0.373,0.612l-1.847,0.742l-1.108,1.969l-2.463,1.849l-0.371,1.109l-1.602,0.862   l-2.214,2.711l-0.865,0.122l-1.477,2.831l-2.219,0.493l-0.492,2.711l-0.985,0.367l0.367,1.357l-0.492,2.342l-2.708,1.474   l-0.741,1.481l0.249,1.109l-0.497,0.122v2.342l-1.105,1.969l-1.724,0.987l-1.358,1.724l-2.215,0.987l-1.108,1.602l-0.985,0.245   l-0.617-0.369l-2.955,0.617l-1.975,1.109l-0.861,1.602l-0.985,0.615l-1.479-1.357l-1.849-0.124l-4.925,2.219l-0.985,1.724   l0.493,0.986l-0.125,1.109l-1.109,1.353l-0.985,0.371l-0.74-0.124l-1.354-1.969l-1.109,0.247l-1.353-1.604l-2.095,2.344   l-6.654,0.738l-2.709,2.218l-0.368,1.233l-1.848,2.462l-3.575,1.726l-0.12,1.722l-27.099,5.544l0.738-2.462l-1.725-2.342   l0.247-1.724l-2.217-1.604l-0.987,0.493l-0.74-0.245l-0.86-1.476l-0.986-0.249l0.247-1.231l-1.357-1.6l0.862-1.602l-1.105-1.109   l1.105-1.602l1.232-0.369L2540.951,2887.481z"
   class="maps" />
	<path
   id="path64"
   d="   M2247.902,2738.06l6.402-6.157l0.742-1.849l1.477-0.984l2.462,0.491l2.835-2.34l3.82-4.68l0.492-1.478l3.078-1.849l2.218,0.249   l3.94-2.959l2.217-5.049l3.204-2.219l3.696-4.311l1.478-0.86l-0.125-0.493l0.985-0.493l0.369-1.353l1.849-1.482l0.245-1.353   l0.74-0.493v-0.615l3.821-2.711l-0.372-2.462l0.616-2.097l0.492-0.365l0.249-2.466l2.955-1.971l0.741,0.367l0.739-1.354   l-0.245-1.233h0.738l0.74-0.86l-0.617-0.74l0.494-0.247l0.74,0.369l1.233-0.736v-0.866l0.737-0.122l-0.615-0.74l1.357-1.233v-0.614   l1.23-1.604l1.602-0.121l0.247-0.864l0.617,0.493l-0.249-1.971l0.985,0.493l1.601-1.847l0.495,0.245l-0.37-1.229l0.862-0.248   l0.864-1.354l0.123-1.233l1.354-1.602l0.244,0.615l0.99-0.615l1.353,0.249l-0.369-1.231l1.11-0.617l0.119-0.615l-0.739-0.738   v-0.864l1.232-0.495l0.865-2.212l1.969-0.249v-0.986l0.741-0.616l-0.124-0.862l1.721-1.969l0.988,1.229l0.37-1.109l0.737-0.369   l-0.369-0.986l0.617-0.742l1.479-0.985l2.094,1.233l-0.368-1.109l0.368-0.493l1.235,0.986l0.367-1.233l1.232,0.742l0.738-0.124   l0.742,0.742l0.985-0.25l0.248-1.353l1.601-1.109l0.493,0.987l2.095-0.738l0.861,0.86l0.493-0.491l0.492,0.738l0.493-1.107   l-3.448-2.711l-2.344-0.371l-0.738-0.86l0.494-0.495l-0.25-0.491l-3.204-2.342l-2.338-0.74l-1.234,0.86l-0.617-0.736l-1.23,1.969   l-2.217,0.124l-1.109-0.617l-0.493-1.6l-2.835-2.711l-1.229-2.344l-1.974,0.247l-1.105-1.109l-3.328-0.491l-4.064-2.955   l-2.217-0.122l-2.464,1.107l-2.466-1.476l-0.614,0.86l-0.738-0.369l-1.477,0.617l-0.74,0.984l-1.601,0.862l-0.862-0.369   l-0.616-3.202l0.369-1.726l2.094-1.6l0.985-1.847l2.344-1.602l-0.249-3.821l0.617-0.86l3.696,0.493l1.233-3.451l0.861-0.367   l1.725,0.122l1.97-2.462l2.587-1.233l1.235-1.969l2.709-0.618l1.11-0.86h3.199l0.494-0.742l1.725,0.742l1.109,2.34l2.462-0.493   l1.481,0.493l0.244,0.74l1.354-1.357l2.216-0.491l0.495,0.367l0.371-0.491l0.368,0.491h0.737v0.617l1.234-0.245l1.477,0.736   l2.466,0.124l0.986-0.493l0.368,0.369l0.86-0.617l0.125-0.983l0.367-0.122v0.493l0.248-0.371l0.125,0.491l0.986-0.985l0.369-1.602   h0.739l-0.247-0.862l0.741-0.245l0.122-0.74l3.573,0.615l2.829-2.959l1.974-0.614l1.477,0.986l2.095,0.12l1.109-0.367l1.845,0.984   l1.109-0.367l0.493-2.344l1.969,0.988l0.742-0.988l-0.864-0.738l-1.723-0.124l-0.616-0.736l0.741-1.109l1.228,1.352l1.109-0.986   l1.478,0.495l0.249-1.971l0.735-0.493l0.617,0.247l1.969-1.48l1.109,0.74l-0.243-3.076l1.477-0.742l-0.249-2.095h1.726l0.492-1.354   l-2.71-0.373l-0.493-1.227l0.617-0.744l1.478,0.367l0.617,1.109l1.357-0.123l1.228-0.738l2.957-4.68l-2.957-1.849l-0.123-2.463   l-2.094-2.955l-0.613-3.82l0.121-1.477l-1.97-1.111l-0.492-1.724l-3.696-3.328l6.283-9.114l0.615-4.436l2.462-5.542l1.109-0.615   h1.602l0.368-0.738l-0.493-2.094l0.617-0.988l5.542-3.2l-0.613-6.161l4.433-3.94l1.6,0.245l1.109-1.847l0.125-1.601l2.711-2.342   l3.321-4.31l0.617-3.327l2.095,3.327l1.97,0.737h1.85l1.108-0.616l0.492-2.093l3.205-2.095l1.23-1.846l0.741-2.836l1.108-0.119   l1.231-0.865l3.695-9.485l18.354,9.979l40.281,20.079l29.442,15.643l-1.601,1.233l-4.313,6.899l-2.218,1.847l-4.183,2.217   l-0.248,0.985l-1.353,0.861l-0.493-0.367l-0.248-2.462l-1.235-3.203l-1.228-0.123l-5.421,1.969l-7.637,4.805l-2.465,0.616   l-1.232,1.109l-2.585,7.145l-0.372,2.954l-1.846,3.575l-2.218,0.986l-9.729,0.119l-6.531,1.482l-5.667,3.695l-4.312,4.188   l-3.078,2.216l-0.493,2.218l-12.932,5.79l-16.877,2.833l-2.709,2.955l-1.232,3.328l-5.914,1.602l-1.725,1.602l-0.987,2.462   l-2.094,0.986l-2.218,3.326l-1.968,4.926l-1.725,1.109l-4.681,0.124l-1.23,1.233l-2.344,4.188l-0.123,2.214l0.74,2.835l0.247,2.338   l-0.863,1.481h-0.986l-2.34-1.602l-1.973,0.121l-2.339,2.957l-0.617,4.433l0.862,9.241l-2.587,2.095l-2.218,0.614l-0.244,1.973   l-1.479,1.722l-0.864,0.493l-1.603-0.614h-1.476l0.124,1.722l1.109,2.095l-1.234,2.342l1.476,2.586l-0.735,2.957l-1.849,1.724   l-0.861,2.218l-2.095,2.095l-0.616,2.093l-1.352,1.849l-1.11-0.371l-0.74,0.862l0.615,3.202l-0.493,3.946l1.11,2.953l-1.235,1.355   l0.372,1.726l-1.849,2.342l-6.034,1.72l0.368,0.742l-0.493,0.247l0.125,1.357l-0.741,1.227l0.367,0.373l-0.118,2.217l-0.742,1.478   l1.235,6.033l-3.079,2.961l1.721,5.173l-0.368,3.202l-1.477,2.095l1.845,3.94l2.589,3.202l-0.37,5.666l-1.109,1.847l1.604,1.233   l-0.495,6.773l-4.312,0.249l-1.353,0.86l-2.218,0.367l-0.492-0.367l-0.741,0.367l-1.598-0.984l-2.219,0.373l-0.74,0.736   l-0.123,1.973l-1.232,1.724l-1.357,0.367l-0.86,1.233l0.125,2.833l-3.204,1.722l-0.984,2.218l-1.357,0.862l-0.986,3.202   l-3.817,2.095l-0.617,1.724l-3.326,2.586l-4.68,7.637l-0.369,9.365l1.353,0.986l-59.001-6.161L2247.902,2738.06z"
   class="maps" />
	<path
   id="path66"
   d="   M2439.941,2802.977l1.231-1.109l1.725,0.124l0.987-0.86l1.108,0.612l3.204-0.491l1.601-2.095l-0.864-1.355l0.742-1.476l0.122-1.602   l1.11-0.864v-2.095l0.986-1.105l1.601,0.738l0.368-0.862l1.235,0.245l0.243-0.491l0.741-0.124l1.108-2.586l3.205-0.612l1.721-4.068   l1.477-0.493l0.617-1.109l1.849-1.847h1.97l0.741-1.602l1.477-0.124l0.737-1.845l0.866,0.245l0.736-0.862l0.25-2.093h2.461   l0.742-2.713l2.094-0.365l0.861,1.474l1.109,0.124l1.724-2.093l1.11-0.615l1.352,0.493l0.862-1.847l3.202-0.99l1.357-1.229   l-0.123-2.342l1.477-1.476l2.095-0.74l1.232-2.34l-0.617-0.616v-1.604l0.37,0.249l0.86-1.726l0.865-0.491l1.354,0.249l1.968-2.59   l0.865-3.691l1.478-0.615v-2.835l0.74-1.847l1.106-1.109h1.356l0.615-0.742l4.559-1.724l0.74,0.124l0.121-0.617l2.465-1.231   l3.079-4.311l0.492-3.448l5.542-5.668l2.218-0.369l1.353-0.985l2.834,0.615l6.528-2.586l2.709-0.247l1.477-3.204l1.975-2.216   l1.229-3.942l1.974-0.124l1.353,0.617l0.369-1.478l1.974-1.478l2.339,0.245l0.493,0.615l2.711-0.615l0.615-0.493l0.737-2.462   l1.85-1.233l-0.617-4.802l0.245-2.957l-1.353-1.969l-0.124-1.602l-1.477-0.742l-0.861-2.464l-2.094-2.953l1.845-2.711l-0.368-3.449   l-0.742-1.111l-0.243-2.218l0.243-4.188l0.987-1.724l-0.738-1.109l-0.367-2.464l4.68-8.375l1.477-1.109l3.202-0.491l2.462,0.247   l0.249-0.371l-0.741-2.216l0.617-2.218l-0.742-1.233l2.463-2.095l1.602-2.829l1.602-0.495l3.203,0.247l0.741-0.493l3.448,1.233   l4.561,3.94l2.955-1.355l5.422,2.095l2.215,0.126l0.616,0.736h1.233l-0.986,2.464l0.368,1.357l-0.986,2.462l0.244,2.342   l-2.588,1.478l-1.601,2.34l0.492,1.233l1.601,1.476l-0.243,2.586l1.352,1.602l0.373,1.357l1.231,2.462l-4.432,24.022l1.477-2.342   l2.339-0.122l0.617-1.481l1.234-1.103l3.202-1.109l0.368-1.975l5.174-1.354l1.601,0.493l1.233-0.493l1.479,0.122l1.108,0.862   l3.697,0.74l3.941,4.928l1.356-0.371l16.629,18.107l6.652,0.122l2.834-1.227l1.721-1.357l0.617-1.726l1.602-0.985l0.986-1.355   l0.615,0.124l1.601-1.233l1.603,0.615l1.847-2.093l5.913-2.095l0.742-2.095l2.094-1.233l0.492,0.866l1.108,0.612l2.956-0.12   l1.846-0.615l1.482,0.736l0.987-1.105l1.969-0.124l0.986-0.616l5.296-0.124l0.987,0.493l1.353,2.219h1.109l2.342,1.724l0.739-3.204   l-1.353-3.571l0.123-2.342l1.726-2.586l-0.74-2.34l1.601-1.848l2.955-0.987l5.298,2.34l6.038,3.328l0.612-0.493l1.726-0.124   l-5.666,6.655l8.745,0.245l1.233-0.493l2.34,1.109l0.99,0.124l2.83,2.34l2.463-1.231l1.107,0.245l2.096-0.245l1.233,0.121   l0.493,0.864l2.586-0.864l1.601,3.204l0.742,0.493l-0.372,1.724l0.984,1.233h0.742l3.204,2.34l0.243,2.095l0.742,0.367l1.107,3.083   l2.832-0.866l2.094,0.987l2.466-4.064l0.617-0.367l3.078,0.243l0.612-0.367v-2.464l1.235-2.711l-0.493-4.804l0.493-1.724   l3.204-2.709l1.97-2.833l6.158-3.94l0.741-2.342l2.343-2.957l1.971-3.695l-0.494-2.711l0.494-4.557l0.859-1.85l0.124-3.323   l-1.97-3.819l2.095-4.313l30.427,13.058l-2.344,1.849h-3.203l-2.462,1.105l-1.478,1.481l0.368,0.738l-1.109,0.247l-0.492,0.862   l-0.741,3.078l-3.078,1.478l-1.231,2.835l-3.204,2.218l0.245,0.86l-0.612,0.124l-0.989,0.987l-0.368,1.846l-2.34,1.973   l-1.357,3.818l-2.831,1.847l-3.82,0.986l-0.493,0.986l-2.586,1.109l-1.48,2.095l0.614,2.34l-2.095,1.109l-2.094,0.371l-1.722-0.864   l-2.833,1.233l-1.354,2.584l0.738,1.235l-0.861,1.109l-4.187,2.462l-0.617,1.231l0.741,1.602l-0.124,1.973l-3.945,1.72   l-0.861,2.586l-1.477,0.373l-1.233,1.602l-1.23,0.736l-0.617,1.724l-1.108,0.617l-1.971,2.713l-2.342,0.736l-1.353,1.109   l-1.849-0.616l-2.216,0.367l-8.623-6.895l-4.432-2.586l-19.711-0.122l-0.125,1.227l2.094,2.466l0.617,1.724l-0.617,0.862   l1.974,2.831l1.477,4.188l-0.985,2.218l0.616,2.713l1.23,1.354l-1.23,0.614l0.614,1.604l0.615,0.493l1.358-0.245l3.448,4.188   l1.726,0.985l1.6,5.417l2.463,4.561h1.477l1.849,4.806l3.571,2.214l0.368-0.493l3.327,1.851l0.245,1.602l-0.369,0.984l-1.724,0.738   l0.373,1.602l-0.865,0.617l0.123,1.476l-1.85,1.357l0.125,1.847l-7.267-1.109l-0.739-0.491l-0.989-1.971l-0.122-2.586l-3.203-5.297   l-4.436-2.711l-1.845-0.491l-1.11-1.479l-0.248-1.6l-0.861-0.369l-0.492-1.109l-0.862-0.249l-0.74-1.478l-0.125-2.956l-2.462-0.614   l-0.492-1.971l-0.249,0.986l-2.955,0.74l-0.25,0.986l1.483,0.612l0.492,1.233h-0.616l0.124,1.109l-1.234,1.849l-1.234,0.249   l-0.12,1.233l0.861,1.229h0.985l0.369,0.864l-2.588,1.229l-1.723-0.493l-1.479,2.095l1.848-0.617l-0.492,1.109l-15.77,1.111   l-0.859,1.233l0.244,0.738h-0.617l-0.613,1.109l-1.601-0.245l-1.724,0.738l-2.711-0.121l-1.233,0.738l-1.354,2.218l-2.217,0.86   l0.247,0.493l-0.615,0.124l-1.109,1.602l-3.572-1.478l-0.862-1.724l-2.466-1.478l-1.601-2.095l-1.477,0.742l-1.725-0.493   l-1.354,1.229l-3.818-0.615l-3.448,0.615l-2.71,1.109l-3.572-1.109l-3.697,2.218l0.125-0.616l-0.372-0.122l-3.448,0.614   l-2.587-0.243l-1.353,1.969l-4.561,1.724l-1.229,2.216l-7.147,3.45l-0.739,0.987l-2.217,0.367l-0.861,0.742l-0.99,2.093   l-2.586,0.86l-1.231-43.482l-2.586,2.462h-1.109l-0.74-0.985l-1.354-0.245l-1.725,0.738l-0.617,0.988l0.372,2.829l-2.709,1.48   l-0.617,2.586l-0.74,0.862l-1.971,0.86l-2.829-0.243l-0.74,0.614l0.123,1.478l-1.603,0.495l-1.849,0.367l-2.71-0.616l-0.121,0.493   l-1.602,0.986l-0.247,1.107l-4.313,0.862l-0.986,0.74h-4.064l-3.696,3.204h-2.462l-0.741,1.109l0.124,2.462l-0.616,0.493   l-1.353-0.245l-0.249,0.493l-2.094,0.86l-0.244,1.969l-4.188,2.835l-0.247,2.338l-1.23,1.604l-3.452,2.586l1.108,2.711   l-3.202,3.326l-69.722,0.124l-2.339,1.72l-0.248,2.588l-0.612,0.493l-2.711,0.491l-3.204,1.85l-4.806,0.243l-3.325,2.344h-8.496   V2802.977z"
   class="maps" />
	<path
   id="path68"
   d="   M2247.777,2783.388l59.003,6.163l-1.354-0.986l0.37-9.365l4.678-7.637l3.327-2.586l0.617-1.724l3.816-2.095l0.985-3.202   l1.357-0.862l0.985-2.218l3.204-1.722l-0.125-2.833l0.862-1.233l1.357-0.367l1.23-1.724l0.124-1.971l0.741-0.736l2.218-0.373   l1.596,0.985l0.742-0.367l0.492,0.367l2.219-0.367l1.352-0.86l4.313-0.249l0.493-6.775l-1.602-1.231l1.109-1.849l0.369-5.664   l-2.588-3.202l-1.845-3.942l1.477-2.095l0.368-3.202l-1.722-5.173l3.079-2.959l-1.234-6.035l0.742-1.478l0.119-2.217l-0.369-0.373   l0.742-1.227l-0.125-1.359l0.492-0.245l-0.367-0.74l6.035-1.722l1.849-2.344l-0.372-1.724l1.235-1.355l-1.11-2.955l0.493-3.944   l-0.617-3.202l0.741-0.86l1.11,0.369l1.351-1.847l0.616-2.095l2.096-2.095l0.86-2.218l1.849-1.724l0.737-2.955l-1.477-2.588   l1.233-2.342l-1.108-2.095l-0.125-1.72h1.477l1.602,0.612l0.864-0.493l1.477-1.722l0.245-1.975l2.217-0.612l2.588-2.095   l-0.861-9.241l0.616-4.431l2.339-2.959l1.974-0.12l2.34,1.602h0.985l0.864-1.482l-0.247-2.338l-0.742-2.835l0.125-2.214   l2.343-4.188l1.23-1.233l4.681-0.124l1.725-1.109l1.968-4.927l2.219-3.326l2.094-0.984l0.987-2.464l1.725-1.602l5.914-1.602   l1.231-3.326l2.71-2.957l16.878-2.833l12.931-5.792l0.492-2.216l3.079-2.216l4.313-4.188l5.666-3.694l6.53-1.481l9.73-0.12   l2.219-0.986l1.845-3.575l0.372-2.955l2.586-7.144l1.231-1.109l2.465-0.615l7.636-4.804l5.421-1.97l1.23,0.124l1.234,3.202   l0.247,2.462l0.494,0.368l1.354-0.861l0.247-0.986l4.183-2.218l2.219-1.846l4.312-6.898l1.602-1.234l32.028,16.754l8.871,4.312   l16.752,7.636l67.503,29.196l-1.971,0.986l-2.216-0.124l-1.97,1.602l-2.217,0.738l-1.602,1.849l-2.71,0.124l-1.109,1.848   l-1.846,1.233l-0.987-0.124l-3.325,1.352l-3.944-0.491l-1.846,1.109l-1.97,0.249l-5.666,4.309l-0.372,4.804l-1.602,0.493   l-3.572-0.738l-3.571,0.738l-4.312,0.373l-3.572,3.447l-2.587,1.604l-4.559,5.173l1.11,2.833l-0.373,0.86l-3.078,0.989   l-1.601,1.109l-1.478,2.342l-0.86,2.829l-1.726,1.357l-0.368,1.971l0.862,1.109l-1.11,2.34l0.74,1.233l-0.615,2.218l0.74,2.214   l-0.248,0.371l-2.463-0.247l-3.202,0.493l-1.478,1.109l-4.68,8.375l0.368,2.462l0.737,1.109l-0.985,1.726l-0.244,4.188l0.244,2.218   l0.74,1.111l0.37,3.447l-1.846,2.711l2.094,2.955l0.862,2.464l1.475,0.74l0.125,1.602l1.354,1.969l-0.245,2.957l0.615,4.804   l-1.849,1.233l-0.736,2.462l-0.616,0.491l-2.711,0.617l-0.492-0.617l-2.34-0.245l-1.974,1.478l-0.368,1.478l-1.352-0.617   l-1.974,0.124l-1.23,3.944l-1.974,2.216l-1.478,3.202l-2.71,0.247l-6.527,2.588l-2.835-0.617l-1.353,0.986l-2.216,0.367   l-5.542,5.67l-0.492,3.449l-3.079,4.311l-2.465,1.231l-0.12,0.615l-0.742-0.122l-4.557,1.724l-0.617,0.742h-1.356l-1.106,1.109   l-0.739,1.845v2.835l-1.477,0.617l-0.866,3.691l-1.969,2.59l-1.353-0.249l-0.866,0.491l-0.859,1.726l-0.369-0.249v1.602   l0.617,0.615l-1.234,2.342l-2.094,0.738l-1.478,1.478l0.125,2.34l-1.357,1.231l-3.203,0.99l-0.861,1.847l-1.353-0.495l-1.11,0.617   l-1.725,2.093l-1.107-0.124l-0.862-1.476l-2.094,0.367l-0.74,2.711h-2.463l-0.248,2.095l-0.737,0.86l-0.865-0.245l-0.739,1.847   l-1.476,0.122l-0.74,1.604h-1.97l-1.85,1.847l-0.617,1.109l-1.477,0.491l-1.721,4.068l-3.204,0.612l-1.109,2.588l-0.74,0.122   l-0.245,0.493l-1.234-0.245l-0.369,0.86l-1.601-0.738l-0.985,1.105v2.097l-1.11,0.864l-0.123,1.602l-0.741,1.476l0.864,1.354   l-1.601,2.097l-3.205,0.491l-1.108-0.614l-0.985,0.86l-1.727-0.124l-1.23,1.109l-1.109,0.495l-2.709-0.124l-1.234,0.864   l-3.448-0.124l-0.986-0.74l-2.217,0.371l-2.709,3.08v1.476l-1.971,2.338l-1.353,3.328l-1.849,0.367l-1.109,0.986l-1.109,0.249   l-0.245,2.711l0.492,1.847l-0.86,1.724l0.244,2.462l-4.556,2.835l-2.959-0.249l-0.986,1.233l-4.064,2.464l-1.353,2.093   l-2.218,1.602l-0.741,1.726l-1.229,1.354l-0.374,2.093l-0.86,1.235l-5.421,1.969l-3.573-0.495l-78.464,19.466l2.462-5.175   l0.372-5.173l0.367-0.618l-0.739-1.969l3.325-4.068l0.493-1.229l-0.86-2.586l-0.249-2.835l0.986-0.736l-0.611-1.109l0.985-0.249   l-0.617-0.738l-1.357,0.493l-1.476-0.493l-0.988,2.34v-1.478l-0.492,0.493l-0.492-0.248v-0.738l-0.616-0.86l0.864-0.866   l-1.235,0.124l-0.367-0.74l-0.492,0.124l0.492,1.233l-1.849-0.249v0.493l1.108,0.371l-0.124,0.369l-3.697,0.985l-0.244,2.097   l-0.615,0.365l-0.494-1.109l-0.863,0.992l-1.106-2.837l-0.494,0.124l0.122,1.847l-0.616-0.126l-0.367-2.336l-1.479,1.231   l-1.475-0.74l-0.617,0.985l-0.985-0.124l-0.861,2.218l-1.357-0.243l-0.987,0.491l-0.492-1.482l-1.354-0.245l-0.247,0.738   l0.367,1.111h-1.108l-0.122-0.862l-2.342,0.493l-0.125,1.971l-0.492,0.616h-1.97l-0.492-1.847l-1.601,1.353l-1.478-0.862   l-0.249-1.109h-2.213l0.12-1.233l-0.861,1.604l0.492,0.984l-2.338-1.476l-0.125,0.74l-1.234,0.493v-1.849l-1.724,0.491   l-0.492-0.367l0.615-1.602h-0.615l-0.862,0.249l-0.368,1.602l0.368,0.612l-1.235-0.493l-0.611,0.742l-0.989-0.124l0.248,0.742   l-0.615,0.12l-1.971-0.614l-0.492-0.864l-0.124,1.478l-0.988-0.12l-0.615,0.493v-0.74l-0.861-0.616l-1.357,0.247l-1.23-1.233   l0.124-1.109l1.598-0.12v-0.493l-1.476-0.124v-0.742l-0.861-0.491l-1.234,0.124l-1.6-0.742l-0.495,0.864l-1.23,0.12l-0.74-0.614   l0.247,0.862l-1.109,1.354l-0.492-0.614h-2.587l-0.616-0.495l-0.616,1.109l-1.233,0.247l-0.737,1.478l-0.742-0.493   L2247.777,2783.388z"
   class="maps" />
	<path
   id="path70"
   d="   M2436.123,2803.346l2.709,0.124l1.109-0.493h8.498l3.326-2.344l4.804-0.243l3.205-1.849l2.711-0.493l0.612-0.495l0.247-2.584   l2.341-1.722l69.722-0.124l3.202-3.326l-1.109-2.711l3.451-2.586l1.231-1.602l0.247-2.34l4.188-2.833l0.245-1.971l2.095-0.86   l0.247-0.491l1.354,0.243l0.616-0.493l-0.124-2.462l0.74-1.109h2.462l3.697-3.204h4.064l0.986-0.74l4.313-0.86l0.248-1.109   l1.602-0.986l0.119-0.493l2.71,0.615l1.851-0.367l1.602-0.493l-0.125-1.482l0.74-0.612l2.831,0.243l1.97-0.858l0.741-0.866   l0.616-2.584l2.71-1.478l-0.372-2.831l0.617-0.988l1.724-0.738l1.353,0.245l0.741,0.986h1.108l2.587-2.464l1.23,43.484l2.587-0.86   l0.989-2.095l0.862-0.742l2.217-0.367l0.738-0.986l7.146-3.451l1.231-2.216l4.561-1.724l1.352-1.969l2.586,0.245l3.449-0.617   l0.373,0.124l-0.125,0.617l3.695-2.218l3.573,1.109l2.709-1.109l3.45-0.617l3.819,0.617l1.354-1.231l1.724,0.493l1.478-0.742   l1.601,2.095l2.466,1.478l0.861,1.724l3.571,1.478l0.742,1.724l1.353,0.986l-0.244,1.111l-0.617,0.12l-2.344,2.216l-0.244,1.602   l-1.602,1.602l0.368,1.233l-1.352,0.616l-1.358-0.124l-0.492,0.617l0.492,1.602l-0.244,1.971l5.91,6.524l0.985,3.82l-0.611,1.604   l0.367,1.847l1.97,1.973l0.369,2.711l2.343,1.598l2.709,2.466l-4.063,3.449v2.959l0.862,0.862l0.243,1.478l-0.86,0.491   l-0.617-0.615l-0.368,0.615l-0.247-0.369l-0.739,0.245l-0.985,0.986l-0.865-0.369l0.248,1.602l-1.476,0.742l-2.219,0.118   l-1.352,1.109l-0.373,1.111l-1.477-0.122l-0.617,1.6l-1.354,0.617l-0.616,1.109h-0.741l0.249,0.742h-0.741l-0.861,1.227   l-6.158-3.695l-1.109,1.233l-5.666-0.124l-11.95-6.033l-1.109-0.126l-12.439,3.204l-3.575,2.095l-8.006,2.955l-0.615,1.602   l-0.864,5.052l-2.707,4.433l-0.987,5.049l-3.575,3.45l-2.956,5.788l-0.984,1.355v1.724l-3.697,1.233l-1.603,1.598l-0.368,4.685   l-1.849,4.431l0.248,7.885l2.094,0.122l2.463,0.987h-10.222l-0.492-0.491l-1.358-3.573l0.86-2.713l-1.104-0.862l0.119-0.738   l-2.094,0.247l-0.86-0.121l0.741-0.493l-0.249-0.249l-0.617-3.204l-0.86-0.615l-0.124,0.493l-1.353-0.243l0.243-0.743l-1.229-0.86   l0.244-1.354l-0.737-0.124v-0.74l-1.109-0.738l1.97-2.095l-0.369-1.231l0.736-0.124l0.617,0.864h0.741l0.986-0.864l-0.247-0.986   h1.232l1.477,0.86l0.986-0.985l0.861-2.713l1.357,0.373l0.492-0.615l-0.74-2.711l0.74-0.985l0.986,0.493l0.861-1.478l-0.369-1.357   l0.369-0.612l-0.613-0.866l0.986,0.493l0.86-1.229l-2.338-2.466l1.598-1.6l0.615-1.48h1.358l-0.985,1.109l0.244,0.495l1.477-0.369   l0.372-0.616l-1.725-2.095l-1.726,0.74l-0.86-0.616l-1.357,0.124v1.722l-1.23,1.357l-4.436,2.34l-1.847-0.247l-1.232,2.588   l-1.847,1.6l-2.958-0.614l-1.478,0.245l-1.109,1.109l-1.107,0.249l-0.121,0.736l-0.985,0.617l-26.365-0.12l1.234-3.695l0.737-0.373   l1.235-1.969l-0.125-0.984l0.986-0.495l0.248-0.86l-0.123-1.109l-1.357-1.481l-0.614-2.586l2.707-3.323l0.99-0.367l1.476-2.466   l2.832-1.231l0.247-1.231l-0.617-0.124l0.249-0.371l-0.988-2.093l0.122-0.86l1.479-0.742l0.124-0.615l-0.986-0.367l0.249-0.742   l2.213-0.245l1.358-0.984l1.721,0.736l0.741-0.245l1.232,1.229l0.617-0.245l1.105-2.344l1.727-0.245l1.109-1.849l0.247,0.491   l1.23,0.249l1.11-0.864l0.616,0.371l0.124-1.6l1.97-0.742h2.219l1.722-1.969l-0.122,0.616l0.862-0.493l2.094,0.245l0.987-1.109   l0.616,0.615l1.229,0.124l-0.245,0.616l0.615,0.493l1.354-0.124v-0.986l0.864-0.249l-0.372-0.985l0.985-1.602l-1.23-1.229   l-0.616,0.245l0.245-1.109h-0.492l-0.369-1.969l-0.861,0.74l-0.373-0.74l-0.859,0.122v-0.862l-0.493,0.74h-1.109l-1.232-0.988   h0.617l-0.987-1.724l-1.108,1.602l-0.12-1.602l-0.617,1.233h-0.74l-0.244,1.354l-0.617-0.986l-1.357-0.243l-0.492-0.742   l-1.231-0.493v-0.491l-1.109,0.615l-2.217-0.124l-1.726,1.971l-0.737-1.111l-0.742,0.125l0.125-1.354l-1.971-0.74l-0.74,1.109   l-0.985-0.988l-0.125,1.233h-0.737l-0.372,0.862l-0.244-0.616l-1.969-0.124l-0.249-0.493l-0.741,0.493l-0.86-0.614l0.367-0.615   l-0.737,0.122l-0.492-0.862l-1.358,1.357v-0.373l-1.601-0.122l-0.737,0.74l-1.109-0.124l-1.969,1.724l-1.235,0.124l-0.369,0.615   l-0.74-0.864l-2.219-0.367l-0.243,0.86l-2.711,1.357l-0.367-0.249l-0.373,0.742v-0.493l-1.352-0.124l0.122-0.491l-0.492,0.615   l-0.492-0.493l-1.109,0.245l-0.125-0.615l-0.244,0.74l-1.235-0.491l-0.616,0.122l-0.123,0.738l-0.245-0.493l-1.601,0.124   l-0.368,0.616l-1.109-0.864l-0.865,0.864l-1.108-1.478l-0.614,0.493l-2.217,0.245l-0.986,1.233l-3.326-0.249l-0.494,0.864   l-1.234-0.249l-0.367-0.736h-2.836l-0.986,0.984l-1.847-0.615l-1.476-1.602l-1.602,0.742l-1.6-0.124l-1.971-1.602l-1.974,0.369   l-0.367,0.615l-0.493-0.493l-0.245,0.615l-3.45-0.247l-1.602-1.478h-1.108l-0.862,0.742l-1.352-1.357l0.492-0.862l-0.249-0.862   l-1.845-0.493l-0.492,0.862l-1.234-0.247l-2.588-2.711l-1.969,0.491l-0.99,1.481h-0.612l-1.357,1.602l-3.697,1.478l-1.846-0.493   l-3.203-2.218h-1.726l-0.243,0.616l-1.234,0.245l-1.847-1.847l-1.357,1.109l-0.369-0.493l-1.356,0.245l-1.969-1.354l-0.862,0.493   l-1.232-0.249l-0.859,2.957l-1.235,0.614l-0.986,1.726l-1.108,0.247l-2.832,3.082l-3.202,0.858l-0.988,1.359l-1.724,0.86   l-0.742-0.495L2436.123,2803.346z"
   class="maps" />
	<path
   id="path72"
   d="   M2667.581,2620.915l95.713,40.773l-2.095,4.311l1.97,3.82l-0.125,3.324l-0.859,1.848l-0.493,4.557l0.493,2.713l-1.97,3.695   l-2.343,2.958l-0.741,2.34l-6.158,3.94l-1.97,2.835l-3.204,2.707l-0.493,1.724l0.493,4.806l-1.234,2.709v2.464l-0.614,0.367   l-3.077-0.243l-0.617,0.367l-2.466,4.066l-2.094-0.988l-2.831,0.866l-1.109-3.083l-0.741-0.367l-0.243-2.095l-3.204-2.338h-0.742   l-0.985-1.235l0.372-1.724l-0.741-0.493l-1.601-3.202l-2.586,0.864l-0.493-0.864l-1.233-0.12l-2.096,0.243l-1.109-0.243   l-2.461,1.229l-2.83-2.338l-0.989-0.124l-2.34-1.109l-1.234,0.491l-8.745-0.245l5.666-6.654l-1.725,0.124l-0.612,0.493   l-6.039-3.328l-5.296-2.338l-0.987-2.218l0.494-1.48l-1.109-0.491l-0.37,1.235l-2.342,0.736l-2.34-1.354l0.369-0.742l-0.494-0.367   l-0.985,0.493l-0.616-1.602l-0.861,1.726l-0.616-0.126l-2.463-3.819l-0.74,0.493l-3.204-1.231l-0.986-0.984l0.248-1.851   l-1.233-0.245l0.617-2.219l-13.8-6.528l-15.642-5.911l-0.245-0.493v-1.233l0.738-0.248l0.492-0.736l-0.12-2.097l-0.989-1.967   l1.234-2.095l0.741-2.959l1.108-0.369l1.232,0.617l6.529-4.437l1.846-3.821v-1.227l-1.109-2.342l-3.571-3.204l-1.846-3.078   l0.122-3.448l1.479-2.956l0.245-2.095l1.359-0.864l1.104,0.122l0.371-0.74l1.722,0.74l-0.12,1.111l2.094-0.742v0.615l2.832,0.742   l0.249-0.984l0.737,0.245l1.601-1.109l0.865,0.247l2.708-2.093l0.987,0.367L2667.581,2620.915z"
   class="maps" />
	<path
   id="path74"
   d="   M2789.409,2723.156l9.115-3.326l3.078-14.907l0.74-1.478l2.217-2.829l-0.865-5.915l-1.967-0.86l-3.079-6.53l-3.449-2.588   l-0.372-2.218l0.492-1.109l1.726-0.738l0.248-2.957l0.738-1.229l46.811,20.076l29.193,12.565l-1.109,0.864l0.368,1.229l-1.845,0.99   l1.477,1.227l-0.986,0.249l-0.492,0.987l0.617-0.249l-0.249,0.371l0.985,0.12v0.864l-0.985,0.245l-0.738,2.344l-1.849-1.109   l-0.244-1.357l-0.616,0.864l-0.249-0.987l-1.23,0.862l-0.248,0.74l0.368,0.493l-0.861,1.72l-0.985-0.491v1.724h-3.079l0.243,0.493   l-3.322,1.233l-0.374-0.617l-0.735,0.742l0.367,0.614l-1.726-0.367l-0.368,0.247l-0.122,0.987l-1.106,1.229l-1.481-0.245   l-0.738,0.86l-1.357-0.123v1.109l-1.354,0.742l0.124,1.476l-1.109-0.491l-1.724,0.74l-0.37,0.738l-2.217,1.724l0.742,0.862   l-0.865,0.862l-1.476,0.371l-0.988,1.229l-1.97,0.616l0.125,0.742l-0.741,0.615l0.245,1.847l-2.093,0.615v-0.86l-2.342,0.491   l-0.986-0.615l-0.368,0.369l0.737,1.969l-0.367,0.866l-1.109-0.617l-0.493,1.726l-0.617-1.359l-0.244,2.468l-1.108-0.742   l-0.374,0.247l0.249,0.986l-0.616,0.247l-2.957-1.478l-1.476,0.245l-2.344-1.596l-2.339-0.744l-2.959,0.245l-1.353-1.476   l-2.094-0.247l-2.958,0.74l-3.941,0.124l-1.97,2.093l-16.136-0.124L2789.409,2723.156z"
   class="maps" />
	<path
   id="path76"
   d="   M2652.183,2782.037l1.109-1.602l0.615-0.124l-0.247-0.493l2.217-0.86l1.354-2.218l1.232-0.738l2.712,0.12l1.724-0.738l1.601,0.245   l0.613-1.111h0.617l-0.245-0.736l0.86-1.233l15.769-1.111l0.493-1.109l-1.85,0.617l1.481-2.095l1.723,0.493l2.587-1.229   l-0.368-0.864h-0.986l-0.86-1.229l0.12-1.233l1.234-0.249l1.234-1.846l-0.125-1.109h0.617l-0.492-1.233l-1.483-0.614l0.249-0.986   l2.955-0.74l0.25-0.987l0.492,1.969l2.462,0.618l0.124,2.955l0.74,1.476l0.862,0.25l0.492,1.109l0.861,0.367l0.248,1.6l1.11,1.479   l1.845,0.491l4.436,2.711l3.203,5.299l0.121,2.584l0.99,1.971l0.738,0.493l7.268,1.107l-1.354,4.066l-1.851,1.357l-1.477-1.109   h-1.971l-1.233,3.326l-1.231,0.738l-1.601,2.711l1.478,0.986v2.093h1.353l1.107,1.478l2.712,1.602l0.74,1.233l5.292-0.124   l1.85,1.726l1.108,2.095l1.353,0.984h1.479l-3.079,5.542l-0.738,2.957l-3.328,2.464l-0.615,2.218l-3.571,3.695l-2.587-1.85   l-4.806,16.755l-0.985-0.493l-1.108,0.615l-0.738-0.742l-0.492,0.99h-1.11l-0.124-0.497l-0.248,0.248l-0.86-0.615l-0.124-1.724   l-1.723-0.247l-0.496-1.476l-1.597,0.367l-1.108-0.615v-0.617l-1.727-0.367l-0.125-0.493l-0.616,0.493l-0.986-1.233l-1.476-0.367   l-0.494-1.109l-0.74,0.74l-0.368-0.247l-0.86-1.847l-0.373,0.243l-1.722-0.738l-0.864,0.495l-1.231-0.742l-0.739,0.371   l-1.479-1.479l-1.969,0.615l0.124-0.736l-2.465,0.119l0.249,0.493l-0.742,0.615l-0.615-0.736l-1.479-0.25l-1.353,1.728l-0.985-0.25   l-0.865,0.866h-1.969l-0.862-0.866v0.25l-2.216-0.369l-2.344,1.969l-2.586-1.478l0.124-0.247l-1.725-0.493l-0.243-1.478   l-0.861-0.862v-2.957l4.063-3.448l-2.71-2.466l-2.344-1.598l-0.368-2.711l-1.97-1.975l-0.367-1.845l0.612-1.604l-0.985-3.819   l-5.912-6.526l0.244-1.971l-0.492-1.602l0.492-0.615l1.359,0.124l1.352-0.617l-0.368-1.231l1.602-1.604l0.244-1.6l2.344-2.216   l0.616-0.122l0.245-1.109l-1.353-0.987L2652.183,2782.037z"
   class="maps" />
	<path
   id="path78"
   d="   M2714.881,2783.513l-0.125-1.845l1.85-1.357l-0.123-1.478l0.865-0.617l-0.373-1.602l1.724-0.738l0.37-0.985l-0.245-1.602   l2.214,1.109l9.241-4.188l0.861-0.74l3.696-1.109l1.234-1.229l-0.125-2.833l0.74-1.355l0.986-1.109l1.23-0.617l2.96-4.557   l0.859-2.466l2.835-3.08l1.846-5.047l0.616-4.93l11.824-5.173l8.376-0.367l7.147-5.175l14.041-7.268l0.123,19.458l16.136,0.124   l1.97-2.093l3.942-0.124l2.958-0.738l2.094,0.245l1.353,1.478l2.958-0.245l2.341,0.742l2.342,1.596l1.477-0.245l2.957,1.478   l0.617-0.245l-0.862,1.355l-1.235-0.124v0.985l-0.74-0.367l-0.492,0.249v0.612l1.109,0.615l-0.124,1.357l-1.969-0.615l-1.479,0.615   v1.355l-0.862-0.247l-0.864,0.493l-0.985,4.431l-0.861,0.864l-0.617-1.231l-1.234,1.355l-1.109-0.247l0.495-0.491l-0.248-0.25   l-1.109,0.742l0.985,0.986l-0.985-0.122l-1.726,1.231v-0.616h-0.611l0.367,1.726l-0.985,1.105h1.6l0.245,0.615l-0.985,0.373   l-0.616,1.354l-0.244-0.493l-0.866,0.369l0.125,1.848l-0.985,1.72l-0.741,0.616l-1.105-0.367l-0.248,0.367l-0.985-0.122   l-0.861,1.109l-0.616-0.245l-0.617,0.617l-0.86-0.126l-0.494,0.862l0.738,0.74l-4.314,1.478l-0.611,0.742l-1.358,0.119v-0.736   l-1.6-0.493l-0.245,0.615l-0.741-0.122l-1.479,1.109h-2.586l-0.865,0.736l-0.492,1.726l1.724,1.233l-1.233,0.491l-0.492-0.491   l-0.613,1.602l-0.617-0.373l-0.616,0.493l-1.97,0.373l-0.864,1.229l-2.83,0.493l-1.235-2.462l-0.86-0.249l-2.834,0.122   l-0.617-1.227l-1.969,0.119l-1.969,1.481l-2.837,1.105l-0.492-1.227l-2.587-0.866l-1.352,0.742l-0.249-0.493l-0.985,0.369   l-1.969-0.74l-0.986,0.495l-0.865,1.969l1.726,1.969l-0.368,1.969l1.109,1.975l-0.124,0.738h-0.742l-1.845,0.985l-1.601-1.107   l-1.846,0.493l-0.498,1.354l0.498,0.617l-0.866,0.245l-1.725-2.586l-1.721,0.985l-2.466-1.229l-0.245,0.369l-0.368-0.862   l-1.482,0.245l-2.461,3.202l1.479,1.233v4.066l-0.987,0.493l-1.6-0.124l-0.986,1.478l0.247,1.231l-1.357,1.235l-3.939,0.985   l-0.987,0.986l-2.465,0.984l-1.846-0.367l-1.848,1.109l-0.613,2.093l-2.958-0.493l-1.477,0.245l-1.602,1.109l-3.572,0.988   l-1.231,1.109h-1.479l-1.353-0.986l-1.108-2.095l-1.85-1.724l-5.292,0.124l-0.74-1.235l-2.712-1.6l-1.107-1.478h-1.353v-2.095   l-1.478-0.986l1.601-2.711l1.231-0.736l1.233-3.326h1.971l1.477,1.109l1.851-1.359L2714.881,2783.513z"
   class="maps" />
	<path
   id="path80"
   d="   M2718.824,2773.291l-3.326-1.851l-0.369,0.495l-3.572-2.216l-1.849-4.806h-1.478l-2.461-4.561l-1.602-5.418l-1.724-0.984   l-3.45-4.188l-1.357,0.245l-0.615-0.493l-0.614-1.602l1.23-0.615l-1.23-1.354l-0.616-2.711l0.986-2.218l-1.478-4.19l-1.974-2.829   l0.618-0.864l-0.618-1.722l-2.094-2.466l0.125-1.229l19.711,0.122l4.43,2.588l8.625,6.895l2.214-0.369l1.85,0.615l1.354-1.109   l2.342-0.736l1.97-2.712l1.109-0.616l0.616-1.724l1.231-0.738l1.232-1.602l1.478-0.371l0.86-2.588l3.945-1.72l0.125-1.973   l-0.741-1.602l0.616-1.229l4.187-2.462l0.862-1.109l-0.739-1.235l1.353-2.586l2.834-1.231l1.722,0.862l2.094-0.369l2.094-1.109   l-0.612-2.342l1.48-2.093l2.585-1.109l0.492-0.988l3.821-0.985l2.832-1.849l1.357-3.815l2.338-1.975l0.37-1.847l0.988-0.986   l0.613-0.122l-0.245-0.86l3.204-2.217l1.229-2.835l3.079-1.478l0.741-3.078l0.493-0.862l1.109-0.247l-0.368-0.74l1.477-1.482   l2.462-1.103h3.204l2.343-1.85l4.309,1.726l-0.738,1.231l-0.248,2.955l-1.726,0.74l-0.492,1.109l0.372,2.218l3.449,2.586   l3.079,6.53l1.968,0.862l0.865,5.913l-2.218,2.831l-0.74,1.478l-3.078,14.905l-9.114,3.328l-14.042,7.268l-7.147,5.173   l-8.376,0.367l-11.823,5.175l-0.617,4.928l-1.845,5.049l-2.836,3.08l-0.86,2.466l-2.958,4.555l-1.23,0.617l-0.986,1.109   l-0.741,1.355l0.125,2.833l-1.233,1.229l-3.697,1.111l-0.86,0.74l-9.241,4.188L2718.824,2773.291z"
   class="maps" />
</g>
</svg>